SplineFontDB: 3.2
FontName: Reijima-ExtraBold
FullName: Reijima ExtraBold
FamilyName: Reijima ExtraBold
Weight: Heavy
Copyright: Copyright (c) 2019 by Coji Morishita. All rights reserved.
Version: 1.000
ItalicAngle: 0
UnderlinePosition: -100
UnderlineWidth: 50
Ascent: 860
Descent: 140
InvalidEm: 0
LayerCount: 2
Layer: 0 0 "Back" 1
Layer: 1 0 "Fore" 0
FSType: 8
OS2Version: 0
OS2_WeightWidthSlopeOnly: 0
OS2_UseTypoMetrics: 0
CreationTime: 1707357826
ModificationTime: 1707357826
OS2TypoAscent: 0
OS2TypoAOffset: 1
OS2TypoDescent: 0
OS2TypoDOffset: 1
OS2TypoLinegap: 0
OS2WinAscent: 0
OS2WinAOffset: 1
OS2WinDescent: 0
OS2WinDOffset: 1
HheadAscent: 0
HheadAOffset: 1
HheadDescent: 0
HheadDOffset: 1
OS2Vendor: 'PfEd'
DEI: 91125
Encoding: UnicodeFull
Compacted: 1
UnicodeInterp: none
NameList: AGL For New Fonts
DisplaySize: -48
AntiAlias: 1
FitToEm: 0
WinInfo: 0 27 9
BeginPrivate: 3
BlueValues 24 [-10 0 520 530 730 750 ]
OtherBlues 12 [-220 -220 ]
ForceBold 4 true
EndPrivate
BeginChars: 1114125 955

StartChar: .notdef
Encoding: 1114112 -1 0
Width: 500
LayerCount: 2
Fore
SplineSet
410 -140 m 1
 93 -140 l 1
 93 860 l 1
 410 860 l 1
 410 -140 l 1
168 793 m 1
 168 760 l 1
 233 760 l 1
 233 723 l 1
 167 723 l 1
 167 690 l 1
 333 690 l 1
 333 723 l 1
 267 723 l 1
 267 760 l 1
 333 760 l 1
 333 793 l 1
 168 793 l 1
167 664 m 1
 167 560 l 1
 333 560 l 1
 333 594 l 1
 267 594 l 1
 267 664 l 1
 167 664 l 1
233 594 m 1
 200 594 l 1
 200 630 l 1
 233 630 l 1
 233 594 l 1
167 533 m 1
 167 500 l 1
 233 500 l 1
 233 463 l 1
 167 463 l 1
 167 430 l 1
 267 430 l 1
 267 500 l 1
 333 500 l 1
 333 533 l 1
 167 533 l 1
300 473 m 1
 300 407 l 1
 167 407 l 1
 167 373 l 1
 333 373 l 1
 333 473 l 1
 300 473 l 1
233 351 m 1
 233 295 l 1
 267 295 l 1
 267 318 l 1
 300 318 l 1
 300 271 l 1
 200 271 l 1
 200 351 l 1
 167 351 l 1
 167 238 l 1
 333 238 l 1
 333 351 l 1
 233 351 l 1
167 178 m 1
 167 65 l 1
 333 65 l 1
 333 178 l 1
 167 178 l 1
300 98 m 1
 200 98 l 1
 200 145 l 1
 300 145 l 1
 300 98 l 1
167 42 m 1
 167 9 l 1
 237 9 l 1
 167 -38 l 1
 167 -71 l 1
 333 -71 l 1
 333 -38 l 1
 231 -38 l 1
 301 9 l 1
 333 9 l 1
 333 42 l 1
 167 42 l 1
EndSplineSet
EndChar

StartChar: A
Encoding: 65 65 2
Width: 694
Flags: W
LayerCount: 2
Fore
SplineSet
498 0 m 1
 459 151 l 1
 235 151 l 1
 196 0 l 1
 9 0 l 1
 232 730 l 1
 462 730 l 1
 685 0 l 1
 498 0 l 1
271 294 m 1
 423 294 l 1
 348 585 l 1
 346 585 l 1
 271 294 l 1
EndSplineSet
EndChar

StartChar: Aacute
Encoding: 193 193 3
Width: 694
Flags: W
LayerCount: 2
Fore
SplineSet
498 0 m 1
 459 151 l 1
 235 151 l 1
 196 0 l 1
 9 0 l 1
 232 730 l 1
 462 730 l 1
 685 0 l 1
 498 0 l 1
271 294 m 1
 423 294 l 1
 348 585 l 1
 346 585 l 1
 271 294 l 1
388 770 m 1
 238 770 l 1
 310 980 l 1
 510 980 l 1
 388 770 l 1
EndSplineSet
EndChar

StartChar: Abreve
Encoding: 258 258 4
Width: 694
Flags: W
LayerCount: 2
Fore
SplineSet
498 0 m 1
 459 151 l 1
 235 151 l 1
 196 0 l 1
 9 0 l 1
 232 730 l 1
 462 730 l 1
 685 0 l 1
 498 0 l 1
271 294 m 1
 423 294 l 1
 348 585 l 1
 346 585 l 1
 271 294 l 1
227 794 m 0
 192 811 164 835 144 866 c 0
 123 897 113 932 112 971 c 1
 265 971 l 1
 268 941 277 919 290 904 c 0
 303 890 322 883 347 883 c 0
 372 883 391 890 404 904 c 0
 417 919 426 941 430 971 c 1
 582 971 l 1
 581 932 571 897 550 866 c 0
 530 835 502 811 467 794 c 0
 432 777 392 768 347 768 c 0
 302 768 262 777 227 794 c 0
EndSplineSet
EndChar

StartChar: uni1EAE
Encoding: 7854 7854 5
Width: 694
Flags: W
LayerCount: 2
Fore
SplineSet
227 794 m 0
 192 811 164 835 144 866 c 0
 123 897 113 932 112 971 c 1
 242 971 l 1
 310 1170 l 1
 510 1170 l 1
 388 960 l 1
 267 960 l 1
 275 909 302 883 347 883 c 0
 372 883 391 890 404 904 c 0
 417 919 426 941 430 971 c 1
 582 971 l 1
 581 932 571 897 550 866 c 0
 530 835 502 811 467 794 c 0
 432 777 392 768 347 768 c 0
 302 768 262 777 227 794 c 0
498 0 m 1
 459 151 l 1
 235 151 l 1
 196 0 l 1
 9 0 l 1
 232 730 l 1
 462 730 l 1
 685 0 l 1
 498 0 l 1
271 294 m 1
 423 294 l 1
 348 585 l 1
 346 585 l 1
 271 294 l 1
EndSplineSet
EndChar

StartChar: uni1EB6
Encoding: 7862 7862 6
Width: 694
Flags: W
LayerCount: 2
Fore
SplineSet
498 0 m 1
 459 151 l 1
 235 151 l 1
 196 0 l 1
 9 0 l 1
 232 730 l 1
 462 730 l 1
 685 0 l 1
 498 0 l 1
271 294 m 1
 423 294 l 1
 348 585 l 1
 346 585 l 1
 271 294 l 1
263 -61 m 1
 431 -61 l 1
 431 -229 l 1
 263 -229 l 1
 263 -61 l 1
227 794 m 0
 192 811 164 835 144 866 c 0
 123 897 113 932 112 971 c 1
 265 971 l 1
 268 941 277 919 290 904 c 0
 303 890 322 883 347 883 c 0
 372 883 391 890 404 904 c 0
 417 919 426 941 430 971 c 1
 582 971 l 1
 581 932 571 897 550 866 c 0
 530 835 502 811 467 794 c 0
 432 777 392 768 347 768 c 0
 302 768 262 777 227 794 c 0
EndSplineSet
EndChar

StartChar: uni1EB0
Encoding: 7856 7856 7
Width: 694
Flags: W
LayerCount: 2
Fore
SplineSet
401 902 m 0
 414 915 423 934 428 960 c 1
 306 960 l 1
 184 1170 l 1
 384 1170 l 1
 452 971 l 1
 582 971 l 1
 581 932 571 897 550 866 c 0
 530 835 502 811 467 794 c 0
 432 777 392 768 347 768 c 0
 302 768 262 777 227 794 c 0
 192 811 164 835 144 866 c 0
 123 897 113 932 112 971 c 1
 265 971 l 1
 268 941 277 919 290 904 c 0
 303 890 322 883 347 883 c 0
 370 883 388 889 401 902 c 0
498 0 m 1
 459 151 l 1
 235 151 l 1
 196 0 l 1
 9 0 l 1
 232 730 l 1
 462 730 l 1
 685 0 l 1
 498 0 l 1
271 294 m 1
 423 294 l 1
 348 585 l 1
 346 585 l 1
 271 294 l 1
EndSplineSet
EndChar

StartChar: uni1EB2
Encoding: 7858 7858 8
Width: 694
Flags: W
LayerCount: 2
Fore
SplineSet
402 902 m 0
 414 915 423 934 428 961 c 1
 363 961 l 1
 370 983 374 1004 374 1023 c 0
 374 1036 370 1044 363 1048 c 0
 356 1053 342 1055 322 1055 c 0
 275 1055 227 1047 177 1032 c 1
 164 1151 l 1
 191 1157 221 1162 254 1166 c 0
 287 1169 318 1171 347 1171 c 0
 395 1171 432 1168 458 1163 c 0
 484 1158 502 1148 514 1136 c 0
 524 1122 530 1104 530 1080 c 0
 530 1063 528 1045 525 1025 c 0
 522 1005 517 987 511 971 c 1
 582 971 l 1
 581 932 571 897 550 866 c 0
 530 835 502 811 467 794 c 0
 432 777 392 768 347 768 c 0
 302 768 262 777 227 794 c 0
 192 811 164 835 144 866 c 0
 123 897 113 932 112 971 c 1
 265 971 l 1
 268 941 277 919 290 904 c 0
 303 890 322 883 347 883 c 0
 370 883 388 889 402 902 c 0
498 0 m 1
 459 151 l 1
 235 151 l 1
 196 0 l 1
 9 0 l 1
 232 730 l 1
 462 730 l 1
 685 0 l 1
 498 0 l 1
271 294 m 1
 423 294 l 1
 348 585 l 1
 346 585 l 1
 271 294 l 1
EndSplineSet
EndChar

StartChar: uni1EB4
Encoding: 7860 7860 9
Width: 694
Flags: W
LayerCount: 2
Fore
SplineSet
498 0 m 1
 459 151 l 1
 235 151 l 1
 196 0 l 1
 9 0 l 1
 232 730 l 1
 462 730 l 1
 685 0 l 1
 498 0 l 1
271 294 m 1
 423 294 l 1
 348 585 l 1
 346 585 l 1
 271 294 l 1
227 794 m 0
 192 811 164 835 144 866 c 0
 123 897 113 932 112 971 c 1
 265 971 l 1
 268 941 277 919 290 904 c 0
 303 890 322 883 347 883 c 0
 372 883 391 890 404 904 c 0
 417 919 426 941 430 971 c 1
 582 971 l 1
 581 932 571 897 550 866 c 0
 530 835 502 811 467 794 c 0
 432 777 392 768 347 768 c 0
 302 768 262 777 227 794 c 0
329 1055 m 0
 302 1071 282 1079 268 1079 c 0
 259 1079 252 1075 249 1066 c 0
 246 1057 244 1041 244 1016 c 1
 112 1016 l 1
 112 1085 121 1136 140 1168 c 0
 159 1202 188 1218 227 1218 c 0
 264 1218 310 1202 365 1169 c 0
 392 1153 412 1145 425 1145 c 0
 434 1145 441 1149 444 1158 c 0
 448 1167 450 1183 450 1208 c 1
 582 1208 l 1
 582 1139 572 1088 554 1056 c 0
 534 1022 505 1006 466 1006 c 0
 429 1006 384 1022 329 1055 c 0
EndSplineSet
EndChar

StartChar: Acircumflex
Encoding: 194 194 10
Width: 694
Flags: W
LayerCount: 2
Fore
SplineSet
498 0 m 1
 459 151 l 1
 235 151 l 1
 196 0 l 1
 9 0 l 1
 232 730 l 1
 462 730 l 1
 685 0 l 1
 498 0 l 1
271 294 m 1
 423 294 l 1
 348 585 l 1
 346 585 l 1
 271 294 l 1
215 980 m 1
 479 980 l 1
 601 770 l 1
 417 770 l 1
 348 917 l 1
 346 917 l 1
 277 770 l 1
 93 770 l 1
 215 980 l 1
EndSplineSet
EndChar

StartChar: uni1EA4
Encoding: 7844 7844 11
Width: 694
Flags: W
LayerCount: 2
Fore
SplineSet
346 917 m 1
 277 770 l 1
 93 770 l 1
 215 980 l 1
 463 980 l 1
 525 1160 l 1
 725 1160 l 1
 603 950 l 1
 496 950 l 1
 601 770 l 1
 417 770 l 1
 348 917 l 1
 346 917 l 1
232 730 m 1
 462 730 l 1
 685 0 l 1
 498 0 l 1
 459 151 l 1
 235 151 l 1
 196 0 l 1
 9 0 l 1
 232 730 l 1
271 294 m 1
 423 294 l 1
 348 585 l 1
 346 585 l 1
 271 294 l 1
EndSplineSet
EndChar

StartChar: uni1EAC
Encoding: 7852 7852 12
Width: 694
Flags: W
LayerCount: 2
Fore
SplineSet
498 0 m 1
 459 151 l 1
 235 151 l 1
 196 0 l 1
 9 0 l 1
 232 730 l 1
 462 730 l 1
 685 0 l 1
 498 0 l 1
271 294 m 1
 423 294 l 1
 348 585 l 1
 346 585 l 1
 271 294 l 1
263 -61 m 1
 431 -61 l 1
 431 -229 l 1
 263 -229 l 1
 263 -61 l 1
215 980 m 1
 479 980 l 1
 601 770 l 1
 417 770 l 1
 348 917 l 1
 346 917 l 1
 277 770 l 1
 93 770 l 1
 215 980 l 1
EndSplineSet
EndChar

StartChar: uni1EA6
Encoding: 7846 7846 13
Width: 694
Flags: W
LayerCount: 2
Fore
SplineSet
198 950 m 1
 91 950 l 1
 -31 1160 l 1
 169 1160 l 1
 231 980 l 1
 479 980 l 1
 601 770 l 1
 417 770 l 1
 348 917 l 1
 346 917 l 1
 277 770 l 1
 93 770 l 1
 198 950 l 1
498 0 m 1
 459 151 l 1
 235 151 l 1
 196 0 l 1
 9 0 l 1
 232 730 l 1
 462 730 l 1
 685 0 l 1
 498 0 l 1
271 294 m 1
 423 294 l 1
 348 585 l 1
 346 585 l 1
 271 294 l 1
EndSplineSet
EndChar

StartChar: uni1EA8
Encoding: 7848 7848 14
Width: 694
Flags: W
LayerCount: 2
Fore
SplineSet
277 770 m 1
 93 770 l 1
 215 980 l 1
 464 980 l 1
 466 992 467 1003 467 1012 c 0
 467 1025 463 1033 456 1038 c 0
 449 1042 435 1044 415 1044 c 0
 368 1044 320 1036 270 1021 c 1
 257 1140 l 1
 284 1146 314 1151 347 1154 c 0
 380 1158 411 1160 440 1160 c 0
 488 1160 525 1157 551 1152 c 0
 577 1147 596 1138 606 1124 c 0
 618 1112 623 1093 623 1069 c 0
 623 1051 621 1031 616 1008 c 0
 612 986 607 967 600 950 c 1
 496 950 l 1
 601 770 l 1
 417 770 l 1
 348 917 l 1
 346 917 l 1
 277 770 l 1
498 0 m 1
 459 151 l 1
 235 151 l 1
 196 0 l 1
 9 0 l 1
 232 730 l 1
 462 730 l 1
 685 0 l 1
 498 0 l 1
271 294 m 1
 423 294 l 1
 348 585 l 1
 346 585 l 1
 271 294 l 1
EndSplineSet
EndChar

StartChar: uni1EAA
Encoding: 7850 7850 15
Width: 694
Flags: W
LayerCount: 2
Fore
SplineSet
498 0 m 1
 459 151 l 1
 235 151 l 1
 196 0 l 1
 9 0 l 1
 232 730 l 1
 462 730 l 1
 685 0 l 1
 498 0 l 1
271 294 m 1
 423 294 l 1
 348 585 l 1
 346 585 l 1
 271 294 l 1
215 980 m 1
 479 980 l 1
 601 770 l 1
 417 770 l 1
 348 917 l 1
 346 917 l 1
 277 770 l 1
 93 770 l 1
 215 980 l 1
329 1055 m 0
 302 1071 282 1079 268 1079 c 0
 259 1079 252 1075 249 1066 c 0
 246 1057 244 1041 244 1016 c 1
 112 1016 l 1
 112 1085 121 1136 140 1168 c 0
 159 1202 188 1218 227 1218 c 0
 264 1218 310 1202 365 1169 c 0
 392 1153 412 1145 425 1145 c 0
 434 1145 441 1149 444 1158 c 0
 448 1167 450 1183 450 1208 c 1
 582 1208 l 1
 582 1139 572 1088 554 1056 c 0
 534 1022 505 1006 466 1006 c 0
 429 1006 384 1022 329 1055 c 0
EndSplineSet
EndChar

StartChar: uni0200
Encoding: 512 512 16
Width: 694
Flags: W
LayerCount: 2
Fore
SplineSet
498 0 m 1
 459 151 l 1
 235 151 l 1
 196 0 l 1
 9 0 l 1
 232 730 l 1
 462 730 l 1
 685 0 l 1
 498 0 l 1
271 294 m 1
 423 294 l 1
 348 585 l 1
 346 585 l 1
 271 294 l 1
55 980 m 1
 255 980 l 1
 327 770 l 1
 177 770 l 1
 55 980 l 1
310 980 m 1
 510 980 l 1
 582 770 l 1
 432 770 l 1
 310 980 l 1
EndSplineSet
EndChar

StartChar: Adieresis
Encoding: 196 196 17
Width: 694
Flags: W
LayerCount: 2
Fore
SplineSet
498 0 m 1
 459 151 l 1
 235 151 l 1
 196 0 l 1
 9 0 l 1
 232 730 l 1
 462 730 l 1
 685 0 l 1
 498 0 l 1
271 294 m 1
 423 294 l 1
 348 585 l 1
 346 585 l 1
 271 294 l 1
131 959 m 1
 299 959 l 1
 299 791 l 1
 131 791 l 1
 131 959 l 1
395 959 m 1
 564 959 l 1
 564 791 l 1
 395 791 l 1
 395 959 l 1
EndSplineSet
EndChar

StartChar: uni1EA0
Encoding: 7840 7840 18
Width: 694
Flags: W
LayerCount: 2
Fore
SplineSet
498 0 m 1
 459 151 l 1
 235 151 l 1
 196 0 l 1
 9 0 l 1
 232 730 l 1
 462 730 l 1
 685 0 l 1
 498 0 l 1
271 294 m 1
 423 294 l 1
 348 585 l 1
 346 585 l 1
 271 294 l 1
263 -61 m 1
 431 -61 l 1
 431 -229 l 1
 263 -229 l 1
 263 -61 l 1
EndSplineSet
EndChar

StartChar: Agrave
Encoding: 192 192 19
Width: 694
Flags: W
LayerCount: 2
Fore
SplineSet
498 0 m 1
 459 151 l 1
 235 151 l 1
 196 0 l 1
 9 0 l 1
 232 730 l 1
 462 730 l 1
 685 0 l 1
 498 0 l 1
271 294 m 1
 423 294 l 1
 348 585 l 1
 346 585 l 1
 271 294 l 1
184 980 m 1
 384 980 l 1
 456 770 l 1
 306 770 l 1
 184 980 l 1
EndSplineSet
EndChar

StartChar: uni1EA2
Encoding: 7842 7842 20
Width: 694
Flags: W
LayerCount: 2
Fore
SplineSet
498 0 m 1
 459 151 l 1
 235 151 l 1
 196 0 l 1
 9 0 l 1
 232 730 l 1
 462 730 l 1
 685 0 l 1
 498 0 l 1
271 294 m 1
 423 294 l 1
 348 585 l 1
 346 585 l 1
 271 294 l 1
374 840 m 0
 374 853 370 861 363 866 c 0
 356 870 342 872 322 872 c 0
 275 872 227 864 177 849 c 1
 164 968 l 1
 191 974 221 979 254 982 c 0
 287 986 318 988 347 988 c 0
 395 988 432 985 458 980 c 0
 484 975 502 966 514 952 c 0
 524 940 530 921 530 897 c 0
 530 879 528 859 524 836 c 0
 519 814 514 795 507 778 c 1
 363 778 l 1
 370 800 374 821 374 840 c 0
EndSplineSet
EndChar

StartChar: uni0202
Encoding: 514 514 21
Width: 694
Flags: W
LayerCount: 2
Fore
SplineSet
498 0 m 1
 459 151 l 1
 235 151 l 1
 196 0 l 1
 9 0 l 1
 232 730 l 1
 462 730 l 1
 685 0 l 1
 498 0 l 1
271 294 m 1
 423 294 l 1
 348 585 l 1
 346 585 l 1
 271 294 l 1
467 956 m 0
 502 939 530 915 550 884 c 0
 571 853 581 818 582 779 c 1
 430 779 l 1
 426 809 417 831 404 846 c 0
 391 860 372 867 347 867 c 0
 322 867 303 860 290 846 c 0
 277 831 268 809 265 779 c 1
 112 779 l 1
 113 818 123 853 144 884 c 0
 164 915 192 939 227 956 c 0
 262 973 302 982 347 982 c 0
 392 982 432 973 467 956 c 0
EndSplineSet
EndChar

StartChar: Amacron
Encoding: 256 256 22
Width: 694
Flags: W
LayerCount: 2
Fore
SplineSet
498 0 m 1
 459 151 l 1
 235 151 l 1
 196 0 l 1
 9 0 l 1
 232 730 l 1
 462 730 l 1
 685 0 l 1
 498 0 l 1
271 294 m 1
 423 294 l 1
 348 585 l 1
 346 585 l 1
 271 294 l 1
144 936 m 1
 550 936 l 1
 550 814 l 1
 144 814 l 1
 144 936 l 1
EndSplineSet
EndChar

StartChar: Aogonek
Encoding: 260 260 23
Width: 694
Flags: W
LayerCount: 2
Fore
SplineSet
776 -199 m 1
 741 -212 700 -219 654 -219 c 0
 591 -219 543 -208 508 -186 c 0
 474 -164 457 -133 457 -92 c 0
 457 -59 470 -27 497 4 c 1
 459 151 l 1
 235 151 l 1
 196 0 l 1
 9 0 l 1
 232 730 l 1
 462 730 l 1
 685 0 l 1
 634 -23 609 -46 609 -69 c 0
 609 -79 614 -87 624 -92 c 0
 633 -97 647 -100 665 -100 c 0
 698 -100 730 -93 760 -80 c 1
 776 -199 l 1
271 294 m 1
 423 294 l 1
 348 585 l 1
 346 585 l 1
 271 294 l 1
EndSplineSet
EndChar

StartChar: Aring
Encoding: 197 197 24
Width: 694
Flags: W
LayerCount: 2
Fore
SplineSet
459 151 m 1
 235 151 l 1
 196 0 l 1
 9 0 l 1
 230 722 l 1
 215 737 204 754 196 773 c 0
 188 792 184 813 184 835 c 0
 184 864 191 892 206 916 c 0
 221 942 240 961 266 976 c 0
 290 991 318 998 348 998 c 0
 377 998 404 991 430 976 c 0
 454 961 474 942 489 916 c 0
 504 892 511 864 511 835 c 0
 511 814 507 793 499 774 c 0
 491 754 480 736 465 721 c 1
 685 0 l 1
 498 0 l 1
 459 151 l 1
306 878 m 0
 294 867 288 852 288 835 c 0
 288 818 294 804 306 792 c 0
 317 781 331 775 348 775 c 0
 365 775 379 781 390 792 c 0
 402 804 408 818 408 835 c 0
 408 852 402 866 390 878 c 0
 379 889 365 895 348 895 c 0
 331 895 317 889 306 878 c 0
271 294 m 1
 423 294 l 1
 348 585 l 1
 346 585 l 1
 271 294 l 1
EndSplineSet
EndChar

StartChar: Aringacute
Encoding: 506 506 25
Width: 694
Flags: W
LayerCount: 2
Fore
SplineSet
459 151 m 1
 235 151 l 1
 196 0 l 1
 9 0 l 1
 230 722 l 1
 215 737 204 754 196 773 c 0
 188 792 184 813 184 835 c 0
 184 859 189 882 198 902 c 0
 208 924 222 942 239 957 c 1
 310 1163 l 1
 510 1163 l 1
 408 987 l 1
 439 975 464 955 482 928 c 0
 502 900 511 869 511 835 c 0
 511 814 507 793 499 774 c 0
 491 754 480 736 465 721 c 1
 685 0 l 1
 498 0 l 1
 459 151 l 1
390 792 m 0
 402 804 408 818 408 835 c 0
 408 852 402 866 390 878 c 0
 379 889 365 895 348 895 c 0
 331 895 317 889 306 878 c 0
 294 867 288 852 288 835 c 0
 288 818 294 804 306 792 c 0
 317 781 331 775 348 775 c 0
 365 775 379 781 390 792 c 0
271 294 m 1
 423 294 l 1
 348 585 l 1
 346 585 l 1
 271 294 l 1
EndSplineSet
EndChar

StartChar: Atilde
Encoding: 195 195 26
Width: 694
Flags: W
LayerCount: 2
Fore
SplineSet
498 0 m 1
 459 151 l 1
 235 151 l 1
 196 0 l 1
 9 0 l 1
 232 730 l 1
 462 730 l 1
 685 0 l 1
 498 0 l 1
271 294 m 1
 423 294 l 1
 348 585 l 1
 346 585 l 1
 271 294 l 1
329 818 m 0
 302 834 282 842 268 842 c 0
 259 842 252 838 249 829 c 0
 246 820 244 804 244 779 c 1
 112 779 l 1
 112 848 121 898 140 932 c 0
 159 964 188 981 227 981 c 0
 264 981 310 965 365 932 c 0
 392 916 412 908 425 908 c 0
 434 908 441 912 444 921 c 0
 448 930 450 946 450 971 c 1
 582 971 l 1
 582 902 572 852 554 818 c 0
 534 786 505 769 466 769 c 0
 429 769 384 785 329 818 c 0
EndSplineSet
EndChar

StartChar: AE
Encoding: 198 198 27
Width: 894
Flags: W
LayerCount: 2
Fore
SplineSet
836 591 m 1
 578 591 l 1
 578 445 l 1
 816 445 l 1
 816 310 l 1
 578 310 l 1
 578 139 l 1
 836 139 l 1
 836 0 l 1
 408 0 l 1
 408 151 l 1
 243 151 l 1
 196 0 l 1
 9 0 l 1
 269 730 l 1
 836 730 l 1
 836 591 l 1
287 294 m 1
 408 294 l 1
 408 593 l 1
 379 593 l 1
 287 294 l 1
EndSplineSet
EndChar

StartChar: AEacute
Encoding: 508 508 28
Width: 894
Flags: W
LayerCount: 2
Fore
SplineSet
836 591 m 1
 578 591 l 1
 578 445 l 1
 816 445 l 1
 816 310 l 1
 578 310 l 1
 578 139 l 1
 836 139 l 1
 836 0 l 1
 408 0 l 1
 408 151 l 1
 243 151 l 1
 196 0 l 1
 9 0 l 1
 269 730 l 1
 836 730 l 1
 836 591 l 1
287 294 m 1
 408 294 l 1
 408 593 l 1
 379 593 l 1
 287 294 l 1
514 770 m 1
 364 770 l 1
 436 980 l 1
 636 980 l 1
 514 770 l 1
EndSplineSet
EndChar

StartChar: B
Encoding: 66 66 29
Width: 667
Flags: W
LayerCount: 2
Fore
SplineSet
590 329 m 0
 619 299 633 259 633 208 c 0
 633 139 606 88 553 52 c 0
 500 18 421 0 317 0 c 2
 70 0 l 1
 70 730 l 1
 308 730 l 2
 408 730 483 715 534 685 c 0
 585 655 610 610 610 551 c 0
 610 507 597 470 572 442 c 0
 546 412 510 394 464 387 c 1
 464 385 l 1
 519 378 561 359 590 329 c 0
240 594 m 1
 240 443 l 1
 317 443 l 2
 361 443 392 449 412 460 c 0
 430 472 440 492 440 519 c 0
 440 546 430 565 412 576 c 0
 392 588 361 594 317 594 c 2
 240 594 l 1
425 157 m 0
 448 171 459 193 459 224 c 0
 459 255 448 277 425 291 c 0
 402 305 366 312 317 312 c 2
 240 312 l 1
 240 136 l 1
 317 136 l 2
 366 136 402 143 425 157 c 0
EndSplineSet
EndChar

StartChar: C
Encoding: 67 67 30
Width: 694
Flags: W
LayerCount: 2
Fore
SplineSet
131 88 m 0
 67 153 35 246 35 365 c 0
 35 484 67 577 131 642 c 0
 195 707 285 740 402 740 c 0
 497 740 580 718 652 674 c 1
 584 541 l 1
 525 576 467 593 411 593 c 0
 346 593 296 573 262 534 c 0
 226 494 209 438 209 365 c 0
 209 292 226 236 262 196 c 0
 296 157 346 137 411 137 c 0
 467 137 525 154 584 189 c 1
 652 56 l 1
 580 12 497 -10 402 -10 c 0
 285 -10 195 23 131 88 c 0
EndSplineSet
EndChar

StartChar: Cacute
Encoding: 262 262 31
Width: 694
Flags: W
LayerCount: 2
Fore
SplineSet
131 88 m 0
 67 153 35 246 35 365 c 0
 35 484 67 577 131 642 c 0
 195 707 285 740 402 740 c 0
 497 740 580 718 652 674 c 1
 584 541 l 1
 525 576 467 593 411 593 c 0
 346 593 296 573 262 534 c 0
 226 494 209 438 209 365 c 0
 209 292 226 236 262 196 c 0
 296 157 346 137 411 137 c 0
 467 137 525 154 584 189 c 1
 652 56 l 1
 580 12 497 -10 402 -10 c 0
 285 -10 195 23 131 88 c 0
421 770 m 1
 271 770 l 1
 343 980 l 1
 543 980 l 1
 421 770 l 1
EndSplineSet
EndChar

StartChar: Ccaron
Encoding: 268 268 32
Width: 694
Flags: W
LayerCount: 2
Fore
SplineSet
131 88 m 0
 67 153 35 246 35 365 c 0
 35 484 67 577 131 642 c 0
 195 707 285 740 402 740 c 0
 497 740 580 718 652 674 c 1
 584 541 l 1
 525 576 467 593 411 593 c 0
 346 593 296 573 262 534 c 0
 226 494 209 438 209 365 c 0
 209 292 226 236 262 196 c 0
 296 157 346 137 411 137 c 0
 467 137 525 154 584 189 c 1
 652 56 l 1
 580 12 497 -10 402 -10 c 0
 285 -10 195 23 131 88 c 0
126 980 m 1
 310 980 l 1
 379 833 l 1
 381 833 l 1
 450 980 l 1
 634 980 l 1
 512 770 l 1
 248 770 l 1
 126 980 l 1
EndSplineSet
EndChar

StartChar: Ccedilla
Encoding: 199 199 33
Width: 694
Flags: W
LayerCount: 2
Fore
SplineSet
652 56 m 1
 609 29 560 10 503 -1 c 1
 527 -30 539 -60 539 -92 c 0
 539 -133 522 -164 488 -186 c 0
 453 -208 405 -219 342 -219 c 0
 295 -219 255 -212 221 -199 c 1
 236 -80 l 1
 267 -93 298 -100 331 -100 c 0
 350 -100 364 -97 374 -92 c 0
 383 -87 388 -79 388 -69 c 0
 388 -48 365 -26 320 -4 c 1
 228 11 158 50 108 113 c 0
 60 176 35 260 35 365 c 0
 35 484 67 577 131 642 c 0
 195 707 285 740 402 740 c 0
 497 740 580 718 652 674 c 1
 584 541 l 1
 525 576 467 593 411 593 c 0
 346 593 296 573 262 534 c 0
 226 494 209 438 209 365 c 0
 209 292 226 236 262 196 c 0
 296 157 346 137 411 137 c 0
 467 137 525 154 584 189 c 1
 652 56 l 1
EndSplineSet
EndChar

StartChar: Ccircumflex
Encoding: 264 264 34
Width: 694
Flags: W
LayerCount: 2
Fore
SplineSet
131 88 m 0
 67 153 35 246 35 365 c 0
 35 484 67 577 131 642 c 0
 195 707 285 740 402 740 c 0
 497 740 580 718 652 674 c 1
 584 541 l 1
 525 576 467 593 411 593 c 0
 346 593 296 573 262 534 c 0
 226 494 209 438 209 365 c 0
 209 292 226 236 262 196 c 0
 296 157 346 137 411 137 c 0
 467 137 525 154 584 189 c 1
 652 56 l 1
 580 12 497 -10 402 -10 c 0
 285 -10 195 23 131 88 c 0
248 980 m 1
 512 980 l 1
 634 770 l 1
 450 770 l 1
 381 917 l 1
 379 917 l 1
 310 770 l 1
 126 770 l 1
 248 980 l 1
EndSplineSet
EndChar

StartChar: Cdotaccent
Encoding: 266 266 35
Width: 694
Flags: W
LayerCount: 2
Fore
SplineSet
131 88 m 0
 67 153 35 246 35 365 c 0
 35 484 67 577 131 642 c 0
 195 707 285 740 402 740 c 0
 497 740 580 718 652 674 c 1
 584 541 l 1
 525 576 467 593 411 593 c 0
 346 593 296 573 262 534 c 0
 226 494 209 438 209 365 c 0
 209 292 226 236 262 196 c 0
 296 157 346 137 411 137 c 0
 467 137 525 154 584 189 c 1
 652 56 l 1
 580 12 497 -10 402 -10 c 0
 285 -10 195 23 131 88 c 0
296 959 m 1
 464 959 l 1
 464 791 l 1
 296 791 l 1
 296 959 l 1
EndSplineSet
EndChar

StartChar: D
Encoding: 68 68 36
Width: 693
Flags: W
LayerCount: 2
Fore
SplineSet
288 730 m 2
 417 730 510 701 570 642 c 0
 628 584 658 492 658 365 c 0
 658 238 628 146 570 88 c 0
 510 29 417 0 288 0 c 2
 70 0 l 1
 70 730 l 1
 288 730 l 2
409 162 m 0
 436 176 455 199 466 232 c 0
 478 264 484 308 484 365 c 0
 484 422 478 466 466 498 c 0
 455 531 436 554 409 568 c 0
 382 583 346 590 299 590 c 2
 240 590 l 1
 240 140 l 1
 299 140 l 2
 346 140 382 147 409 162 c 0
EndSplineSet
EndChar

StartChar: uni01C4
Encoding: 452 452 37
Width: 1302
Flags: W
LayerCount: 2
Fore
SplineSet
288 730 m 2
 417 730 510 701 570 642 c 0
 628 584 658 492 658 365 c 0
 658 238 628 146 570 88 c 0
 510 29 417 0 288 0 c 2
 70 0 l 1
 70 730 l 1
 288 730 l 2
409 162 m 0
 436 176 455 199 466 232 c 0
 478 264 484 308 484 365 c 0
 484 422 478 466 466 498 c 0
 455 531 436 554 409 568 c 0
 382 583 346 590 299 590 c 2
 240 590 l 1
 240 140 l 1
 299 140 l 2
 346 140 382 147 409 162 c 0
716 143 m 1
 1044 585 l 1
 1044 587 l 1
 716 587 l 1
 716 730 l 1
 1246 730 l 1
 1246 587 l 1
 918 145 l 1
 918 143 l 1
 1246 143 l 1
 1246 0 l 1
 716 0 l 1
 716 143 l 1
727 980 m 1
 911 980 l 1
 980 833 l 1
 982 833 l 1
 1051 980 l 1
 1235 980 l 1
 1113 770 l 1
 849 770 l 1
 727 980 l 1
EndSplineSet
EndChar

StartChar: Eth
Encoding: 208 208 38
Width: 752
Flags: W
LayerCount: 2
Fore
SplineSet
629 642 m 0
 688 584 718 492 718 365 c 0
 718 238 688 146 629 88 c 0
 570 29 476 0 348 0 c 2
 129 0 l 1
 129 303 l 1
 23 303 l 1
 23 427 l 1
 129 427 l 1
 129 730 l 1
 348 730 l 2
 476 730 570 701 629 642 c 0
468 162 m 0
 495 176 514 199 526 232 c 0
 538 264 544 308 544 365 c 0
 544 422 538 466 526 498 c 0
 514 531 495 554 468 568 c 0
 442 583 406 590 359 590 c 2
 299 590 l 1
 299 427 l 1
 447 427 l 1
 447 303 l 1
 299 303 l 1
 299 140 l 1
 359 140 l 2
 406 140 442 147 468 162 c 0
EndSplineSet
EndChar

StartChar: Dcaron
Encoding: 270 270 39
Width: 693
Flags: W
LayerCount: 2
Fore
SplineSet
288 730 m 2
 417 730 510 701 570 642 c 0
 628 584 658 492 658 365 c 0
 658 238 628 146 570 88 c 0
 510 29 417 0 288 0 c 2
 70 0 l 1
 70 730 l 1
 288 730 l 2
409 162 m 0
 436 176 455 199 466 232 c 0
 478 264 484 308 484 365 c 0
 484 422 478 466 466 498 c 0
 455 531 436 554 409 568 c 0
 382 583 346 590 299 590 c 2
 240 590 l 1
 240 140 l 1
 299 140 l 2
 346 140 382 147 409 162 c 0
93 980 m 1
 277 980 l 1
 346 833 l 1
 348 833 l 1
 417 980 l 1
 601 980 l 1
 479 770 l 1
 215 770 l 1
 93 980 l 1
EndSplineSet
EndChar

StartChar: Dcroat
Encoding: 272 272 40
Width: 752
Flags: W
LayerCount: 2
Fore
SplineSet
629 642 m 0
 688 584 718 492 718 365 c 0
 718 238 688 146 629 88 c 0
 570 29 476 0 348 0 c 2
 129 0 l 1
 129 303 l 1
 23 303 l 1
 23 427 l 1
 129 427 l 1
 129 730 l 1
 348 730 l 2
 476 730 570 701 629 642 c 0
468 162 m 0
 495 176 514 199 526 232 c 0
 538 264 544 308 544 365 c 0
 544 422 538 466 526 498 c 0
 514 531 495 554 468 568 c 0
 442 583 406 590 359 590 c 2
 299 590 l 1
 299 427 l 1
 447 427 l 1
 447 303 l 1
 299 303 l 1
 299 140 l 1
 359 140 l 2
 406 140 442 147 468 162 c 0
EndSplineSet
EndChar

StartChar: uni01C5
Encoding: 453 453 41
Width: 1243
Flags: W
LayerCount: 2
Fore
SplineSet
288 730 m 2
 417 730 510 701 570 642 c 0
 628 584 658 492 658 365 c 0
 658 238 628 146 570 88 c 0
 510 29 417 0 288 0 c 2
 70 0 l 1
 70 730 l 1
 288 730 l 2
409 162 m 0
 436 176 455 199 466 232 c 0
 478 264 484 308 484 365 c 0
 484 422 478 466 466 498 c 0
 455 531 436 554 409 568 c 0
 382 583 346 590 299 590 c 2
 240 590 l 1
 240 140 l 1
 299 140 l 2
 346 140 382 147 409 162 c 0
736 123 m 1
 980 395 l 1
 980 397 l 1
 736 397 l 1
 736 520 l 1
 1190 520 l 1
 1190 397 l 1
 946 125 l 1
 946 123 l 1
 1190 123 l 1
 1190 0 l 1
 736 0 l 1
 736 123 l 1
709 770 m 1
 893 770 l 1
 962 623 l 1
 964 623 l 1
 1033 770 l 1
 1217 770 l 1
 1095 560 l 1
 831 560 l 1
 709 770 l 1
EndSplineSet
EndChar

StartChar: E
Encoding: 69 69 42
Width: 606
Flags: W
LayerCount: 2
Fore
SplineSet
70 730 m 1
 548 730 l 1
 548 591 l 1
 240 591 l 1
 240 445 l 1
 528 445 l 1
 528 310 l 1
 240 310 l 1
 240 139 l 1
 548 139 l 1
 548 0 l 1
 70 0 l 1
 70 730 l 1
EndSplineSet
EndChar

StartChar: Eacute
Encoding: 201 201 43
Width: 606
Flags: W
LayerCount: 2
Fore
SplineSet
70 730 m 1
 548 730 l 1
 548 591 l 1
 240 591 l 1
 240 445 l 1
 528 445 l 1
 528 310 l 1
 240 310 l 1
 240 139 l 1
 548 139 l 1
 548 0 l 1
 70 0 l 1
 70 730 l 1
351 770 m 1
 201 770 l 1
 273 980 l 1
 473 980 l 1
 351 770 l 1
EndSplineSet
EndChar

StartChar: Ebreve
Encoding: 276 276 44
Width: 606
Flags: W
LayerCount: 2
Fore
SplineSet
70 730 m 1
 548 730 l 1
 548 591 l 1
 240 591 l 1
 240 445 l 1
 528 445 l 1
 528 310 l 1
 240 310 l 1
 240 139 l 1
 548 139 l 1
 548 0 l 1
 70 0 l 1
 70 730 l 1
190 794 m 0
 155 811 127 835 106 866 c 0
 86 897 76 932 75 971 c 1
 228 971 l 1
 231 941 240 919 253 904 c 0
 266 890 285 883 310 883 c 0
 335 883 354 890 367 904 c 0
 380 919 389 941 393 971 c 1
 545 971 l 1
 544 932 534 897 514 866 c 0
 493 835 465 811 430 794 c 0
 395 777 355 768 310 768 c 0
 265 768 225 777 190 794 c 0
EndSplineSet
EndChar

StartChar: Ecaron
Encoding: 282 282 45
Width: 606
Flags: W
LayerCount: 2
Fore
SplineSet
70 730 m 1
 548 730 l 1
 548 591 l 1
 240 591 l 1
 240 445 l 1
 528 445 l 1
 528 310 l 1
 240 310 l 1
 240 139 l 1
 548 139 l 1
 548 0 l 1
 70 0 l 1
 70 730 l 1
56 980 m 1
 240 980 l 1
 309 833 l 1
 311 833 l 1
 380 980 l 1
 564 980 l 1
 442 770 l 1
 178 770 l 1
 56 980 l 1
EndSplineSet
EndChar

StartChar: Ecircumflex
Encoding: 202 202 46
Width: 606
Flags: W
LayerCount: 2
Fore
SplineSet
70 730 m 1
 548 730 l 1
 548 591 l 1
 240 591 l 1
 240 445 l 1
 528 445 l 1
 528 310 l 1
 240 310 l 1
 240 139 l 1
 548 139 l 1
 548 0 l 1
 70 0 l 1
 70 730 l 1
178 980 m 1
 442 980 l 1
 564 770 l 1
 380 770 l 1
 311 917 l 1
 309 917 l 1
 240 770 l 1
 56 770 l 1
 178 980 l 1
EndSplineSet
EndChar

StartChar: uni1EBE
Encoding: 7870 7870 47
Width: 606
Flags: W
LayerCount: 2
Fore
SplineSet
688 1160 m 1
 566 950 l 1
 459 950 l 1
 564 770 l 1
 380 770 l 1
 311 917 l 1
 309 917 l 1
 240 770 l 1
 56 770 l 1
 178 980 l 1
 426 980 l 1
 488 1160 l 1
 688 1160 l 1
70 0 m 1
 70 730 l 1
 548 730 l 1
 548 591 l 1
 240 591 l 1
 240 445 l 1
 528 445 l 1
 528 310 l 1
 240 310 l 1
 240 139 l 1
 548 139 l 1
 548 0 l 1
 70 0 l 1
EndSplineSet
EndChar

StartChar: uni1EC6
Encoding: 7878 7878 48
Width: 606
Flags: W
LayerCount: 2
Fore
SplineSet
70 730 m 1
 548 730 l 1
 548 591 l 1
 240 591 l 1
 240 445 l 1
 528 445 l 1
 528 310 l 1
 240 310 l 1
 240 139 l 1
 548 139 l 1
 548 0 l 1
 70 0 l 1
 70 730 l 1
226 -61 m 1
 394 -61 l 1
 394 -229 l 1
 226 -229 l 1
 226 -61 l 1
178 980 m 1
 442 980 l 1
 564 770 l 1
 380 770 l 1
 311 917 l 1
 309 917 l 1
 240 770 l 1
 56 770 l 1
 178 980 l 1
EndSplineSet
EndChar

StartChar: uni1EC0
Encoding: 7872 7872 49
Width: 606
Flags: W
LayerCount: 2
Fore
SplineSet
240 770 m 1
 56 770 l 1
 161 950 l 1
 54 950 l 1
 -68 1160 l 1
 132 1160 l 1
 194 980 l 1
 442 980 l 1
 564 770 l 1
 380 770 l 1
 311 917 l 1
 309 917 l 1
 240 770 l 1
70 0 m 1
 70 730 l 1
 548 730 l 1
 548 591 l 1
 240 591 l 1
 240 445 l 1
 528 445 l 1
 528 310 l 1
 240 310 l 1
 240 139 l 1
 548 139 l 1
 548 0 l 1
 70 0 l 1
EndSplineSet
EndChar

StartChar: uni1EC2
Encoding: 7874 7874 50
Width: 606
Flags: W
LayerCount: 2
Fore
SplineSet
459 950 m 1
 564 770 l 1
 380 770 l 1
 311 917 l 1
 309 917 l 1
 240 770 l 1
 56 770 l 1
 178 980 l 1
 427 980 l 1
 429 992 430 1003 430 1012 c 0
 430 1025 426 1033 419 1038 c 0
 412 1042 398 1044 378 1044 c 0
 331 1044 283 1036 233 1021 c 1
 220 1140 l 1
 247 1146 277 1151 310 1154 c 0
 343 1158 374 1160 403 1160 c 0
 451 1160 488 1157 514 1152 c 0
 540 1147 558 1138 570 1124 c 0
 580 1112 586 1093 586 1069 c 0
 586 1051 584 1031 580 1008 c 0
 575 986 570 967 563 950 c 1
 459 950 l 1
70 0 m 1
 70 730 l 1
 548 730 l 1
 548 591 l 1
 240 591 l 1
 240 445 l 1
 528 445 l 1
 528 310 l 1
 240 310 l 1
 240 139 l 1
 548 139 l 1
 548 0 l 1
 70 0 l 1
EndSplineSet
EndChar

StartChar: uni1EC4
Encoding: 7876 7876 51
Width: 606
Flags: W
LayerCount: 2
Fore
SplineSet
70 730 m 1
 548 730 l 1
 548 591 l 1
 240 591 l 1
 240 445 l 1
 528 445 l 1
 528 310 l 1
 240 310 l 1
 240 139 l 1
 548 139 l 1
 548 0 l 1
 70 0 l 1
 70 730 l 1
178 980 m 1
 442 980 l 1
 564 770 l 1
 380 770 l 1
 311 917 l 1
 309 917 l 1
 240 770 l 1
 56 770 l 1
 178 980 l 1
292 1055 m 0
 265 1071 245 1079 231 1079 c 0
 222 1079 215 1075 212 1066 c 0
 209 1057 207 1041 207 1016 c 1
 75 1016 l 1
 75 1085 84 1136 103 1168 c 0
 122 1202 151 1218 190 1218 c 0
 227 1218 273 1202 328 1169 c 0
 355 1153 375 1145 388 1145 c 0
 397 1145 404 1149 408 1158 c 0
 411 1167 413 1183 413 1208 c 1
 545 1208 l 1
 545 1139 536 1088 516 1056 c 0
 498 1022 468 1006 429 1006 c 0
 392 1006 347 1022 292 1055 c 0
EndSplineSet
EndChar

StartChar: uni0204
Encoding: 516 516 52
Width: 606
Flags: W
LayerCount: 2
Fore
SplineSet
70 730 m 1
 548 730 l 1
 548 591 l 1
 240 591 l 1
 240 445 l 1
 528 445 l 1
 528 310 l 1
 240 310 l 1
 240 139 l 1
 548 139 l 1
 548 0 l 1
 70 0 l 1
 70 730 l 1
18 980 m 1
 218 980 l 1
 290 770 l 1
 140 770 l 1
 18 980 l 1
273 980 m 1
 473 980 l 1
 545 770 l 1
 395 770 l 1
 273 980 l 1
EndSplineSet
EndChar

StartChar: Edieresis
Encoding: 203 203 53
Width: 606
Flags: W
LayerCount: 2
Fore
SplineSet
70 730 m 1
 548 730 l 1
 548 591 l 1
 240 591 l 1
 240 445 l 1
 528 445 l 1
 528 310 l 1
 240 310 l 1
 240 139 l 1
 548 139 l 1
 548 0 l 1
 70 0 l 1
 70 730 l 1
94 959 m 1
 262 959 l 1
 262 791 l 1
 94 791 l 1
 94 959 l 1
358 959 m 1
 527 959 l 1
 527 791 l 1
 358 791 l 1
 358 959 l 1
EndSplineSet
EndChar

StartChar: Edotaccent
Encoding: 278 278 54
Width: 606
Flags: W
LayerCount: 2
Fore
SplineSet
70 730 m 1
 548 730 l 1
 548 591 l 1
 240 591 l 1
 240 445 l 1
 528 445 l 1
 528 310 l 1
 240 310 l 1
 240 139 l 1
 548 139 l 1
 548 0 l 1
 70 0 l 1
 70 730 l 1
226 959 m 1
 394 959 l 1
 394 791 l 1
 226 791 l 1
 226 959 l 1
EndSplineSet
EndChar

StartChar: uni1EB8
Encoding: 7864 7864 55
Width: 606
Flags: W
LayerCount: 2
Fore
SplineSet
70 730 m 1
 548 730 l 1
 548 591 l 1
 240 591 l 1
 240 445 l 1
 528 445 l 1
 528 310 l 1
 240 310 l 1
 240 139 l 1
 548 139 l 1
 548 0 l 1
 70 0 l 1
 70 730 l 1
226 -61 m 1
 394 -61 l 1
 394 -229 l 1
 226 -229 l 1
 226 -61 l 1
EndSplineSet
EndChar

StartChar: Egrave
Encoding: 200 200 56
Width: 606
Flags: W
LayerCount: 2
Fore
SplineSet
70 730 m 1
 548 730 l 1
 548 591 l 1
 240 591 l 1
 240 445 l 1
 528 445 l 1
 528 310 l 1
 240 310 l 1
 240 139 l 1
 548 139 l 1
 548 0 l 1
 70 0 l 1
 70 730 l 1
147 980 m 1
 347 980 l 1
 419 770 l 1
 269 770 l 1
 147 980 l 1
EndSplineSet
EndChar

StartChar: uni1EBA
Encoding: 7866 7866 57
Width: 606
Flags: W
LayerCount: 2
Fore
SplineSet
70 730 m 1
 548 730 l 1
 548 591 l 1
 240 591 l 1
 240 445 l 1
 528 445 l 1
 528 310 l 1
 240 310 l 1
 240 139 l 1
 548 139 l 1
 548 0 l 1
 70 0 l 1
 70 730 l 1
337 840 m 0
 337 853 333 861 326 866 c 0
 319 870 305 872 285 872 c 0
 238 872 190 864 140 849 c 1
 127 968 l 1
 154 974 184 979 217 982 c 0
 250 986 281 988 310 988 c 0
 358 988 395 985 421 980 c 0
 447 975 466 966 476 952 c 0
 488 940 493 921 493 897 c 0
 493 879 491 859 486 836 c 0
 482 814 477 795 470 778 c 1
 326 778 l 1
 333 800 337 821 337 840 c 0
EndSplineSet
EndChar

StartChar: uni0206
Encoding: 518 518 58
Width: 606
Flags: W
LayerCount: 2
Fore
SplineSet
70 730 m 1
 548 730 l 1
 548 591 l 1
 240 591 l 1
 240 445 l 1
 528 445 l 1
 528 310 l 1
 240 310 l 1
 240 139 l 1
 548 139 l 1
 548 0 l 1
 70 0 l 1
 70 730 l 1
430 956 m 0
 465 939 493 915 514 884 c 0
 534 853 544 818 545 779 c 1
 393 779 l 1
 389 809 380 831 367 846 c 0
 354 860 335 867 310 867 c 0
 285 867 266 860 253 846 c 0
 240 831 231 809 228 779 c 1
 75 779 l 1
 76 818 86 853 106 884 c 0
 127 915 155 939 190 956 c 0
 225 973 265 982 310 982 c 0
 355 982 395 973 430 956 c 0
EndSplineSet
EndChar

StartChar: Emacron
Encoding: 274 274 59
Width: 606
Flags: W
LayerCount: 2
Fore
SplineSet
70 730 m 1
 548 730 l 1
 548 591 l 1
 240 591 l 1
 240 445 l 1
 528 445 l 1
 528 310 l 1
 240 310 l 1
 240 139 l 1
 548 139 l 1
 548 0 l 1
 70 0 l 1
 70 730 l 1
107 936 m 1
 513 936 l 1
 513 814 l 1
 107 814 l 1
 107 936 l 1
EndSplineSet
EndChar

StartChar: Eogonek
Encoding: 280 280 60
Width: 606
Flags: W
LayerCount: 2
Fore
SplineSet
639 -199 m 1
 604 -212 563 -219 517 -219 c 0
 454 -219 406 -208 372 -186 c 0
 337 -164 320 -133 320 -92 c 0
 320 -60 332 -29 357 0 c 1
 70 0 l 1
 70 730 l 1
 548 730 l 1
 548 591 l 1
 240 591 l 1
 240 445 l 1
 528 445 l 1
 528 310 l 1
 240 310 l 1
 240 139 l 1
 548 139 l 1
 548 0 l 1
 497 -23 472 -46 472 -69 c 0
 472 -79 477 -87 486 -92 c 0
 496 -97 510 -100 528 -100 c 0
 561 -100 593 -93 623 -80 c 1
 639 -199 l 1
EndSplineSet
EndChar

StartChar: uni1EBC
Encoding: 7868 7868 61
Width: 606
Flags: W
LayerCount: 2
Fore
SplineSet
70 730 m 1
 548 730 l 1
 548 591 l 1
 240 591 l 1
 240 445 l 1
 528 445 l 1
 528 310 l 1
 240 310 l 1
 240 139 l 1
 548 139 l 1
 548 0 l 1
 70 0 l 1
 70 730 l 1
292 818 m 0
 265 834 245 842 231 842 c 0
 222 842 215 838 212 829 c 0
 209 820 207 804 207 779 c 1
 75 779 l 1
 75 848 84 898 103 932 c 0
 122 964 151 981 190 981 c 0
 227 981 273 965 328 932 c 0
 355 916 375 908 388 908 c 0
 397 908 404 912 408 921 c 0
 411 930 413 946 413 971 c 1
 545 971 l 1
 545 902 536 852 516 818 c 0
 498 786 468 769 429 769 c 0
 392 769 347 785 292 818 c 0
EndSplineSet
EndChar

StartChar: F
Encoding: 70 70 62
Width: 598
Flags: W
LayerCount: 2
Fore
SplineSet
70 730 m 1
 548 730 l 1
 548 587 l 1
 240 587 l 1
 240 425 l 1
 528 425 l 1
 528 286 l 1
 240 286 l 1
 240 0 l 1
 70 0 l 1
 70 730 l 1
EndSplineSet
EndChar

StartChar: G
Encoding: 71 71 63
Width: 769
Flags: W
LayerCount: 2
Fore
SplineSet
710 444 m 1
 710 49 l 1
 673 30 630 16 582 6 c 0
 534 -5 484 -10 432 -10 c 0
 349 -10 278 5 218 34 c 0
 159 64 113 107 82 164 c 0
 51 220 35 287 35 365 c 0
 35 443 51 510 82 566 c 0
 113 623 159 666 218 696 c 0
 278 725 349 740 432 740 c 0
 535 740 619 718 684 675 c 1
 620 546 l 1
 562 580 499 597 432 597 c 0
 359 597 303 577 266 538 c 0
 228 499 209 441 209 365 c 0
 209 289 228 231 266 192 c 0
 303 153 359 133 432 133 c 0
 469 133 505 139 540 150 c 1
 540 302 l 1
 366 302 l 1
 366 444 l 1
 710 444 l 1
EndSplineSet
EndChar

StartChar: Gbreve
Encoding: 286 286 64
Width: 769
Flags: W
LayerCount: 2
Fore
SplineSet
710 444 m 1
 710 49 l 1
 673 30 630 16 582 6 c 0
 534 -5 484 -10 432 -10 c 0
 349 -10 278 5 218 34 c 0
 159 64 113 107 82 164 c 0
 51 220 35 287 35 365 c 0
 35 443 51 510 82 566 c 0
 113 623 159 666 218 696 c 0
 278 725 349 740 432 740 c 0
 535 740 619 718 684 675 c 1
 620 546 l 1
 562 580 499 597 432 597 c 0
 359 597 303 577 266 538 c 0
 228 499 209 441 209 365 c 0
 209 289 228 231 266 192 c 0
 303 153 359 133 432 133 c 0
 469 133 505 139 540 150 c 1
 540 302 l 1
 366 302 l 1
 366 444 l 1
 710 444 l 1
281 794 m 0
 246 811 218 835 198 866 c 0
 177 897 167 932 166 971 c 1
 319 971 l 1
 322 941 331 919 344 904 c 0
 357 890 376 883 401 883 c 0
 426 883 445 890 458 904 c 0
 471 919 480 941 484 971 c 1
 636 971 l 1
 635 932 625 897 604 866 c 0
 584 835 556 811 521 794 c 0
 486 777 446 768 401 768 c 0
 356 768 316 777 281 794 c 0
EndSplineSet
EndChar

StartChar: Gcaron
Encoding: 486 486 65
Width: 769
Flags: W
LayerCount: 2
Fore
SplineSet
710 444 m 1
 710 49 l 1
 673 30 630 16 582 6 c 0
 534 -5 484 -10 432 -10 c 0
 349 -10 278 5 218 34 c 0
 159 64 113 107 82 164 c 0
 51 220 35 287 35 365 c 0
 35 443 51 510 82 566 c 0
 113 623 159 666 218 696 c 0
 278 725 349 740 432 740 c 0
 535 740 619 718 684 675 c 1
 620 546 l 1
 562 580 499 597 432 597 c 0
 359 597 303 577 266 538 c 0
 228 499 209 441 209 365 c 0
 209 289 228 231 266 192 c 0
 303 153 359 133 432 133 c 0
 469 133 505 139 540 150 c 1
 540 302 l 1
 366 302 l 1
 366 444 l 1
 710 444 l 1
148 980 m 1
 332 980 l 1
 401 833 l 1
 403 833 l 1
 472 980 l 1
 656 980 l 1
 534 770 l 1
 270 770 l 1
 148 980 l 1
EndSplineSet
EndChar

StartChar: Gcircumflex
Encoding: 284 284 66
Width: 769
Flags: W
LayerCount: 2
Fore
SplineSet
710 444 m 1
 710 49 l 1
 673 30 630 16 582 6 c 0
 534 -5 484 -10 432 -10 c 0
 349 -10 278 5 218 34 c 0
 159 64 113 107 82 164 c 0
 51 220 35 287 35 365 c 0
 35 443 51 510 82 566 c 0
 113 623 159 666 218 696 c 0
 278 725 349 740 432 740 c 0
 535 740 619 718 684 675 c 1
 620 546 l 1
 562 580 499 597 432 597 c 0
 359 597 303 577 266 538 c 0
 228 499 209 441 209 365 c 0
 209 289 228 231 266 192 c 0
 303 153 359 133 432 133 c 0
 469 133 505 139 540 150 c 1
 540 302 l 1
 366 302 l 1
 366 444 l 1
 710 444 l 1
270 980 m 1
 534 980 l 1
 656 770 l 1
 472 770 l 1
 403 917 l 1
 401 917 l 1
 332 770 l 1
 148 770 l 1
 270 980 l 1
EndSplineSet
EndChar

StartChar: uni0122
Encoding: 290 290 67
Width: 769
Flags: W
LayerCount: 2
Fore
SplineSet
710 444 m 1
 710 49 l 1
 673 30 630 16 582 6 c 0
 534 -5 484 -10 432 -10 c 0
 349 -10 278 5 218 34 c 0
 159 64 113 107 82 164 c 0
 51 220 35 287 35 365 c 0
 35 443 51 510 82 566 c 0
 113 623 159 666 218 696 c 0
 278 725 349 740 432 740 c 0
 535 740 619 718 684 675 c 1
 620 546 l 1
 562 580 499 597 432 597 c 0
 359 597 303 577 266 538 c 0
 228 499 209 441 209 365 c 0
 209 289 228 231 266 192 c 0
 303 153 359 133 432 133 c 0
 469 133 505 139 540 150 c 1
 540 302 l 1
 366 302 l 1
 366 444 l 1
 710 444 l 1
416 -250 m 1
 266 -250 l 1
 338 -40 l 1
 538 -40 l 1
 416 -250 l 1
EndSplineSet
EndChar

StartChar: Gdotaccent
Encoding: 288 288 68
Width: 769
Flags: W
LayerCount: 2
Fore
SplineSet
710 444 m 1
 710 49 l 1
 673 30 630 16 582 6 c 0
 534 -5 484 -10 432 -10 c 0
 349 -10 278 5 218 34 c 0
 159 64 113 107 82 164 c 0
 51 220 35 287 35 365 c 0
 35 443 51 510 82 566 c 0
 113 623 159 666 218 696 c 0
 278 725 349 740 432 740 c 0
 535 740 619 718 684 675 c 1
 620 546 l 1
 562 580 499 597 432 597 c 0
 359 597 303 577 266 538 c 0
 228 499 209 441 209 365 c 0
 209 289 228 231 266 192 c 0
 303 153 359 133 432 133 c 0
 469 133 505 139 540 150 c 1
 540 302 l 1
 366 302 l 1
 366 444 l 1
 710 444 l 1
318 959 m 1
 486 959 l 1
 486 791 l 1
 318 791 l 1
 318 959 l 1
EndSplineSet
EndChar

StartChar: H
Encoding: 72 72 69
Width: 725
Flags: W
LayerCount: 2
Fore
SplineSet
485 730 m 1
 655 730 l 1
 655 0 l 1
 485 0 l 1
 485 308 l 1
 240 308 l 1
 240 0 l 1
 70 0 l 1
 70 730 l 1
 240 730 l 1
 240 455 l 1
 485 455 l 1
 485 730 l 1
EndSplineSet
EndChar

StartChar: Hbar
Encoding: 294 294 70
Width: 813
Flags: W
LayerCount: 2
Fore
SplineSet
790 658 m 1
 790 534 l 1
 699 534 l 1
 699 0 l 1
 529 0 l 1
 529 308 l 1
 284 308 l 1
 284 0 l 1
 114 0 l 1
 114 534 l 1
 23 534 l 1
 23 658 l 1
 114 658 l 1
 114 730 l 1
 284 730 l 1
 284 658 l 1
 529 658 l 1
 529 730 l 1
 699 730 l 1
 699 658 l 1
 790 658 l 1
529 455 m 1
 529 534 l 1
 284 534 l 1
 284 455 l 1
 529 455 l 1
EndSplineSet
EndChar

StartChar: Hcircumflex
Encoding: 292 292 71
Width: 725
Flags: W
LayerCount: 2
Fore
SplineSet
485 730 m 1
 655 730 l 1
 655 0 l 1
 485 0 l 1
 485 308 l 1
 240 308 l 1
 240 0 l 1
 70 0 l 1
 70 730 l 1
 240 730 l 1
 240 455 l 1
 485 455 l 1
 485 730 l 1
231 980 m 1
 495 980 l 1
 617 770 l 1
 433 770 l 1
 364 917 l 1
 362 917 l 1
 293 770 l 1
 109 770 l 1
 231 980 l 1
EndSplineSet
EndChar

StartChar: I
Encoding: 73 73 72
Width: 333
Flags: W
LayerCount: 2
Fore
SplineSet
77 730 m 1
 255 730 l 1
 255 0 l 1
 77 0 l 1
 77 730 l 1
EndSplineSet
EndChar

StartChar: Iacute
Encoding: 205 205 73
Width: 333
Flags: W
LayerCount: 2
Fore
SplineSet
77 730 m 1
 255 730 l 1
 255 0 l 1
 77 0 l 1
 77 730 l 1
207 770 m 1
 57 770 l 1
 129 980 l 1
 329 980 l 1
 207 770 l 1
EndSplineSet
EndChar

StartChar: Ibreve
Encoding: 300 300 74
Width: 333
Flags: W
LayerCount: 2
Fore
SplineSet
77 730 m 1
 255 730 l 1
 255 0 l 1
 77 0 l 1
 77 730 l 1
46 794 m 0
 11 811 -17 835 -38 866 c 0
 -58 897 -68 932 -69 971 c 1
 84 971 l 1
 87 941 96 919 109 904 c 0
 122 890 141 883 166 883 c 0
 191 883 210 890 223 904 c 0
 236 919 245 941 249 971 c 1
 401 971 l 1
 400 932 390 897 370 866 c 0
 349 835 321 811 286 794 c 0
 251 777 211 768 166 768 c 0
 121 768 81 777 46 794 c 0
EndSplineSet
EndChar

StartChar: Icircumflex
Encoding: 206 206 75
Width: 333
Flags: W
LayerCount: 2
Fore
SplineSet
77 730 m 1
 255 730 l 1
 255 0 l 1
 77 0 l 1
 77 730 l 1
34 980 m 1
 298 980 l 1
 420 770 l 1
 236 770 l 1
 167 917 l 1
 165 917 l 1
 96 770 l 1
 -88 770 l 1
 34 980 l 1
EndSplineSet
EndChar

StartChar: uni0208
Encoding: 520 520 76
Width: 333
Flags: W
LayerCount: 2
Fore
SplineSet
77 730 m 1
 255 730 l 1
 255 0 l 1
 77 0 l 1
 77 730 l 1
-125 980 m 1
 75 980 l 1
 147 770 l 1
 -3 770 l 1
 -125 980 l 1
130 980 m 1
 330 980 l 1
 402 770 l 1
 252 770 l 1
 130 980 l 1
EndSplineSet
EndChar

StartChar: Idieresis
Encoding: 207 207 77
Width: 333
Flags: W
LayerCount: 2
Fore
SplineSet
77 730 m 1
 255 730 l 1
 255 0 l 1
 77 0 l 1
 77 730 l 1
-50 959 m 1
 118 959 l 1
 118 791 l 1
 -50 791 l 1
 -50 959 l 1
214 959 m 1
 383 959 l 1
 383 791 l 1
 214 791 l 1
 214 959 l 1
EndSplineSet
EndChar

StartChar: Idotaccent
Encoding: 304 304 78
Width: 333
Flags: W
LayerCount: 2
Fore
SplineSet
77 730 m 1
 255 730 l 1
 255 0 l 1
 77 0 l 1
 77 730 l 1
82 959 m 1
 250 959 l 1
 250 791 l 1
 82 791 l 1
 82 959 l 1
EndSplineSet
EndChar

StartChar: uni1ECA
Encoding: 7882 7882 79
Width: 333
Flags: W
LayerCount: 2
Fore
SplineSet
77 730 m 1
 255 730 l 1
 255 0 l 1
 77 0 l 1
 77 730 l 1
82 -61 m 1
 250 -61 l 1
 250 -229 l 1
 82 -229 l 1
 82 -61 l 1
EndSplineSet
EndChar

StartChar: Igrave
Encoding: 204 204 80
Width: 333
Flags: W
LayerCount: 2
Fore
SplineSet
77 730 m 1
 255 730 l 1
 255 0 l 1
 77 0 l 1
 77 730 l 1
4 980 m 1
 204 980 l 1
 276 770 l 1
 126 770 l 1
 4 980 l 1
EndSplineSet
EndChar

StartChar: uni1EC8
Encoding: 7880 7880 81
Width: 333
Flags: W
LayerCount: 2
Fore
SplineSet
77 730 m 1
 255 730 l 1
 255 0 l 1
 77 0 l 1
 77 730 l 1
193 840 m 0
 193 853 189 861 182 866 c 0
 175 870 161 872 141 872 c 0
 94 872 46 864 -4 849 c 1
 -17 968 l 1
 10 974 40 979 73 982 c 0
 106 986 137 988 166 988 c 0
 214 988 251 985 277 980 c 0
 303 975 322 966 332 952 c 0
 344 940 349 921 349 897 c 0
 349 879 347 859 342 836 c 0
 338 814 333 795 326 778 c 1
 182 778 l 1
 189 800 193 821 193 840 c 0
EndSplineSet
EndChar

StartChar: uni020A
Encoding: 522 522 82
Width: 333
Flags: W
LayerCount: 2
Fore
SplineSet
77 730 m 1
 255 730 l 1
 255 0 l 1
 77 0 l 1
 77 730 l 1
286 956 m 0
 321 939 349 915 370 884 c 0
 390 853 400 818 401 779 c 1
 249 779 l 1
 245 809 236 831 223 846 c 0
 210 860 191 867 166 867 c 0
 141 867 122 860 109 846 c 0
 96 831 87 809 84 779 c 1
 -69 779 l 1
 -68 818 -58 853 -38 884 c 0
 -17 915 11 939 46 956 c 0
 81 973 121 982 166 982 c 0
 211 982 251 973 286 956 c 0
EndSplineSet
EndChar

StartChar: Imacron
Encoding: 298 298 83
Width: 333
Flags: W
LayerCount: 2
Fore
SplineSet
77 730 m 1
 255 730 l 1
 255 0 l 1
 77 0 l 1
 77 730 l 1
-36 936 m 1
 370 936 l 1
 370 814 l 1
 -36 814 l 1
 -36 936 l 1
EndSplineSet
EndChar

StartChar: Iogonek
Encoding: 302 302 84
Width: 333
Flags: W
LayerCount: 2
Fore
SplineSet
346 -199 m 1
 311 -212 270 -219 224 -219 c 0
 161 -219 113 -208 78 -186 c 0
 44 -164 27 -133 27 -92 c 0
 27 -73 31 -55 39 -38 c 0
 47 -21 60 -3 77 15 c 1
 77 730 l 1
 255 730 l 1
 255 0 l 1
 204 -23 179 -46 179 -69 c 0
 179 -79 184 -87 194 -92 c 0
 203 -97 217 -100 235 -100 c 0
 268 -100 300 -93 330 -80 c 1
 346 -199 l 1
EndSplineSet
EndChar

StartChar: Itilde
Encoding: 296 296 85
Width: 333
Flags: W
LayerCount: 2
Fore
SplineSet
77 730 m 1
 255 730 l 1
 255 0 l 1
 77 0 l 1
 77 730 l 1
149 818 m 0
 122 834 102 842 88 842 c 0
 79 842 72 838 69 829 c 0
 66 820 64 804 64 779 c 1
 -68 779 l 1
 -68 848 -59 898 -40 932 c 0
 -21 964 8 981 47 981 c 0
 84 981 130 965 185 932 c 0
 212 916 232 908 245 908 c 0
 254 908 261 912 264 921 c 0
 268 930 270 946 270 971 c 1
 402 971 l 1
 402 902 392 852 374 818 c 0
 354 786 325 769 286 769 c 0
 249 769 204 785 149 818 c 0
EndSplineSet
EndChar

StartChar: J
Encoding: 74 74 86
Width: 579
Flags: W
LayerCount: 2
Fore
SplineSet
117 3 m 0
 76 12 39 24 5 41 c 1
 47 185 l 1
 116 155 174 140 221 140 c 0
 262 140 293 151 312 174 c 0
 331 197 341 232 341 280 c 2
 341 730 l 1
 516 730 l 1
 516 280 l 2
 516 179 494 106 450 60 c 0
 405 13 335 -10 238 -10 c 0
 198 -10 158 -6 117 3 c 0
EndSplineSet
EndChar

StartChar: Jcircumflex
Encoding: 308 308 87
Width: 579
Flags: W
LayerCount: 2
Fore
SplineSet
117 3 m 0
 76 12 39 24 5 41 c 1
 47 185 l 1
 116 155 174 140 221 140 c 0
 262 140 293 151 312 174 c 0
 331 197 341 232 341 280 c 2
 341 730 l 1
 516 730 l 1
 516 280 l 2
 516 179 494 106 450 60 c 0
 405 13 335 -10 238 -10 c 0
 198 -10 158 -6 117 3 c 0
158 980 m 1
 422 980 l 1
 544 770 l 1
 360 770 l 1
 291 917 l 1
 289 917 l 1
 220 770 l 1
 36 770 l 1
 158 980 l 1
EndSplineSet
EndChar

StartChar: K
Encoding: 75 75 88
Width: 690
Flags: W
LayerCount: 2
Fore
SplineSet
70 730 m 1
 240 730 l 1
 240 420 l 1
 242 420 l 1
 466 730 l 1
 665 730 l 1
 401 382 l 1
 675 0 l 1
 476 0 l 1
 242 343 l 1
 240 343 l 1
 240 0 l 1
 70 0 l 1
 70 730 l 1
EndSplineSet
EndChar

StartChar: uni0136
Encoding: 310 310 89
Width: 690
Flags: W
LayerCount: 2
Fore
SplineSet
70 730 m 1
 240 730 l 1
 240 420 l 1
 242 420 l 1
 466 730 l 1
 665 730 l 1
 401 382 l 1
 675 0 l 1
 476 0 l 1
 242 343 l 1
 240 343 l 1
 240 0 l 1
 70 0 l 1
 70 730 l 1
344 -250 m 1
 194 -250 l 1
 266 -40 l 1
 466 -40 l 1
 344 -250 l 1
EndSplineSet
EndChar

StartChar: L
Encoding: 76 76 90
Width: 589
Flags: W
LayerCount: 2
Fore
SplineSet
70 730 m 1
 244 730 l 1
 244 147 l 1
 560 147 l 1
 560 0 l 1
 70 0 l 1
 70 730 l 1
EndSplineSet
EndChar

StartChar: uni01C7
Encoding: 455 455 91
Width: 1188
Flags: W
LayerCount: 2
Fore
SplineSet
70 730 m 1
 244 730 l 1
 244 147 l 1
 560 147 l 1
 560 0 l 1
 70 0 l 1
 70 730 l 1
726 3 m 0
 685 12 648 24 614 41 c 1
 656 185 l 1
 725 155 783 140 830 140 c 0
 871 140 902 151 921 174 c 0
 940 197 950 232 950 280 c 2
 950 730 l 1
 1125 730 l 1
 1125 280 l 2
 1125 179 1103 106 1058 60 c 0
 1014 13 944 -10 847 -10 c 0
 807 -10 767 -6 726 3 c 0
EndSplineSet
EndChar

StartChar: Lacute
Encoding: 313 313 92
Width: 589
Flags: W
LayerCount: 2
Fore
SplineSet
70 730 m 1
 244 730 l 1
 244 147 l 1
 560 147 l 1
 560 0 l 1
 70 0 l 1
 70 730 l 1
336 770 m 1
 186 770 l 1
 258 980 l 1
 458 980 l 1
 336 770 l 1
EndSplineSet
EndChar

StartChar: Lcaron
Encoding: 317 317 93
Width: 624
Flags: W
LayerCount: 2
Fore
SplineSet
70 730 m 1
 244 730 l 1
 244 147 l 1
 560 147 l 1
 560 0 l 1
 70 0 l 1
 70 730 l 1
422 770 m 1
 606 770 l 1
 487 470 l 1
 354 470 l 1
 422 770 l 1
EndSplineSet
EndChar

StartChar: uni013B
Encoding: 315 315 94
Width: 589
Flags: W
LayerCount: 2
Fore
SplineSet
70 730 m 1
 244 730 l 1
 244 147 l 1
 560 147 l 1
 560 0 l 1
 70 0 l 1
 70 730 l 1
309 -250 m 1
 159 -250 l 1
 231 -40 l 1
 431 -40 l 1
 309 -250 l 1
EndSplineSet
EndChar

StartChar: Ldot
Encoding: 319 319 95
Width: 624
Flags: W
LayerCount: 2
Fore
SplineSet
70 730 m 1
 244 730 l 1
 244 147 l 1
 560 147 l 1
 560 0 l 1
 70 0 l 1
 70 730 l 1
369 464 m 1
 546 464 l 1
 546 287 l 1
 369 287 l 1
 369 464 l 1
EndSplineSet
EndChar

StartChar: uni01C8
Encoding: 456 456 96
Width: 948
Flags: W
LayerCount: 2
Fore
SplineSet
70 730 m 1
 244 730 l 1
 244 147 l 1
 560 147 l 1
 560 0 l 1
 70 0 l 1
 70 730 l 1
708 747 m 1
 878 747 l 1
 878 603 l 1
 708 603 l 1
 708 747 l 1
647 -94 m 0
 671 -88 687 -76 696 -58 c 0
 704 -39 708 -9 708 33 c 2
 708 520 l 1
 878 520 l 1
 878 33 l 2
 878 -36 868 -90 847 -127 c 0
 826 -164 792 -191 743 -206 c 0
 694 -222 625 -230 535 -230 c 1
 527 -103 l 1
 583 -103 623 -100 647 -94 c 0
EndSplineSet
EndChar

StartChar: Lslash
Encoding: 321 321 97
Width: 685
Flags: W
LayerCount: 2
Fore
SplineSet
340 147 m 1
 656 147 l 1
 656 0 l 1
 166 0 l 1
 166 262 l 1
 56 218 l 1
 8 332 l 1
 166 396 l 1
 166 730 l 1
 340 730 l 1
 340 466 l 1
 454 512 l 1
 502 398 l 1
 340 333 l 1
 340 147 l 1
EndSplineSet
EndChar

StartChar: M
Encoding: 77 77 98
Width: 883
Flags: W
LayerCount: 2
Fore
SplineSet
70 730 m 1
 282 730 l 1
 441 321 l 1
 443 321 l 1
 601 730 l 1
 813 730 l 1
 813 0 l 1
 643 0 l 1
 643 465 l 1
 641 465 l 1
 519 155 l 1
 364 155 l 1
 242 465 l 1
 240 465 l 1
 240 0 l 1
 70 0 l 1
 70 730 l 1
EndSplineSet
EndChar

StartChar: N
Encoding: 78 78 99
Width: 735
Flags: W
LayerCount: 2
Fore
SplineSet
70 730 m 1
 244 730 l 1
 493 280 l 1
 495 280 l 1
 495 730 l 1
 665 730 l 1
 665 0 l 1
 491 0 l 1
 242 450 l 1
 240 450 l 1
 240 0 l 1
 70 0 l 1
 70 730 l 1
EndSplineSet
EndChar

StartChar: uni01CA
Encoding: 458 458 100
Width: 1314
Flags: W
LayerCount: 2
Fore
SplineSet
70 730 m 1
 244 730 l 1
 493 280 l 1
 495 280 l 1
 495 730 l 1
 665 730 l 1
 665 0 l 1
 491 0 l 1
 242 450 l 1
 240 450 l 1
 240 0 l 1
 70 0 l 1
 70 730 l 1
852 3 m 0
 811 12 774 24 740 41 c 1
 782 185 l 1
 851 155 909 140 956 140 c 0
 997 140 1028 151 1047 174 c 0
 1066 197 1076 232 1076 280 c 2
 1076 730 l 1
 1251 730 l 1
 1251 280 l 2
 1251 179 1229 106 1184 60 c 0
 1140 13 1070 -10 973 -10 c 0
 933 -10 893 -6 852 3 c 0
EndSplineSet
EndChar

StartChar: Nacute
Encoding: 323 323 101
Width: 735
Flags: W
LayerCount: 2
Fore
SplineSet
70 730 m 1
 244 730 l 1
 493 280 l 1
 495 280 l 1
 495 730 l 1
 665 730 l 1
 665 0 l 1
 491 0 l 1
 242 450 l 1
 240 450 l 1
 240 0 l 1
 70 0 l 1
 70 730 l 1
408 770 m 1
 258 770 l 1
 330 980 l 1
 530 980 l 1
 408 770 l 1
EndSplineSet
EndChar

StartChar: Ncaron
Encoding: 327 327 102
Width: 735
Flags: W
LayerCount: 2
Fore
SplineSet
70 730 m 1
 244 730 l 1
 493 280 l 1
 495 280 l 1
 495 730 l 1
 665 730 l 1
 665 0 l 1
 491 0 l 1
 242 450 l 1
 240 450 l 1
 240 0 l 1
 70 0 l 1
 70 730 l 1
114 980 m 1
 298 980 l 1
 367 833 l 1
 369 833 l 1
 438 980 l 1
 622 980 l 1
 500 770 l 1
 236 770 l 1
 114 980 l 1
EndSplineSet
EndChar

StartChar: uni0145
Encoding: 325 325 103
Width: 735
Flags: W
LayerCount: 2
Fore
SplineSet
70 730 m 1
 244 730 l 1
 493 280 l 1
 495 280 l 1
 495 730 l 1
 665 730 l 1
 665 0 l 1
 491 0 l 1
 242 450 l 1
 240 450 l 1
 240 0 l 1
 70 0 l 1
 70 730 l 1
382 -250 m 1
 232 -250 l 1
 304 -40 l 1
 504 -40 l 1
 382 -250 l 1
EndSplineSet
EndChar

StartChar: Eng
Encoding: 330 330 104
Width: 735
Flags: W
LayerCount: 2
Fore
SplineSet
665 730 m 1
 665 -2 l 2
 665 -57 658 -100 646 -133 c 0
 632 -166 612 -189 582 -204 c 0
 554 -219 514 -226 465 -226 c 0
 419 -226 374 -221 330 -211 c 1
 349 -77 l 1
 375 -85 402 -89 429 -89 c 0
 454 -89 471 -83 480 -72 c 0
 490 -60 495 -39 496 -8 c 1
 242 433 l 1
 240 433 l 1
 240 0 l 1
 70 0 l 1
 70 730 l 1
 244 730 l 1
 493 297 l 1
 495 297 l 1
 495 730 l 1
 665 730 l 1
EndSplineSet
EndChar

StartChar: uni01CB
Encoding: 459 459 105
Width: 1094
Flags: W
LayerCount: 2
Fore
SplineSet
70 730 m 1
 244 730 l 1
 493 280 l 1
 495 280 l 1
 495 730 l 1
 665 730 l 1
 665 0 l 1
 491 0 l 1
 242 450 l 1
 240 450 l 1
 240 0 l 1
 70 0 l 1
 70 730 l 1
854 747 m 1
 1024 747 l 1
 1024 603 l 1
 854 603 l 1
 854 747 l 1
793 -94 m 0
 817 -88 833 -76 842 -58 c 0
 850 -39 854 -9 854 33 c 2
 854 520 l 1
 1024 520 l 1
 1024 33 l 2
 1024 -36 1014 -90 993 -127 c 0
 972 -164 938 -191 889 -206 c 0
 840 -222 771 -230 681 -230 c 1
 673 -103 l 1
 729 -103 769 -100 793 -94 c 0
EndSplineSet
EndChar

StartChar: Ntilde
Encoding: 209 209 106
Width: 735
Flags: W
LayerCount: 2
Fore
SplineSet
70 730 m 1
 244 730 l 1
 493 280 l 1
 495 280 l 1
 495 730 l 1
 665 730 l 1
 665 0 l 1
 491 0 l 1
 242 450 l 1
 240 450 l 1
 240 0 l 1
 70 0 l 1
 70 730 l 1
350 818 m 0
 323 834 303 842 289 842 c 0
 280 842 273 838 270 829 c 0
 267 820 265 804 265 779 c 1
 133 779 l 1
 133 848 142 898 161 932 c 0
 180 964 209 981 248 981 c 0
 285 981 331 965 386 932 c 0
 413 916 433 908 446 908 c 0
 455 908 462 912 466 921 c 0
 469 930 471 946 471 971 c 1
 603 971 l 1
 603 902 594 852 574 818 c 0
 556 786 526 769 487 769 c 0
 450 769 405 785 350 818 c 0
EndSplineSet
EndChar

StartChar: O
Encoding: 79 79 107
Width: 811
Flags: W
LayerCount: 2
Fore
SplineSet
208 35 m 0
 152 65 109 108 80 164 c 0
 50 221 35 288 35 365 c 0
 35 442 50 509 80 566 c 0
 109 622 152 665 208 695 c 0
 263 725 329 740 406 740 c 0
 483 740 549 725 604 695 c 0
 660 665 703 622 732 566 c 0
 762 509 777 442 777 365 c 0
 777 288 762 221 732 164 c 0
 703 108 660 65 604 35 c 0
 549 5 483 -10 406 -10 c 0
 329 -10 263 5 208 35 c 0
552 196 m 0
 585 234 602 291 602 365 c 0
 602 439 585 496 552 534 c 0
 518 574 469 593 406 593 c 0
 342 593 293 574 260 534 c 0
 226 496 209 439 209 365 c 0
 209 291 226 234 260 196 c 0
 293 156 342 137 406 137 c 0
 469 137 518 156 552 196 c 0
EndSplineSet
EndChar

StartChar: Oacute
Encoding: 211 211 108
Width: 811
Flags: W
LayerCount: 2
Fore
SplineSet
208 35 m 0
 152 65 109 108 80 164 c 0
 50 221 35 288 35 365 c 0
 35 442 50 509 80 566 c 0
 109 622 152 665 208 695 c 0
 263 725 329 740 406 740 c 0
 483 740 549 725 604 695 c 0
 660 665 703 622 732 566 c 0
 762 509 777 442 777 365 c 0
 777 288 762 221 732 164 c 0
 703 108 660 65 604 35 c 0
 549 5 483 -10 406 -10 c 0
 329 -10 263 5 208 35 c 0
552 196 m 0
 585 234 602 291 602 365 c 0
 602 439 585 496 552 534 c 0
 518 574 469 593 406 593 c 0
 342 593 293 574 260 534 c 0
 226 496 209 439 209 365 c 0
 209 291 226 234 260 196 c 0
 293 156 342 137 406 137 c 0
 469 137 518 156 552 196 c 0
446 770 m 1
 296 770 l 1
 368 980 l 1
 568 980 l 1
 446 770 l 1
EndSplineSet
EndChar

StartChar: Obreve
Encoding: 334 334 109
Width: 811
Flags: W
LayerCount: 2
Fore
SplineSet
208 35 m 0
 152 65 109 108 80 164 c 0
 50 221 35 288 35 365 c 0
 35 442 50 509 80 566 c 0
 109 622 152 665 208 695 c 0
 263 725 329 740 406 740 c 0
 483 740 549 725 604 695 c 0
 660 665 703 622 732 566 c 0
 762 509 777 442 777 365 c 0
 777 288 762 221 732 164 c 0
 703 108 660 65 604 35 c 0
 549 5 483 -10 406 -10 c 0
 329 -10 263 5 208 35 c 0
552 196 m 0
 585 234 602 291 602 365 c 0
 602 439 585 496 552 534 c 0
 518 574 469 593 406 593 c 0
 342 593 293 574 260 534 c 0
 226 496 209 439 209 365 c 0
 209 291 226 234 260 196 c 0
 293 156 342 137 406 137 c 0
 469 137 518 156 552 196 c 0
285 794 m 0
 250 811 222 835 202 866 c 0
 181 897 171 932 170 971 c 1
 323 971 l 1
 326 941 335 919 348 904 c 0
 361 890 380 883 405 883 c 0
 430 883 449 890 462 904 c 0
 475 919 484 941 488 971 c 1
 640 971 l 1
 639 932 629 897 608 866 c 0
 588 835 560 811 525 794 c 0
 490 777 450 768 405 768 c 0
 360 768 320 777 285 794 c 0
EndSplineSet
EndChar

StartChar: Ocircumflex
Encoding: 212 212 110
Width: 811
Flags: W
LayerCount: 2
Fore
SplineSet
208 35 m 0
 152 65 109 108 80 164 c 0
 50 221 35 288 35 365 c 0
 35 442 50 509 80 566 c 0
 109 622 152 665 208 695 c 0
 263 725 329 740 406 740 c 0
 483 740 549 725 604 695 c 0
 660 665 703 622 732 566 c 0
 762 509 777 442 777 365 c 0
 777 288 762 221 732 164 c 0
 703 108 660 65 604 35 c 0
 549 5 483 -10 406 -10 c 0
 329 -10 263 5 208 35 c 0
552 196 m 0
 585 234 602 291 602 365 c 0
 602 439 585 496 552 534 c 0
 518 574 469 593 406 593 c 0
 342 593 293 574 260 534 c 0
 226 496 209 439 209 365 c 0
 209 291 226 234 260 196 c 0
 293 156 342 137 406 137 c 0
 469 137 518 156 552 196 c 0
274 980 m 1
 538 980 l 1
 660 770 l 1
 476 770 l 1
 407 917 l 1
 405 917 l 1
 336 770 l 1
 152 770 l 1
 274 980 l 1
EndSplineSet
EndChar

StartChar: uni1ED0
Encoding: 7888 7888 111
Width: 811
Flags: W
LayerCount: 2
Fore
SplineSet
405 917 m 1
 336 770 l 1
 152 770 l 1
 274 980 l 1
 522 980 l 1
 584 1160 l 1
 784 1160 l 1
 662 950 l 1
 555 950 l 1
 660 770 l 1
 476 770 l 1
 407 917 l 1
 405 917 l 1
604 695 m 0
 660 665 703 622 732 566 c 0
 762 509 777 442 777 365 c 0
 777 288 762 221 732 164 c 0
 703 108 660 65 604 35 c 0
 549 5 483 -10 406 -10 c 0
 329 -10 263 5 208 35 c 0
 152 65 109 108 80 164 c 0
 50 221 35 288 35 365 c 0
 35 442 50 509 80 566 c 0
 109 622 152 665 208 695 c 0
 263 725 329 740 406 740 c 0
 483 740 549 725 604 695 c 0
552 196 m 0
 585 234 602 291 602 365 c 0
 602 439 585 496 552 534 c 0
 518 574 469 593 406 593 c 0
 342 593 293 574 260 534 c 0
 226 496 209 439 209 365 c 0
 209 291 226 234 260 196 c 0
 293 156 342 137 406 137 c 0
 469 137 518 156 552 196 c 0
EndSplineSet
EndChar

StartChar: uni1ED8
Encoding: 7896 7896 112
Width: 811
Flags: W
LayerCount: 2
Fore
SplineSet
208 35 m 0
 152 65 109 108 80 164 c 0
 50 221 35 288 35 365 c 0
 35 442 50 509 80 566 c 0
 109 622 152 665 208 695 c 0
 263 725 329 740 406 740 c 0
 483 740 549 725 604 695 c 0
 660 665 703 622 732 566 c 0
 762 509 777 442 777 365 c 0
 777 288 762 221 732 164 c 0
 703 108 660 65 604 35 c 0
 549 5 483 -10 406 -10 c 0
 329 -10 263 5 208 35 c 0
552 196 m 0
 585 234 602 291 602 365 c 0
 602 439 585 496 552 534 c 0
 518 574 469 593 406 593 c 0
 342 593 293 574 260 534 c 0
 226 496 209 439 209 365 c 0
 209 291 226 234 260 196 c 0
 293 156 342 137 406 137 c 0
 469 137 518 156 552 196 c 0
322 -61 m 1
 490 -61 l 1
 490 -229 l 1
 322 -229 l 1
 322 -61 l 1
274 980 m 1
 538 980 l 1
 660 770 l 1
 476 770 l 1
 407 917 l 1
 405 917 l 1
 336 770 l 1
 152 770 l 1
 274 980 l 1
EndSplineSet
EndChar

StartChar: uni1ED2
Encoding: 7890 7890 113
Width: 811
Flags: W
LayerCount: 2
Fore
SplineSet
257 950 m 1
 149 950 l 1
 27 1160 l 1
 227 1160 l 1
 289 980 l 1
 538 980 l 1
 660 770 l 1
 476 770 l 1
 407 917 l 1
 405 917 l 1
 336 770 l 1
 152 770 l 1
 257 950 l 1
604 695 m 0
 660 665 703 622 732 566 c 0
 762 509 777 442 777 365 c 0
 777 288 762 221 732 164 c 0
 703 108 660 65 604 35 c 0
 549 5 483 -10 406 -10 c 0
 329 -10 263 5 208 35 c 0
 152 65 109 108 80 164 c 0
 50 221 35 288 35 365 c 0
 35 442 50 509 80 566 c 0
 109 622 152 665 208 695 c 0
 263 725 329 740 406 740 c 0
 483 740 549 725 604 695 c 0
552 196 m 0
 585 234 602 291 602 365 c 0
 602 439 585 496 552 534 c 0
 518 574 469 593 406 593 c 0
 342 593 293 574 260 534 c 0
 226 496 209 439 209 365 c 0
 209 291 226 234 260 196 c 0
 293 156 342 137 406 137 c 0
 469 137 518 156 552 196 c 0
EndSplineSet
EndChar

StartChar: uni1ED4
Encoding: 7892 7892 114
Width: 811
Flags: W
LayerCount: 2
Fore
SplineSet
336 770 m 1
 152 770 l 1
 274 980 l 1
 522 980 l 1
 524 992 525 1003 525 1012 c 0
 525 1025 521 1033 514 1038 c 0
 507 1042 493 1044 473 1044 c 0
 426 1044 378 1036 328 1021 c 1
 315 1140 l 1
 342 1146 372 1151 405 1154 c 0
 438 1158 469 1160 498 1160 c 0
 546 1160 583 1157 609 1152 c 0
 635 1147 654 1138 664 1124 c 0
 676 1112 681 1093 681 1069 c 0
 681 1051 679 1031 674 1008 c 0
 670 986 665 967 658 950 c 1
 555 950 l 1
 660 770 l 1
 476 770 l 1
 407 917 l 1
 405 917 l 1
 336 770 l 1
604 695 m 0
 660 665 703 622 732 566 c 0
 762 509 777 442 777 365 c 0
 777 288 762 221 732 164 c 0
 703 108 660 65 604 35 c 0
 549 5 483 -10 406 -10 c 0
 329 -10 263 5 208 35 c 0
 152 65 109 108 80 164 c 0
 50 221 35 288 35 365 c 0
 35 442 50 509 80 566 c 0
 109 622 152 665 208 695 c 0
 263 725 329 740 406 740 c 0
 483 740 549 725 604 695 c 0
552 196 m 0
 585 234 602 291 602 365 c 0
 602 439 585 496 552 534 c 0
 518 574 469 593 406 593 c 0
 342 593 293 574 260 534 c 0
 226 496 209 439 209 365 c 0
 209 291 226 234 260 196 c 0
 293 156 342 137 406 137 c 0
 469 137 518 156 552 196 c 0
EndSplineSet
EndChar

StartChar: uni1ED6
Encoding: 7894 7894 115
Width: 811
Flags: W
LayerCount: 2
Fore
SplineSet
208 35 m 0
 152 65 109 108 80 164 c 0
 50 221 35 288 35 365 c 0
 35 442 50 509 80 566 c 0
 109 622 152 665 208 695 c 0
 263 725 329 740 406 740 c 0
 483 740 549 725 604 695 c 0
 660 665 703 622 732 566 c 0
 762 509 777 442 777 365 c 0
 777 288 762 221 732 164 c 0
 703 108 660 65 604 35 c 0
 549 5 483 -10 406 -10 c 0
 329 -10 263 5 208 35 c 0
552 196 m 0
 585 234 602 291 602 365 c 0
 602 439 585 496 552 534 c 0
 518 574 469 593 406 593 c 0
 342 593 293 574 260 534 c 0
 226 496 209 439 209 365 c 0
 209 291 226 234 260 196 c 0
 293 156 342 137 406 137 c 0
 469 137 518 156 552 196 c 0
274 980 m 1
 538 980 l 1
 660 770 l 1
 476 770 l 1
 407 917 l 1
 405 917 l 1
 336 770 l 1
 152 770 l 1
 274 980 l 1
388 1055 m 0
 361 1071 341 1079 327 1079 c 0
 318 1079 311 1075 308 1066 c 0
 305 1057 303 1041 303 1016 c 1
 171 1016 l 1
 171 1085 180 1136 199 1168 c 0
 218 1202 247 1218 286 1218 c 0
 323 1218 369 1202 424 1169 c 0
 451 1153 471 1145 484 1145 c 0
 493 1145 500 1149 504 1158 c 0
 507 1167 509 1183 509 1208 c 1
 641 1208 l 1
 641 1139 632 1088 612 1056 c 0
 594 1022 564 1006 525 1006 c 0
 488 1006 443 1022 388 1055 c 0
EndSplineSet
EndChar

StartChar: uni020C
Encoding: 524 524 116
Width: 811
Flags: W
LayerCount: 2
Fore
SplineSet
208 35 m 0
 152 65 109 108 80 164 c 0
 50 221 35 288 35 365 c 0
 35 442 50 509 80 566 c 0
 109 622 152 665 208 695 c 0
 263 725 329 740 406 740 c 0
 483 740 549 725 604 695 c 0
 660 665 703 622 732 566 c 0
 762 509 777 442 777 365 c 0
 777 288 762 221 732 164 c 0
 703 108 660 65 604 35 c 0
 549 5 483 -10 406 -10 c 0
 329 -10 263 5 208 35 c 0
552 196 m 0
 585 234 602 291 602 365 c 0
 602 439 585 496 552 534 c 0
 518 574 469 593 406 593 c 0
 342 593 293 574 260 534 c 0
 226 496 209 439 209 365 c 0
 209 291 226 234 260 196 c 0
 293 156 342 137 406 137 c 0
 469 137 518 156 552 196 c 0
114 980 m 1
 314 980 l 1
 386 770 l 1
 236 770 l 1
 114 980 l 1
369 980 m 1
 569 980 l 1
 641 770 l 1
 491 770 l 1
 369 980 l 1
EndSplineSet
EndChar

StartChar: Odieresis
Encoding: 214 214 117
Width: 811
Flags: W
LayerCount: 2
Fore
SplineSet
208 35 m 0
 152 65 109 108 80 164 c 0
 50 221 35 288 35 365 c 0
 35 442 50 509 80 566 c 0
 109 622 152 665 208 695 c 0
 263 725 329 740 406 740 c 0
 483 740 549 725 604 695 c 0
 660 665 703 622 732 566 c 0
 762 509 777 442 777 365 c 0
 777 288 762 221 732 164 c 0
 703 108 660 65 604 35 c 0
 549 5 483 -10 406 -10 c 0
 329 -10 263 5 208 35 c 0
552 196 m 0
 585 234 602 291 602 365 c 0
 602 439 585 496 552 534 c 0
 518 574 469 593 406 593 c 0
 342 593 293 574 260 534 c 0
 226 496 209 439 209 365 c 0
 209 291 226 234 260 196 c 0
 293 156 342 137 406 137 c 0
 469 137 518 156 552 196 c 0
189 959 m 1
 357 959 l 1
 357 791 l 1
 189 791 l 1
 189 959 l 1
453 959 m 1
 622 959 l 1
 622 791 l 1
 453 791 l 1
 453 959 l 1
EndSplineSet
EndChar

StartChar: uni022A
Encoding: 554 554 118
Width: 811
Flags: W
LayerCount: 2
Fore
SplineSet
208 35 m 0
 152 65 109 108 80 164 c 0
 50 221 35 288 35 365 c 0
 35 442 50 509 80 566 c 0
 109 622 152 665 208 695 c 0
 263 725 329 740 406 740 c 0
 483 740 549 725 604 695 c 0
 660 665 703 622 732 566 c 0
 762 509 777 442 777 365 c 0
 777 288 762 221 732 164 c 0
 703 108 660 65 604 35 c 0
 549 5 483 -10 406 -10 c 0
 329 -10 263 5 208 35 c 0
552 196 m 0
 585 234 602 291 602 365 c 0
 602 439 585 496 552 534 c 0
 518 574 469 593 406 593 c 0
 342 593 293 574 260 534 c 0
 226 496 209 439 209 365 c 0
 209 291 226 234 260 196 c 0
 293 156 342 137 406 137 c 0
 469 137 518 156 552 196 c 0
189 959 m 1
 357 959 l 1
 357 791 l 1
 189 791 l 1
 189 959 l 1
453 959 m 1
 622 959 l 1
 622 791 l 1
 453 791 l 1
 453 959 l 1
203 1165 m 1
 609 1165 l 1
 609 1043 l 1
 203 1043 l 1
 203 1165 l 1
EndSplineSet
EndChar

StartChar: uni0230
Encoding: 560 560 119
Width: 811
Flags: W
LayerCount: 2
Fore
SplineSet
208 35 m 0
 152 65 109 108 80 164 c 0
 50 221 35 288 35 365 c 0
 35 442 50 509 80 566 c 0
 109 622 152 665 208 695 c 0
 263 725 329 740 406 740 c 0
 483 740 549 725 604 695 c 0
 660 665 703 622 732 566 c 0
 762 509 777 442 777 365 c 0
 777 288 762 221 732 164 c 0
 703 108 660 65 604 35 c 0
 549 5 483 -10 406 -10 c 0
 329 -10 263 5 208 35 c 0
552 196 m 0
 585 234 602 291 602 365 c 0
 602 439 585 496 552 534 c 0
 518 574 469 593 406 593 c 0
 342 593 293 574 260 534 c 0
 226 496 209 439 209 365 c 0
 209 291 226 234 260 196 c 0
 293 156 342 137 406 137 c 0
 469 137 518 156 552 196 c 0
322 959 m 1
 490 959 l 1
 490 791 l 1
 322 791 l 1
 322 959 l 1
203 1165 m 1
 609 1165 l 1
 609 1043 l 1
 203 1043 l 1
 203 1165 l 1
EndSplineSet
EndChar

StartChar: uni1ECC
Encoding: 7884 7884 120
Width: 811
Flags: W
LayerCount: 2
Fore
SplineSet
208 35 m 0
 152 65 109 108 80 164 c 0
 50 221 35 288 35 365 c 0
 35 442 50 509 80 566 c 0
 109 622 152 665 208 695 c 0
 263 725 329 740 406 740 c 0
 483 740 549 725 604 695 c 0
 660 665 703 622 732 566 c 0
 762 509 777 442 777 365 c 0
 777 288 762 221 732 164 c 0
 703 108 660 65 604 35 c 0
 549 5 483 -10 406 -10 c 0
 329 -10 263 5 208 35 c 0
552 196 m 0
 585 234 602 291 602 365 c 0
 602 439 585 496 552 534 c 0
 518 574 469 593 406 593 c 0
 342 593 293 574 260 534 c 0
 226 496 209 439 209 365 c 0
 209 291 226 234 260 196 c 0
 293 156 342 137 406 137 c 0
 469 137 518 156 552 196 c 0
322 -61 m 1
 490 -61 l 1
 490 -229 l 1
 322 -229 l 1
 322 -61 l 1
EndSplineSet
EndChar

StartChar: Ograve
Encoding: 210 210 121
Width: 811
Flags: W
LayerCount: 2
Fore
SplineSet
208 35 m 0
 152 65 109 108 80 164 c 0
 50 221 35 288 35 365 c 0
 35 442 50 509 80 566 c 0
 109 622 152 665 208 695 c 0
 263 725 329 740 406 740 c 0
 483 740 549 725 604 695 c 0
 660 665 703 622 732 566 c 0
 762 509 777 442 777 365 c 0
 777 288 762 221 732 164 c 0
 703 108 660 65 604 35 c 0
 549 5 483 -10 406 -10 c 0
 329 -10 263 5 208 35 c 0
552 196 m 0
 585 234 602 291 602 365 c 0
 602 439 585 496 552 534 c 0
 518 574 469 593 406 593 c 0
 342 593 293 574 260 534 c 0
 226 496 209 439 209 365 c 0
 209 291 226 234 260 196 c 0
 293 156 342 137 406 137 c 0
 469 137 518 156 552 196 c 0
243 980 m 1
 443 980 l 1
 515 770 l 1
 365 770 l 1
 243 980 l 1
EndSplineSet
EndChar

StartChar: uni1ECE
Encoding: 7886 7886 122
Width: 811
Flags: W
LayerCount: 2
Fore
SplineSet
208 35 m 0
 152 65 109 108 80 164 c 0
 50 221 35 288 35 365 c 0
 35 442 50 509 80 566 c 0
 109 622 152 665 208 695 c 0
 263 725 329 740 406 740 c 0
 483 740 549 725 604 695 c 0
 660 665 703 622 732 566 c 0
 762 509 777 442 777 365 c 0
 777 288 762 221 732 164 c 0
 703 108 660 65 604 35 c 0
 549 5 483 -10 406 -10 c 0
 329 -10 263 5 208 35 c 0
552 196 m 0
 585 234 602 291 602 365 c 0
 602 439 585 496 552 534 c 0
 518 574 469 593 406 593 c 0
 342 593 293 574 260 534 c 0
 226 496 209 439 209 365 c 0
 209 291 226 234 260 196 c 0
 293 156 342 137 406 137 c 0
 469 137 518 156 552 196 c 0
433 840 m 0
 433 853 429 861 422 866 c 0
 415 870 401 872 381 872 c 0
 334 872 286 864 236 849 c 1
 223 968 l 1
 250 974 280 979 313 982 c 0
 346 986 377 988 406 988 c 0
 454 988 491 985 517 980 c 0
 543 975 562 966 572 952 c 0
 584 940 589 921 589 897 c 0
 589 879 587 859 582 836 c 0
 578 814 573 795 566 778 c 1
 422 778 l 1
 429 800 433 821 433 840 c 0
EndSplineSet
EndChar

StartChar: Ohorn
Encoding: 416 416 123
Width: 838
Flags: W
LayerCount: 2
Fore
SplineSet
822 595 m 0
 804 567 778 549 745 540 c 1
 766 489 777 431 777 365 c 0
 777 288 762 221 732 164 c 0
 703 108 660 65 604 35 c 0
 549 5 483 -10 406 -10 c 0
 329 -10 263 5 208 35 c 0
 152 65 109 108 80 164 c 0
 50 221 35 288 35 365 c 0
 35 442 50 509 80 566 c 0
 109 622 152 665 208 695 c 0
 263 725 329 740 406 740 c 0
 506 740 588 715 652 664 c 1
 665 665 676 671 682 682 c 0
 690 692 693 705 693 722 c 0
 693 737 690 756 686 779 c 0
 680 802 675 822 669 837 c 1
 827 837 l 1
 841 794 848 750 848 705 c 0
 848 660 839 623 822 595 c 0
552 196 m 0
 585 234 602 291 602 365 c 0
 602 439 585 496 552 534 c 0
 518 574 469 593 406 593 c 0
 342 593 293 574 260 534 c 0
 226 496 209 439 209 365 c 0
 209 291 226 234 260 196 c 0
 293 156 342 137 406 137 c 0
 469 137 518 156 552 196 c 0
EndSplineSet
EndChar

StartChar: uni1EDA
Encoding: 7898 7898 124
Width: 838
Flags: W
LayerCount: 2
Fore
SplineSet
822 595 m 0
 804 567 778 549 745 540 c 1
 766 489 777 431 777 365 c 0
 777 288 762 221 732 164 c 0
 703 108 660 65 604 35 c 0
 549 5 483 -10 406 -10 c 0
 329 -10 263 5 208 35 c 0
 152 65 109 108 80 164 c 0
 50 221 35 288 35 365 c 0
 35 442 50 509 80 566 c 0
 109 622 152 665 208 695 c 0
 263 725 329 740 406 740 c 0
 506 740 588 715 652 664 c 1
 665 665 676 671 682 682 c 0
 690 692 693 705 693 722 c 0
 693 737 690 756 686 779 c 0
 680 802 675 822 669 837 c 1
 827 837 l 1
 841 794 848 750 848 705 c 0
 848 660 839 623 822 595 c 0
552 196 m 0
 585 234 602 291 602 365 c 0
 602 439 585 496 552 534 c 0
 518 574 469 593 406 593 c 0
 342 593 293 574 260 534 c 0
 226 496 209 439 209 365 c 0
 209 291 226 234 260 196 c 0
 293 156 342 137 406 137 c 0
 469 137 518 156 552 196 c 0
446 770 m 1
 296 770 l 1
 368 980 l 1
 568 980 l 1
 446 770 l 1
EndSplineSet
EndChar

StartChar: uni1EE2
Encoding: 7906 7906 125
Width: 838
Flags: W
LayerCount: 2
Fore
SplineSet
822 595 m 0
 804 567 778 549 745 540 c 1
 766 489 777 431 777 365 c 0
 777 288 762 221 732 164 c 0
 703 108 660 65 604 35 c 0
 549 5 483 -10 406 -10 c 0
 329 -10 263 5 208 35 c 0
 152 65 109 108 80 164 c 0
 50 221 35 288 35 365 c 0
 35 442 50 509 80 566 c 0
 109 622 152 665 208 695 c 0
 263 725 329 740 406 740 c 0
 506 740 588 715 652 664 c 1
 665 665 676 671 682 682 c 0
 690 692 693 705 693 722 c 0
 693 737 690 756 686 779 c 0
 680 802 675 822 669 837 c 1
 827 837 l 1
 841 794 848 750 848 705 c 0
 848 660 839 623 822 595 c 0
552 196 m 0
 585 234 602 291 602 365 c 0
 602 439 585 496 552 534 c 0
 518 574 469 593 406 593 c 0
 342 593 293 574 260 534 c 0
 226 496 209 439 209 365 c 0
 209 291 226 234 260 196 c 0
 293 156 342 137 406 137 c 0
 469 137 518 156 552 196 c 0
322 -61 m 1
 490 -61 l 1
 490 -229 l 1
 322 -229 l 1
 322 -61 l 1
EndSplineSet
EndChar

StartChar: uni1EDC
Encoding: 7900 7900 126
Width: 838
Flags: W
LayerCount: 2
Fore
SplineSet
822 595 m 0
 804 567 778 549 745 540 c 1
 766 489 777 431 777 365 c 0
 777 288 762 221 732 164 c 0
 703 108 660 65 604 35 c 0
 549 5 483 -10 406 -10 c 0
 329 -10 263 5 208 35 c 0
 152 65 109 108 80 164 c 0
 50 221 35 288 35 365 c 0
 35 442 50 509 80 566 c 0
 109 622 152 665 208 695 c 0
 263 725 329 740 406 740 c 0
 506 740 588 715 652 664 c 1
 665 665 676 671 682 682 c 0
 690 692 693 705 693 722 c 0
 693 737 690 756 686 779 c 0
 680 802 675 822 669 837 c 1
 827 837 l 1
 841 794 848 750 848 705 c 0
 848 660 839 623 822 595 c 0
552 196 m 0
 585 234 602 291 602 365 c 0
 602 439 585 496 552 534 c 0
 518 574 469 593 406 593 c 0
 342 593 293 574 260 534 c 0
 226 496 209 439 209 365 c 0
 209 291 226 234 260 196 c 0
 293 156 342 137 406 137 c 0
 469 137 518 156 552 196 c 0
243 980 m 1
 443 980 l 1
 515 770 l 1
 365 770 l 1
 243 980 l 1
EndSplineSet
EndChar

StartChar: uni1EDE
Encoding: 7902 7902 127
Width: 838
Flags: W
LayerCount: 2
Fore
SplineSet
822 595 m 0
 804 567 778 549 745 540 c 1
 766 489 777 431 777 365 c 0
 777 288 762 221 732 164 c 0
 703 108 660 65 604 35 c 0
 549 5 483 -10 406 -10 c 0
 329 -10 263 5 208 35 c 0
 152 65 109 108 80 164 c 0
 50 221 35 288 35 365 c 0
 35 442 50 509 80 566 c 0
 109 622 152 665 208 695 c 0
 263 725 329 740 406 740 c 0
 506 740 588 715 652 664 c 1
 665 665 676 671 682 682 c 0
 690 692 693 705 693 722 c 0
 693 737 690 756 686 779 c 0
 680 802 675 822 669 837 c 1
 827 837 l 1
 841 794 848 750 848 705 c 0
 848 660 839 623 822 595 c 0
552 196 m 0
 585 234 602 291 602 365 c 0
 602 439 585 496 552 534 c 0
 518 574 469 593 406 593 c 0
 342 593 293 574 260 534 c 0
 226 496 209 439 209 365 c 0
 209 291 226 234 260 196 c 0
 293 156 342 137 406 137 c 0
 469 137 518 156 552 196 c 0
433 840 m 0
 433 853 429 861 422 866 c 0
 415 870 401 872 381 872 c 0
 334 872 286 864 236 849 c 1
 223 968 l 1
 250 974 280 979 313 982 c 0
 346 986 377 988 406 988 c 0
 454 988 491 985 517 980 c 0
 543 975 562 966 572 952 c 0
 584 940 589 921 589 897 c 0
 589 879 587 859 582 836 c 0
 578 814 573 795 566 778 c 1
 422 778 l 1
 429 800 433 821 433 840 c 0
EndSplineSet
EndChar

StartChar: uni1EE0
Encoding: 7904 7904 128
Width: 838
Flags: W
LayerCount: 2
Fore
SplineSet
822 595 m 0
 804 567 778 549 745 540 c 1
 766 489 777 431 777 365 c 0
 777 288 762 221 732 164 c 0
 703 108 660 65 604 35 c 0
 549 5 483 -10 406 -10 c 0
 329 -10 263 5 208 35 c 0
 152 65 109 108 80 164 c 0
 50 221 35 288 35 365 c 0
 35 442 50 509 80 566 c 0
 109 622 152 665 208 695 c 0
 263 725 329 740 406 740 c 0
 506 740 588 715 652 664 c 1
 665 665 676 671 682 682 c 0
 690 692 693 705 693 722 c 0
 693 737 690 756 686 779 c 0
 680 802 675 822 669 837 c 1
 827 837 l 1
 841 794 848 750 848 705 c 0
 848 660 839 623 822 595 c 0
552 196 m 0
 585 234 602 291 602 365 c 0
 602 439 585 496 552 534 c 0
 518 574 469 593 406 593 c 0
 342 593 293 574 260 534 c 0
 226 496 209 439 209 365 c 0
 209 291 226 234 260 196 c 0
 293 156 342 137 406 137 c 0
 469 137 518 156 552 196 c 0
388 818 m 0
 361 834 341 842 327 842 c 0
 318 842 311 838 308 829 c 0
 305 820 303 804 303 779 c 1
 171 779 l 1
 171 848 180 898 199 932 c 0
 218 964 247 981 286 981 c 0
 323 981 369 965 424 932 c 0
 451 916 471 908 484 908 c 0
 493 908 500 912 504 921 c 0
 507 930 509 946 509 971 c 1
 641 971 l 1
 641 902 632 852 612 818 c 0
 594 786 564 769 525 769 c 0
 488 769 443 785 388 818 c 0
EndSplineSet
EndChar

StartChar: Ohungarumlaut
Encoding: 336 336 129
Width: 811
Flags: W
LayerCount: 2
Fore
SplineSet
208 35 m 0
 152 65 109 108 80 164 c 0
 50 221 35 288 35 365 c 0
 35 442 50 509 80 566 c 0
 109 622 152 665 208 695 c 0
 263 725 329 740 406 740 c 0
 483 740 549 725 604 695 c 0
 660 665 703 622 732 566 c 0
 762 509 777 442 777 365 c 0
 777 288 762 221 732 164 c 0
 703 108 660 65 604 35 c 0
 549 5 483 -10 406 -10 c 0
 329 -10 263 5 208 35 c 0
552 196 m 0
 585 234 602 291 602 365 c 0
 602 439 585 496 552 534 c 0
 518 574 469 593 406 593 c 0
 342 593 293 574 260 534 c 0
 226 496 209 439 209 365 c 0
 209 291 226 234 260 196 c 0
 293 156 342 137 406 137 c 0
 469 137 518 156 552 196 c 0
323 770 m 1
 173 770 l 1
 245 980 l 1
 445 980 l 1
 323 770 l 1
578 770 m 1
 428 770 l 1
 500 980 l 1
 700 980 l 1
 578 770 l 1
EndSplineSet
EndChar

StartChar: uni020E
Encoding: 526 526 130
Width: 811
Flags: W
LayerCount: 2
Fore
SplineSet
208 35 m 0
 152 65 109 108 80 164 c 0
 50 221 35 288 35 365 c 0
 35 442 50 509 80 566 c 0
 109 622 152 665 208 695 c 0
 263 725 329 740 406 740 c 0
 483 740 549 725 604 695 c 0
 660 665 703 622 732 566 c 0
 762 509 777 442 777 365 c 0
 777 288 762 221 732 164 c 0
 703 108 660 65 604 35 c 0
 549 5 483 -10 406 -10 c 0
 329 -10 263 5 208 35 c 0
552 196 m 0
 585 234 602 291 602 365 c 0
 602 439 585 496 552 534 c 0
 518 574 469 593 406 593 c 0
 342 593 293 574 260 534 c 0
 226 496 209 439 209 365 c 0
 209 291 226 234 260 196 c 0
 293 156 342 137 406 137 c 0
 469 137 518 156 552 196 c 0
525 956 m 0
 560 939 588 915 608 884 c 0
 629 853 639 818 640 779 c 1
 488 779 l 1
 484 809 475 831 462 846 c 0
 449 860 430 867 405 867 c 0
 380 867 361 860 348 846 c 0
 335 831 326 809 323 779 c 1
 170 779 l 1
 171 818 181 853 202 884 c 0
 222 915 250 939 285 956 c 0
 320 973 360 982 405 982 c 0
 450 982 490 973 525 956 c 0
EndSplineSet
EndChar

StartChar: Omacron
Encoding: 332 332 131
Width: 811
Flags: W
LayerCount: 2
Fore
SplineSet
208 35 m 0
 152 65 109 108 80 164 c 0
 50 221 35 288 35 365 c 0
 35 442 50 509 80 566 c 0
 109 622 152 665 208 695 c 0
 263 725 329 740 406 740 c 0
 483 740 549 725 604 695 c 0
 660 665 703 622 732 566 c 0
 762 509 777 442 777 365 c 0
 777 288 762 221 732 164 c 0
 703 108 660 65 604 35 c 0
 549 5 483 -10 406 -10 c 0
 329 -10 263 5 208 35 c 0
552 196 m 0
 585 234 602 291 602 365 c 0
 602 439 585 496 552 534 c 0
 518 574 469 593 406 593 c 0
 342 593 293 574 260 534 c 0
 226 496 209 439 209 365 c 0
 209 291 226 234 260 196 c 0
 293 156 342 137 406 137 c 0
 469 137 518 156 552 196 c 0
203 936 m 1
 609 936 l 1
 609 814 l 1
 203 814 l 1
 203 936 l 1
EndSplineSet
EndChar

StartChar: uni01EA
Encoding: 490 490 132
Width: 811
Flags: W
LayerCount: 2
Fore
SplineSet
398 -69 m 0
 398 -79 403 -87 412 -92 c 0
 422 -97 436 -100 454 -100 c 0
 487 -100 519 -93 549 -80 c 1
 565 -199 l 1
 530 -212 489 -219 443 -219 c 0
 380 -219 332 -208 298 -186 c 0
 263 -164 246 -133 246 -92 c 0
 246 -58 260 -26 287 4 c 1
 206 25 144 67 100 129 c 0
 57 191 35 270 35 365 c 0
 35 442 50 509 80 566 c 0
 109 622 152 665 208 695 c 0
 263 725 329 740 406 740 c 0
 483 740 549 725 604 695 c 0
 660 665 703 622 732 566 c 0
 762 509 777 442 777 365 c 0
 777 258 749 171 692 106 c 0
 636 41 558 3 458 -7 c 1
 418 -28 398 -49 398 -69 c 0
260 196 m 0
 293 156 342 137 406 137 c 0
 469 137 518 156 552 196 c 0
 585 234 602 291 602 365 c 0
 602 439 585 496 552 534 c 0
 518 574 469 593 406 593 c 0
 342 593 293 574 260 534 c 0
 226 496 209 439 209 365 c 0
 209 291 226 234 260 196 c 0
EndSplineSet
EndChar

StartChar: Oslash
Encoding: 216 216 133
Width: 811
Flags: W
LayerCount: 2
Fore
SplineSet
754 516 m 0
 769 471 777 420 777 365 c 0
 777 288 762 221 732 164 c 0
 703 108 660 65 604 35 c 0
 549 5 483 -10 406 -10 c 0
 340 -10 282 1 232 23 c 1
 178 -49 l 1
 74 29 l 1
 126 98 l 1
 96 130 73 169 58 214 c 0
 43 259 35 310 35 365 c 0
 35 442 50 509 80 566 c 0
 109 622 152 665 208 695 c 0
 263 725 329 740 406 740 c 0
 472 740 530 729 580 707 c 1
 634 779 l 1
 738 701 l 1
 686 632 l 1
 716 600 739 561 754 516 c 0
232 240 m 1
 485 580 l 1
 463 589 437 593 406 593 c 0
 342 593 293 574 260 534 c 0
 226 496 209 439 209 365 c 0
 209 316 217 275 232 240 c 1
552 196 m 0
 585 234 602 291 602 365 c 0
 602 412 595 454 580 489 c 1
 326 150 l 1
 349 141 376 137 406 137 c 0
 469 137 518 156 552 196 c 0
EndSplineSet
EndChar

StartChar: Oslashacute
Encoding: 510 510 134
Width: 811
Flags: W
LayerCount: 2
Fore
SplineSet
754 516 m 0
 769 471 777 420 777 365 c 0
 777 288 762 221 732 164 c 0
 703 108 660 65 604 35 c 0
 549 5 483 -10 406 -10 c 0
 340 -10 282 1 232 23 c 1
 178 -49 l 1
 74 29 l 1
 126 98 l 1
 96 130 73 169 58 214 c 0
 43 259 35 310 35 365 c 0
 35 442 50 509 80 566 c 0
 109 622 152 665 208 695 c 0
 263 725 329 740 406 740 c 0
 472 740 530 729 580 707 c 1
 634 779 l 1
 738 701 l 1
 686 632 l 1
 716 600 739 561 754 516 c 0
232 240 m 1
 485 580 l 1
 463 589 437 593 406 593 c 0
 342 593 293 574 260 534 c 0
 226 496 209 439 209 365 c 0
 209 316 217 275 232 240 c 1
552 196 m 0
 585 234 602 291 602 365 c 0
 602 412 595 454 580 489 c 1
 326 150 l 1
 349 141 376 137 406 137 c 0
 469 137 518 156 552 196 c 0
446 770 m 1
 296 770 l 1
 368 980 l 1
 568 980 l 1
 446 770 l 1
EndSplineSet
EndChar

StartChar: Otilde
Encoding: 213 213 135
Width: 811
Flags: W
LayerCount: 2
Fore
SplineSet
208 35 m 0
 152 65 109 108 80 164 c 0
 50 221 35 288 35 365 c 0
 35 442 50 509 80 566 c 0
 109 622 152 665 208 695 c 0
 263 725 329 740 406 740 c 0
 483 740 549 725 604 695 c 0
 660 665 703 622 732 566 c 0
 762 509 777 442 777 365 c 0
 777 288 762 221 732 164 c 0
 703 108 660 65 604 35 c 0
 549 5 483 -10 406 -10 c 0
 329 -10 263 5 208 35 c 0
552 196 m 0
 585 234 602 291 602 365 c 0
 602 439 585 496 552 534 c 0
 518 574 469 593 406 593 c 0
 342 593 293 574 260 534 c 0
 226 496 209 439 209 365 c 0
 209 291 226 234 260 196 c 0
 293 156 342 137 406 137 c 0
 469 137 518 156 552 196 c 0
388 818 m 0
 361 834 341 842 327 842 c 0
 318 842 311 838 308 829 c 0
 305 820 303 804 303 779 c 1
 171 779 l 1
 171 848 180 898 199 932 c 0
 218 964 247 981 286 981 c 0
 323 981 369 965 424 932 c 0
 451 916 471 908 484 908 c 0
 493 908 500 912 504 921 c 0
 507 930 509 946 509 971 c 1
 641 971 l 1
 641 902 632 852 612 818 c 0
 594 786 564 769 525 769 c 0
 488 769 443 785 388 818 c 0
EndSplineSet
EndChar

StartChar: uni022C
Encoding: 556 556 136
Width: 811
Flags: W
LayerCount: 2
Fore
SplineSet
208 35 m 0
 152 65 109 108 80 164 c 0
 50 221 35 288 35 365 c 0
 35 442 50 509 80 566 c 0
 109 622 152 665 208 695 c 0
 263 725 329 740 406 740 c 0
 483 740 549 725 604 695 c 0
 660 665 703 622 732 566 c 0
 762 509 777 442 777 365 c 0
 777 288 762 221 732 164 c 0
 703 108 660 65 604 35 c 0
 549 5 483 -10 406 -10 c 0
 329 -10 263 5 208 35 c 0
552 196 m 0
 585 234 602 291 602 365 c 0
 602 439 585 496 552 534 c 0
 518 574 469 593 406 593 c 0
 342 593 293 574 260 534 c 0
 226 496 209 439 209 365 c 0
 209 291 226 234 260 196 c 0
 293 156 342 137 406 137 c 0
 469 137 518 156 552 196 c 0
388 818 m 0
 361 834 341 842 327 842 c 0
 318 842 311 838 308 829 c 0
 305 820 303 804 303 779 c 1
 171 779 l 1
 171 848 180 898 199 932 c 0
 218 964 247 981 286 981 c 0
 323 981 369 965 424 932 c 0
 451 916 471 908 484 908 c 0
 493 908 500 912 504 921 c 0
 507 930 509 946 509 971 c 1
 641 971 l 1
 641 902 632 852 612 818 c 0
 594 786 564 769 525 769 c 0
 488 769 443 785 388 818 c 0
203 1187 m 1
 609 1187 l 1
 609 1065 l 1
 203 1065 l 1
 203 1187 l 1
EndSplineSet
EndChar

StartChar: OE
Encoding: 338 338 137
Width: 1043
Flags: W
LayerCount: 2
Fore
SplineSet
676 591 m 1
 676 445 l 1
 965 445 l 1
 965 310 l 1
 676 310 l 1
 676 139 l 1
 985 139 l 1
 985 0 l 1
 506 0 l 1
 477 -7 443 -10 406 -10 c 0
 329 -10 263 5 208 35 c 0
 152 65 109 108 80 164 c 0
 50 221 35 288 35 365 c 0
 35 442 50 509 80 566 c 0
 109 622 152 665 208 695 c 0
 263 725 329 740 406 740 c 0
 443 740 477 737 506 730 c 1
 985 730 l 1
 985 591 l 1
 676 591 l 1
506 162 m 1
 506 568 l 1
 479 585 446 593 406 593 c 0
 342 593 293 574 260 534 c 0
 226 496 209 439 209 365 c 0
 209 291 226 234 260 196 c 0
 293 156 342 137 406 137 c 0
 446 137 479 145 506 162 c 1
EndSplineSet
EndChar

StartChar: P
Encoding: 80 80 138
Width: 645
Flags: W
LayerCount: 2
Fore
SplineSet
536 669 m 0
 591 628 618 566 618 482 c 0
 618 401 593 339 542 298 c 0
 492 256 418 235 320 235 c 2
 240 235 l 1
 240 0 l 1
 70 0 l 1
 70 730 l 1
 287 730 l 2
 399 730 482 710 536 669 c 0
408 400 m 0
 432 417 444 445 444 482 c 0
 444 519 432 547 408 564 c 0
 384 581 346 590 295 590 c 2
 240 590 l 1
 240 374 l 1
 295 374 l 2
 346 374 384 383 408 400 c 0
EndSplineSet
EndChar

StartChar: Thorn
Encoding: 222 222 139
Width: 645
Flags: W
LayerCount: 2
Fore
SplineSet
536 562 m 0
 591 521 618 459 618 375 c 0
 618 294 593 232 542 190 c 0
 492 148 418 127 320 127 c 2
 240 127 l 1
 240 0 l 1
 70 0 l 1
 70 730 l 1
 240 730 l 1
 240 623 l 1
 287 623 l 2
 399 623 482 603 536 562 c 0
408 293 m 0
 432 310 444 338 444 375 c 0
 444 412 432 440 408 457 c 0
 384 474 346 483 295 483 c 2
 240 483 l 1
 240 267 l 1
 295 267 l 2
 346 267 384 276 408 293 c 0
EndSplineSet
EndChar

StartChar: Q
Encoding: 81 81 140
Width: 814
Flags: W
LayerCount: 2
Fore
SplineSet
791 -50 m 1
 656 -144 l 1
 623 -95 588 -60 550 -40 c 0
 512 -20 464 -10 406 -10 c 0
 329 -10 263 5 208 35 c 0
 152 65 109 108 80 164 c 0
 50 221 35 288 35 365 c 0
 35 442 50 509 80 566 c 0
 109 622 152 665 208 695 c 0
 263 725 329 740 406 740 c 0
 483 740 549 725 604 695 c 0
 660 665 703 622 732 566 c 0
 762 509 777 442 777 365 c 0
 777 298 765 238 741 188 c 0
 717 136 682 95 637 64 c 1
 702 35 754 -3 791 -50 c 1
552 196 m 0
 586 234 603 291 602 365 c 0
 603 439 586 496 552 534 c 0
 519 574 470 593 406 593 c 0
 343 593 294 574 260 534 c 0
 227 496 210 439 209 365 c 0
 210 291 227 234 260 196 c 0
 294 156 343 137 406 137 c 0
 469 137 518 156 552 196 c 0
EndSplineSet
EndChar

StartChar: R
Encoding: 82 82 141
Width: 675
Flags: W
LayerCount: 2
Fore
SplineSet
243 270 m 1
 240 270 l 1
 240 0 l 1
 70 0 l 1
 70 730 l 1
 290 730 l 2
 401 730 484 711 538 674 c 0
 592 637 619 579 619 502 c 0
 619 441 603 391 570 354 c 0
 537 316 489 291 424 279 c 1
 647 0 l 1
 457 0 l 1
 243 270 l 1
240 590 m 1
 240 400 l 1
 299 400 l 2
 349 400 386 408 409 422 c 0
 432 438 444 461 444 494 c 0
 444 527 432 552 409 567 c 0
 386 582 349 590 299 590 c 2
 240 590 l 1
EndSplineSet
EndChar

StartChar: Racute
Encoding: 340 340 142
Width: 675
Flags: W
LayerCount: 2
Fore
SplineSet
243 270 m 1
 240 270 l 1
 240 0 l 1
 70 0 l 1
 70 730 l 1
 290 730 l 2
 401 730 484 711 538 674 c 0
 592 637 619 579 619 502 c 0
 619 441 603 391 570 354 c 0
 537 316 489 291 424 279 c 1
 647 0 l 1
 457 0 l 1
 243 270 l 1
240 590 m 1
 240 400 l 1
 299 400 l 2
 349 400 386 408 409 422 c 0
 432 438 444 461 444 494 c 0
 444 527 432 552 409 567 c 0
 386 582 349 590 299 590 c 2
 240 590 l 1
364 770 m 1
 214 770 l 1
 286 980 l 1
 486 980 l 1
 364 770 l 1
EndSplineSet
EndChar

StartChar: Rcaron
Encoding: 344 344 143
Width: 675
Flags: W
LayerCount: 2
Fore
SplineSet
243 270 m 1
 240 270 l 1
 240 0 l 1
 70 0 l 1
 70 730 l 1
 290 730 l 2
 401 730 484 711 538 674 c 0
 592 637 619 579 619 502 c 0
 619 441 603 391 570 354 c 0
 537 316 489 291 424 279 c 1
 647 0 l 1
 457 0 l 1
 243 270 l 1
240 590 m 1
 240 400 l 1
 299 400 l 2
 349 400 386 408 409 422 c 0
 432 438 444 461 444 494 c 0
 444 527 432 552 409 567 c 0
 386 582 349 590 299 590 c 2
 240 590 l 1
69 980 m 1
 253 980 l 1
 322 833 l 1
 324 833 l 1
 393 980 l 1
 577 980 l 1
 455 770 l 1
 191 770 l 1
 69 980 l 1
EndSplineSet
EndChar

StartChar: uni0156
Encoding: 342 342 144
Width: 675
Flags: W
LayerCount: 2
Fore
SplineSet
243 270 m 1
 240 270 l 1
 240 0 l 1
 70 0 l 1
 70 730 l 1
 290 730 l 2
 401 730 484 711 538 674 c 0
 592 637 619 579 619 502 c 0
 619 441 603 391 570 354 c 0
 537 316 489 291 424 279 c 1
 647 0 l 1
 457 0 l 1
 243 270 l 1
240 590 m 1
 240 400 l 1
 299 400 l 2
 349 400 386 408 409 422 c 0
 432 438 444 461 444 494 c 0
 444 527 432 552 409 567 c 0
 386 582 349 590 299 590 c 2
 240 590 l 1
337 -250 m 1
 187 -250 l 1
 259 -40 l 1
 459 -40 l 1
 337 -250 l 1
EndSplineSet
EndChar

StartChar: uni0210
Encoding: 528 528 145
Width: 675
Flags: W
LayerCount: 2
Fore
SplineSet
243 270 m 1
 240 270 l 1
 240 0 l 1
 70 0 l 1
 70 730 l 1
 290 730 l 2
 401 730 484 711 538 674 c 0
 592 637 619 579 619 502 c 0
 619 441 603 391 570 354 c 0
 537 316 489 291 424 279 c 1
 647 0 l 1
 457 0 l 1
 243 270 l 1
240 590 m 1
 240 400 l 1
 299 400 l 2
 349 400 386 408 409 422 c 0
 432 438 444 461 444 494 c 0
 444 527 432 552 409 567 c 0
 386 582 349 590 299 590 c 2
 240 590 l 1
32 980 m 1
 232 980 l 1
 304 770 l 1
 154 770 l 1
 32 980 l 1
287 980 m 1
 487 980 l 1
 559 770 l 1
 409 770 l 1
 287 980 l 1
EndSplineSet
EndChar

StartChar: uni0212
Encoding: 530 530 146
Width: 675
Flags: W
LayerCount: 2
Fore
SplineSet
243 270 m 1
 240 270 l 1
 240 0 l 1
 70 0 l 1
 70 730 l 1
 290 730 l 2
 401 730 484 711 538 674 c 0
 592 637 619 579 619 502 c 0
 619 441 603 391 570 354 c 0
 537 316 489 291 424 279 c 1
 647 0 l 1
 457 0 l 1
 243 270 l 1
240 590 m 1
 240 400 l 1
 299 400 l 2
 349 400 386 408 409 422 c 0
 432 438 444 461 444 494 c 0
 444 527 432 552 409 567 c 0
 386 582 349 590 299 590 c 2
 240 590 l 1
443 956 m 0
 478 939 506 915 526 884 c 0
 547 853 557 818 558 779 c 1
 406 779 l 1
 402 809 393 831 380 846 c 0
 367 860 348 867 323 867 c 0
 298 867 279 860 266 846 c 0
 253 831 244 809 241 779 c 1
 88 779 l 1
 89 818 99 853 120 884 c 0
 140 915 168 939 203 956 c 0
 238 973 278 982 323 982 c 0
 368 982 408 973 443 956 c 0
EndSplineSet
EndChar

StartChar: S
Encoding: 83 83 147
Width: 631
Flags: W
LayerCount: 2
Fore
SplineSet
158 6 m 0
 113 17 75 32 43 53 c 1
 96 190 l 1
 128 172 162 158 198 148 c 0
 235 138 269 133 302 133 c 0
 337 133 363 139 382 152 c 0
 400 164 409 182 409 206 c 0
 409 227 401 243 386 254 c 0
 371 265 344 277 306 290 c 0
 244 311 194 332 157 354 c 0
 120 375 92 400 74 428 c 0
 57 457 48 491 48 531 c 0
 48 598 72 650 120 686 c 0
 168 722 237 740 327 740 c 0
 371 740 415 736 458 727 c 0
 502 718 539 707 570 692 c 1
 517 555 l 1
 489 568 459 579 427 586 c 0
 395 593 364 597 335 597 c 0
 299 597 272 591 254 580 c 0
 235 568 226 551 226 529 c 0
 226 510 234 495 250 484 c 0
 266 473 293 460 332 447 c 0
 393 426 442 404 479 382 c 0
 516 360 543 335 560 307 c 0
 578 279 587 245 587 206 c 0
 588 137 563 84 514 46 c 0
 464 9 393 -10 302 -10 c 0
 250 -10 202 -5 158 6 c 0
EndSplineSet
EndChar

StartChar: Sacute
Encoding: 346 346 148
Width: 631
Flags: W
LayerCount: 2
Fore
SplineSet
158 6 m 0
 113 17 75 32 43 53 c 1
 96 190 l 1
 128 172 162 158 198 148 c 0
 235 138 269 133 302 133 c 0
 337 133 363 139 382 152 c 0
 400 164 409 182 409 206 c 0
 409 227 401 243 386 254 c 0
 371 265 344 277 306 290 c 0
 244 311 194 332 157 354 c 0
 120 375 92 400 74 428 c 0
 57 457 48 491 48 531 c 0
 48 598 72 650 120 686 c 0
 168 722 237 740 327 740 c 0
 371 740 415 736 458 727 c 0
 502 718 539 707 570 692 c 1
 517 555 l 1
 489 568 459 579 427 586 c 0
 395 593 364 597 335 597 c 0
 299 597 272 591 254 580 c 0
 235 568 226 551 226 529 c 0
 226 510 234 495 250 484 c 0
 266 473 293 460 332 447 c 0
 393 426 442 404 479 382 c 0
 516 360 543 335 560 307 c 0
 578 279 587 245 587 206 c 0
 588 137 563 84 514 46 c 0
 464 9 393 -10 302 -10 c 0
 250 -10 202 -5 158 6 c 0
355 770 m 1
 205 770 l 1
 277 980 l 1
 477 980 l 1
 355 770 l 1
EndSplineSet
EndChar

StartChar: Scaron
Encoding: 352 352 149
Width: 631
Flags: W
LayerCount: 2
Fore
SplineSet
158 6 m 0
 113 17 75 32 43 53 c 1
 96 190 l 1
 128 172 162 158 198 148 c 0
 235 138 269 133 302 133 c 0
 337 133 363 139 382 152 c 0
 400 164 409 182 409 206 c 0
 409 227 401 243 386 254 c 0
 371 265 344 277 306 290 c 0
 244 311 194 332 157 354 c 0
 120 375 92 400 74 428 c 0
 57 457 48 491 48 531 c 0
 48 598 72 650 120 686 c 0
 168 722 237 740 327 740 c 0
 371 740 415 736 458 727 c 0
 502 718 539 707 570 692 c 1
 517 555 l 1
 489 568 459 579 427 586 c 0
 395 593 364 597 335 597 c 0
 299 597 272 591 254 580 c 0
 235 568 226 551 226 529 c 0
 226 510 234 495 250 484 c 0
 266 473 293 460 332 447 c 0
 393 426 442 404 479 382 c 0
 516 360 543 335 560 307 c 0
 578 279 587 245 587 206 c 0
 588 137 563 84 514 46 c 0
 464 9 393 -10 302 -10 c 0
 250 -10 202 -5 158 6 c 0
60 980 m 1
 244 980 l 1
 313 833 l 1
 315 833 l 1
 384 980 l 1
 568 980 l 1
 446 770 l 1
 182 770 l 1
 60 980 l 1
EndSplineSet
EndChar

StartChar: Scedilla
Encoding: 350 350 150
Width: 631
Flags: W
LayerCount: 2
Fore
SplineSet
548 80 m 0
 522 47 484 22 434 7 c 1
 463 -26 477 -59 477 -92 c 0
 477 -133 460 -164 426 -186 c 0
 391 -208 343 -219 280 -219 c 0
 234 -219 193 -212 158 -199 c 1
 174 -80 l 1
 204 -93 236 -100 269 -100 c 0
 287 -100 301 -97 310 -92 c 0
 320 -87 325 -79 325 -69 c 0
 325 -49 306 -29 268 -9 c 1
 177 -5 102 16 43 53 c 1
 96 190 l 1
 128 172 162 158 198 148 c 0
 235 138 269 133 302 133 c 0
 337 133 363 139 382 152 c 0
 400 164 409 182 409 206 c 0
 409 227 401 243 386 254 c 0
 371 265 344 277 306 290 c 0
 244 311 194 332 157 354 c 0
 120 375 92 400 74 428 c 0
 57 457 48 491 48 531 c 0
 48 598 72 650 120 686 c 0
 168 722 237 740 327 740 c 0
 371 740 415 736 458 727 c 0
 502 718 539 707 570 692 c 1
 517 555 l 1
 489 568 459 579 427 586 c 0
 395 593 364 597 335 597 c 0
 299 597 272 591 254 580 c 0
 235 568 226 551 226 529 c 0
 226 510 234 495 250 484 c 0
 266 473 293 460 332 447 c 0
 393 426 442 404 479 382 c 0
 516 360 543 335 560 307 c 0
 578 279 587 245 587 206 c 0
 588 156 575 114 548 80 c 0
EndSplineSet
EndChar

StartChar: Scircumflex
Encoding: 348 348 151
Width: 631
Flags: W
LayerCount: 2
Fore
SplineSet
158 6 m 0
 113 17 75 32 43 53 c 1
 96 190 l 1
 128 172 162 158 198 148 c 0
 235 138 269 133 302 133 c 0
 337 133 363 139 382 152 c 0
 400 164 409 182 409 206 c 0
 409 227 401 243 386 254 c 0
 371 265 344 277 306 290 c 0
 244 311 194 332 157 354 c 0
 120 375 92 400 74 428 c 0
 57 457 48 491 48 531 c 0
 48 598 72 650 120 686 c 0
 168 722 237 740 327 740 c 0
 371 740 415 736 458 727 c 0
 502 718 539 707 570 692 c 1
 517 555 l 1
 489 568 459 579 427 586 c 0
 395 593 364 597 335 597 c 0
 299 597 272 591 254 580 c 0
 235 568 226 551 226 529 c 0
 226 510 234 495 250 484 c 0
 266 473 293 460 332 447 c 0
 393 426 442 404 479 382 c 0
 516 360 543 335 560 307 c 0
 578 279 587 245 587 206 c 0
 588 137 563 84 514 46 c 0
 464 9 393 -10 302 -10 c 0
 250 -10 202 -5 158 6 c 0
182 980 m 1
 446 980 l 1
 568 770 l 1
 384 770 l 1
 315 917 l 1
 313 917 l 1
 244 770 l 1
 60 770 l 1
 182 980 l 1
EndSplineSet
EndChar

StartChar: uni0218
Encoding: 536 536 152
Width: 631
Flags: W
LayerCount: 2
Fore
SplineSet
158 6 m 0
 113 17 75 32 43 53 c 1
 96 190 l 1
 128 172 162 158 198 148 c 0
 235 138 269 133 302 133 c 0
 337 133 363 139 382 152 c 0
 400 164 409 182 409 206 c 0
 409 227 401 243 386 254 c 0
 371 265 344 277 306 290 c 0
 244 311 194 332 157 354 c 0
 120 375 92 400 74 428 c 0
 57 457 48 491 48 531 c 0
 48 598 72 650 120 686 c 0
 168 722 237 740 327 740 c 0
 371 740 415 736 458 727 c 0
 502 718 539 707 570 692 c 1
 517 555 l 1
 489 568 459 579 427 586 c 0
 395 593 364 597 335 597 c 0
 299 597 272 591 254 580 c 0
 235 568 226 551 226 529 c 0
 226 510 234 495 250 484 c 0
 266 473 293 460 332 447 c 0
 393 426 442 404 479 382 c 0
 516 360 543 335 560 307 c 0
 578 279 587 245 587 206 c 0
 588 137 563 84 514 46 c 0
 464 9 393 -10 302 -10 c 0
 250 -10 202 -5 158 6 c 0
328 -250 m 1
 178 -250 l 1
 250 -40 l 1
 450 -40 l 1
 328 -250 l 1
EndSplineSet
EndChar

StartChar: uni1E9E
Encoding: 7838 7838 153
Width: 705
Flags: W
LayerCount: 2
Fore
SplineSet
303 14 m 1
 325 156 l 1
 357 143 387 137 415 137 c 0
 446 137 469 143 484 156 c 0
 500 169 508 187 508 212 c 0
 508 239 497 259 476 270 c 0
 454 281 416 287 362 287 c 2
 358 287 l 1
 358 400 l 1
 447 520 l 1
 447 545 439 564 422 576 c 0
 406 587 381 593 346 593 c 0
 308 593 281 586 264 572 c 0
 248 557 240 534 240 501 c 2
 240 0 l 1
 70 0 l 1
 70 501 l 2
 70 581 93 641 138 680 c 0
 184 720 253 740 346 740 c 0
 527 740 617 664 617 511 c 1
 523 393 l 1
 523 391 l 1
 575 383 614 363 642 332 c 0
 668 300 682 258 682 205 c 0
 682 136 661 82 620 46 c 0
 578 8 518 -10 440 -10 c 0
 391 -10 345 -2 303 14 c 1
EndSplineSet
EndChar

StartChar: uni018F
Encoding: 399 399 154
Width: 761
Flags: W
LayerCount: 2
Fore
SplineSet
622 643 m 0
 691 578 726 486 726 365 c 0
 726 288 712 221 684 164 c 0
 655 108 615 65 562 35 c 0
 509 5 447 -10 374 -10 c 0
 303 -10 242 4 190 33 c 0
 140 62 100 103 74 158 c 0
 46 212 33 277 33 353 c 0
 33 397 34 425 37 436 c 1
 556 436 l 1
 553 491 534 530 498 556 c 0
 464 580 409 593 335 593 c 0
 258 593 184 580 111 555 c 1
 81 697 l 1
 114 710 152 721 194 728 c 0
 238 736 281 740 324 740 c 0
 453 740 553 708 622 643 c 0
501 176 m 0
 530 203 547 243 553 298 c 1
 206 298 l 1
 212 243 229 203 258 176 c 0
 286 150 326 137 379 137 c 0
 432 137 472 150 501 176 c 0
EndSplineSet
EndChar

StartChar: T
Encoding: 84 84 155
Width: 644
Flags: W
LayerCount: 2
Fore
SplineSet
235 583 m 1
 27 583 l 1
 27 730 l 1
 618 730 l 1
 618 583 l 1
 409 583 l 1
 409 0 l 1
 235 0 l 1
 235 583 l 1
EndSplineSet
EndChar

StartChar: Tbar
Encoding: 358 358 156
Width: 698
Flags: W
LayerCount: 2
Fore
SplineSet
644 583 m 1
 436 583 l 1
 436 377 l 1
 593 377 l 1
 593 253 l 1
 436 253 l 1
 436 0 l 1
 262 0 l 1
 262 253 l 1
 106 253 l 1
 106 377 l 1
 262 377 l 1
 262 583 l 1
 53 583 l 1
 53 730 l 1
 644 730 l 1
 644 583 l 1
EndSplineSet
EndChar

StartChar: Tcaron
Encoding: 356 356 157
Width: 644
Flags: W
LayerCount: 2
Fore
SplineSet
235 583 m 1
 27 583 l 1
 27 730 l 1
 618 730 l 1
 618 583 l 1
 409 583 l 1
 409 0 l 1
 235 0 l 1
 235 583 l 1
69 980 m 1
 253 980 l 1
 322 833 l 1
 324 833 l 1
 393 980 l 1
 577 980 l 1
 455 770 l 1
 191 770 l 1
 69 980 l 1
EndSplineSet
EndChar

StartChar: uni0162
Encoding: 354 354 158
Width: 644
Flags: W
LayerCount: 2
Fore
SplineSet
409 583 m 1
 409 19 l 1
 445 -17 463 -54 463 -92 c 0
 463 -133 446 -164 412 -186 c 0
 377 -208 329 -219 266 -219 c 0
 220 -219 179 -212 144 -199 c 1
 160 -80 l 1
 190 -93 222 -100 255 -100 c 0
 274 -100 288 -97 298 -92 c 0
 307 -87 312 -79 312 -69 c 0
 312 -46 286 -23 235 0 c 1
 235 583 l 1
 27 583 l 1
 27 730 l 1
 618 730 l 1
 618 583 l 1
 409 583 l 1
EndSplineSet
EndChar

StartChar: uni021A
Encoding: 538 538 159
Width: 644
Flags: W
LayerCount: 2
Fore
SplineSet
235 583 m 1
 27 583 l 1
 27 730 l 1
 618 730 l 1
 618 583 l 1
 409 583 l 1
 409 0 l 1
 235 0 l 1
 235 583 l 1
337 -250 m 1
 187 -250 l 1
 259 -40 l 1
 459 -40 l 1
 337 -250 l 1
EndSplineSet
EndChar

StartChar: U
Encoding: 85 85 160
Width: 713
Flags: W
LayerCount: 2
Fore
SplineSet
138 62 m 0
 88 110 63 179 63 270 c 2
 63 730 l 1
 233 730 l 1
 233 291 l 2
 233 235 242 195 261 172 c 0
 280 149 312 137 357 137 c 0
 402 137 433 149 452 172 c 0
 471 195 480 235 480 291 c 2
 480 730 l 1
 650 730 l 1
 650 270 l 2
 650 179 625 109 575 62 c 0
 525 14 452 -10 357 -10 c 0
 262 -10 189 14 138 62 c 0
EndSplineSet
EndChar

StartChar: Uacute
Encoding: 218 218 161
Width: 713
Flags: W
LayerCount: 2
Fore
SplineSet
138 62 m 0
 88 110 63 179 63 270 c 2
 63 730 l 1
 233 730 l 1
 233 291 l 2
 233 235 242 195 261 172 c 0
 280 149 312 137 357 137 c 0
 402 137 433 149 452 172 c 0
 471 195 480 235 480 291 c 2
 480 730 l 1
 650 730 l 1
 650 270 l 2
 650 179 625 109 575 62 c 0
 525 14 452 -10 357 -10 c 0
 262 -10 189 14 138 62 c 0
397 770 m 1
 247 770 l 1
 319 980 l 1
 519 980 l 1
 397 770 l 1
EndSplineSet
EndChar

StartChar: Ubreve
Encoding: 364 364 162
Width: 713
Flags: W
LayerCount: 2
Fore
SplineSet
138 62 m 0
 88 110 63 179 63 270 c 2
 63 730 l 1
 233 730 l 1
 233 291 l 2
 233 235 242 195 261 172 c 0
 280 149 312 137 357 137 c 0
 402 137 433 149 452 172 c 0
 471 195 480 235 480 291 c 2
 480 730 l 1
 650 730 l 1
 650 270 l 2
 650 179 625 109 575 62 c 0
 525 14 452 -10 357 -10 c 0
 262 -10 189 14 138 62 c 0
236 794 m 0
 201 811 173 835 152 866 c 0
 132 897 122 932 121 971 c 1
 274 971 l 1
 277 941 286 919 299 904 c 0
 312 890 331 883 356 883 c 0
 381 883 400 890 413 904 c 0
 426 919 435 941 439 971 c 1
 591 971 l 1
 590 932 580 897 560 866 c 0
 539 835 511 811 476 794 c 0
 441 777 401 768 356 768 c 0
 311 768 271 777 236 794 c 0
EndSplineSet
EndChar

StartChar: Ucircumflex
Encoding: 219 219 163
Width: 713
Flags: W
LayerCount: 2
Fore
SplineSet
138 62 m 0
 88 110 63 179 63 270 c 2
 63 730 l 1
 233 730 l 1
 233 291 l 2
 233 235 242 195 261 172 c 0
 280 149 312 137 357 137 c 0
 402 137 433 149 452 172 c 0
 471 195 480 235 480 291 c 2
 480 730 l 1
 650 730 l 1
 650 270 l 2
 650 179 625 109 575 62 c 0
 525 14 452 -10 357 -10 c 0
 262 -10 189 14 138 62 c 0
225 980 m 1
 489 980 l 1
 611 770 l 1
 427 770 l 1
 358 917 l 1
 356 917 l 1
 287 770 l 1
 103 770 l 1
 225 980 l 1
EndSplineSet
EndChar

StartChar: uni0214
Encoding: 532 532 164
Width: 713
Flags: W
LayerCount: 2
Fore
SplineSet
138 62 m 0
 88 110 63 179 63 270 c 2
 63 730 l 1
 233 730 l 1
 233 291 l 2
 233 235 242 195 261 172 c 0
 280 149 312 137 357 137 c 0
 402 137 433 149 452 172 c 0
 471 195 480 235 480 291 c 2
 480 730 l 1
 650 730 l 1
 650 270 l 2
 650 179 625 109 575 62 c 0
 525 14 452 -10 357 -10 c 0
 262 -10 189 14 138 62 c 0
65 980 m 1
 265 980 l 1
 337 770 l 1
 187 770 l 1
 65 980 l 1
320 980 m 1
 520 980 l 1
 592 770 l 1
 442 770 l 1
 320 980 l 1
EndSplineSet
EndChar

StartChar: Udieresis
Encoding: 220 220 165
Width: 713
Flags: W
LayerCount: 2
Fore
SplineSet
138 62 m 0
 88 110 63 179 63 270 c 2
 63 730 l 1
 233 730 l 1
 233 291 l 2
 233 235 242 195 261 172 c 0
 280 149 312 137 357 137 c 0
 402 137 433 149 452 172 c 0
 471 195 480 235 480 291 c 2
 480 730 l 1
 650 730 l 1
 650 270 l 2
 650 179 625 109 575 62 c 0
 525 14 452 -10 357 -10 c 0
 262 -10 189 14 138 62 c 0
140 959 m 1
 308 959 l 1
 308 791 l 1
 140 791 l 1
 140 959 l 1
404 959 m 1
 573 959 l 1
 573 791 l 1
 404 791 l 1
 404 959 l 1
EndSplineSet
EndChar

StartChar: uni1EE4
Encoding: 7908 7908 166
Width: 713
Flags: W
LayerCount: 2
Fore
SplineSet
138 62 m 0
 88 110 63 179 63 270 c 2
 63 730 l 1
 233 730 l 1
 233 291 l 2
 233 235 242 195 261 172 c 0
 280 149 312 137 357 137 c 0
 402 137 433 149 452 172 c 0
 471 195 480 235 480 291 c 2
 480 730 l 1
 650 730 l 1
 650 270 l 2
 650 179 625 109 575 62 c 0
 525 14 452 -10 357 -10 c 0
 262 -10 189 14 138 62 c 0
273 -61 m 1
 441 -61 l 1
 441 -229 l 1
 273 -229 l 1
 273 -61 l 1
EndSplineSet
EndChar

StartChar: Ugrave
Encoding: 217 217 167
Width: 713
Flags: W
LayerCount: 2
Fore
SplineSet
138 62 m 0
 88 110 63 179 63 270 c 2
 63 730 l 1
 233 730 l 1
 233 291 l 2
 233 235 242 195 261 172 c 0
 280 149 312 137 357 137 c 0
 402 137 433 149 452 172 c 0
 471 195 480 235 480 291 c 2
 480 730 l 1
 650 730 l 1
 650 270 l 2
 650 179 625 109 575 62 c 0
 525 14 452 -10 357 -10 c 0
 262 -10 189 14 138 62 c 0
194 980 m 1
 394 980 l 1
 466 770 l 1
 316 770 l 1
 194 980 l 1
EndSplineSet
EndChar

StartChar: uni1EE6
Encoding: 7910 7910 168
Width: 713
Flags: W
LayerCount: 2
Fore
SplineSet
138 62 m 0
 88 110 63 179 63 270 c 2
 63 730 l 1
 233 730 l 1
 233 291 l 2
 233 235 242 195 261 172 c 0
 280 149 312 137 357 137 c 0
 402 137 433 149 452 172 c 0
 471 195 480 235 480 291 c 2
 480 730 l 1
 650 730 l 1
 650 270 l 2
 650 179 625 109 575 62 c 0
 525 14 452 -10 357 -10 c 0
 262 -10 189 14 138 62 c 0
384 840 m 0
 384 853 380 861 373 866 c 0
 366 870 352 872 332 872 c 0
 285 872 237 864 187 849 c 1
 174 968 l 1
 201 974 231 979 264 982 c 0
 297 986 328 988 357 988 c 0
 405 988 442 985 468 980 c 0
 494 975 512 966 524 952 c 0
 534 940 540 921 540 897 c 0
 540 879 538 859 534 836 c 0
 529 814 524 795 517 778 c 1
 373 778 l 1
 380 800 384 821 384 840 c 0
EndSplineSet
EndChar

StartChar: Uhorn
Encoding: 431 431 169
Width: 853
Flags: W
LayerCount: 2
Fore
SplineSet
872 705 m 0
 872 650 859 608 834 579 c 0
 809 550 772 535 725 535 c 0
 700 535 675 539 650 548 c 1
 650 270 l 2
 650 179 625 109 575 62 c 0
 525 14 452 -10 357 -10 c 0
 262 -10 189 14 138 62 c 0
 88 110 63 179 63 270 c 2
 63 730 l 1
 233 730 l 1
 233 291 l 2
 233 235 242 195 261 172 c 0
 280 149 312 137 357 137 c 0
 402 137 433 149 452 172 c 0
 471 195 480 235 480 291 c 2
 480 730 l 1
 650 730 l 1
 650 666 l 1
 656 664 662 663 668 663 c 0
 683 663 695 668 704 678 c 0
 713 689 717 703 717 722 c 0
 717 737 714 756 710 779 c 0
 704 802 699 822 693 837 c 1
 851 837 l 1
 865 794 872 750 872 705 c 0
EndSplineSet
EndChar

StartChar: uni1EE8
Encoding: 7912 7912 170
Width: 853
Flags: W
LayerCount: 2
Fore
SplineSet
872 705 m 0
 872 650 859 608 834 579 c 0
 809 550 772 535 725 535 c 0
 700 535 675 539 650 548 c 1
 650 270 l 2
 650 179 625 109 575 62 c 0
 525 14 452 -10 357 -10 c 0
 262 -10 189 14 138 62 c 0
 88 110 63 179 63 270 c 2
 63 730 l 1
 233 730 l 1
 233 291 l 2
 233 235 242 195 261 172 c 0
 280 149 312 137 357 137 c 0
 402 137 433 149 452 172 c 0
 471 195 480 235 480 291 c 2
 480 730 l 1
 650 730 l 1
 650 666 l 1
 656 664 662 663 668 663 c 0
 683 663 695 668 704 678 c 0
 713 689 717 703 717 722 c 0
 717 737 714 756 710 779 c 0
 704 802 699 822 693 837 c 1
 851 837 l 1
 865 794 872 750 872 705 c 0
397 770 m 1
 247 770 l 1
 319 980 l 1
 519 980 l 1
 397 770 l 1
EndSplineSet
EndChar

StartChar: uni1EF0
Encoding: 7920 7920 171
Width: 853
Flags: W
LayerCount: 2
Fore
SplineSet
872 705 m 0
 872 650 859 608 834 579 c 0
 809 550 772 535 725 535 c 0
 700 535 675 539 650 548 c 1
 650 270 l 2
 650 179 625 109 575 62 c 0
 525 14 452 -10 357 -10 c 0
 262 -10 189 14 138 62 c 0
 88 110 63 179 63 270 c 2
 63 730 l 1
 233 730 l 1
 233 291 l 2
 233 235 242 195 261 172 c 0
 280 149 312 137 357 137 c 0
 402 137 433 149 452 172 c 0
 471 195 480 235 480 291 c 2
 480 730 l 1
 650 730 l 1
 650 666 l 1
 656 664 662 663 668 663 c 0
 683 663 695 668 704 678 c 0
 713 689 717 703 717 722 c 0
 717 737 714 756 710 779 c 0
 704 802 699 822 693 837 c 1
 851 837 l 1
 865 794 872 750 872 705 c 0
273 -61 m 1
 441 -61 l 1
 441 -229 l 1
 273 -229 l 1
 273 -61 l 1
EndSplineSet
EndChar

StartChar: uni1EEA
Encoding: 7914 7914 172
Width: 853
Flags: W
LayerCount: 2
Fore
SplineSet
872 705 m 0
 872 650 859 608 834 579 c 0
 809 550 772 535 725 535 c 0
 700 535 675 539 650 548 c 1
 650 270 l 2
 650 179 625 109 575 62 c 0
 525 14 452 -10 357 -10 c 0
 262 -10 189 14 138 62 c 0
 88 110 63 179 63 270 c 2
 63 730 l 1
 233 730 l 1
 233 291 l 2
 233 235 242 195 261 172 c 0
 280 149 312 137 357 137 c 0
 402 137 433 149 452 172 c 0
 471 195 480 235 480 291 c 2
 480 730 l 1
 650 730 l 1
 650 666 l 1
 656 664 662 663 668 663 c 0
 683 663 695 668 704 678 c 0
 713 689 717 703 717 722 c 0
 717 737 714 756 710 779 c 0
 704 802 699 822 693 837 c 1
 851 837 l 1
 865 794 872 750 872 705 c 0
194 980 m 1
 394 980 l 1
 466 770 l 1
 316 770 l 1
 194 980 l 1
EndSplineSet
EndChar

StartChar: uni1EEC
Encoding: 7916 7916 173
Width: 853
Flags: W
LayerCount: 2
Fore
SplineSet
872 705 m 0
 872 650 859 608 834 579 c 0
 809 550 772 535 725 535 c 0
 700 535 675 539 650 548 c 1
 650 270 l 2
 650 179 625 109 575 62 c 0
 525 14 452 -10 357 -10 c 0
 262 -10 189 14 138 62 c 0
 88 110 63 179 63 270 c 2
 63 730 l 1
 233 730 l 1
 233 291 l 2
 233 235 242 195 261 172 c 0
 280 149 312 137 357 137 c 0
 402 137 433 149 452 172 c 0
 471 195 480 235 480 291 c 2
 480 730 l 1
 650 730 l 1
 650 666 l 1
 656 664 662 663 668 663 c 0
 683 663 695 668 704 678 c 0
 713 689 717 703 717 722 c 0
 717 737 714 756 710 779 c 0
 704 802 699 822 693 837 c 1
 851 837 l 1
 865 794 872 750 872 705 c 0
384 840 m 0
 384 853 380 861 373 866 c 0
 366 870 352 872 332 872 c 0
 285 872 237 864 187 849 c 1
 174 968 l 1
 201 974 231 979 264 982 c 0
 297 986 328 988 357 988 c 0
 405 988 442 985 468 980 c 0
 494 975 512 966 524 952 c 0
 534 940 540 921 540 897 c 0
 540 879 538 859 534 836 c 0
 529 814 524 795 517 778 c 1
 373 778 l 1
 380 800 384 821 384 840 c 0
EndSplineSet
EndChar

StartChar: uni1EEE
Encoding: 7918 7918 174
Width: 853
Flags: W
LayerCount: 2
Fore
SplineSet
872 705 m 0
 872 650 859 608 834 579 c 0
 809 550 772 535 725 535 c 0
 700 535 675 539 650 548 c 1
 650 270 l 2
 650 179 625 109 575 62 c 0
 525 14 452 -10 357 -10 c 0
 262 -10 189 14 138 62 c 0
 88 110 63 179 63 270 c 2
 63 730 l 1
 233 730 l 1
 233 291 l 2
 233 235 242 195 261 172 c 0
 280 149 312 137 357 137 c 0
 402 137 433 149 452 172 c 0
 471 195 480 235 480 291 c 2
 480 730 l 1
 650 730 l 1
 650 666 l 1
 656 664 662 663 668 663 c 0
 683 663 695 668 704 678 c 0
 713 689 717 703 717 722 c 0
 717 737 714 756 710 779 c 0
 704 802 699 822 693 837 c 1
 851 837 l 1
 865 794 872 750 872 705 c 0
339 818 m 0
 312 834 292 842 278 842 c 0
 269 842 262 838 259 829 c 0
 256 820 254 804 254 779 c 1
 122 779 l 1
 122 848 131 898 150 932 c 0
 169 964 198 981 237 981 c 0
 274 981 320 965 375 932 c 0
 402 916 422 908 435 908 c 0
 444 908 451 912 454 921 c 0
 458 930 460 946 460 971 c 1
 592 971 l 1
 592 902 582 852 564 818 c 0
 544 786 515 769 476 769 c 0
 439 769 394 785 339 818 c 0
EndSplineSet
EndChar

StartChar: Uhungarumlaut
Encoding: 368 368 175
Width: 713
Flags: W
LayerCount: 2
Fore
SplineSet
138 62 m 0
 88 110 63 179 63 270 c 2
 63 730 l 1
 233 730 l 1
 233 291 l 2
 233 235 242 195 261 172 c 0
 280 149 312 137 357 137 c 0
 402 137 433 149 452 172 c 0
 471 195 480 235 480 291 c 2
 480 730 l 1
 650 730 l 1
 650 270 l 2
 650 179 625 109 575 62 c 0
 525 14 452 -10 357 -10 c 0
 262 -10 189 14 138 62 c 0
274 770 m 1
 124 770 l 1
 196 980 l 1
 396 980 l 1
 274 770 l 1
529 770 m 1
 379 770 l 1
 451 980 l 1
 651 980 l 1
 529 770 l 1
EndSplineSet
EndChar

StartChar: uni0216
Encoding: 534 534 176
Width: 713
Flags: W
LayerCount: 2
Fore
SplineSet
138 62 m 0
 88 110 63 179 63 270 c 2
 63 730 l 1
 233 730 l 1
 233 291 l 2
 233 235 242 195 261 172 c 0
 280 149 312 137 357 137 c 0
 402 137 433 149 452 172 c 0
 471 195 480 235 480 291 c 2
 480 730 l 1
 650 730 l 1
 650 270 l 2
 650 179 625 109 575 62 c 0
 525 14 452 -10 357 -10 c 0
 262 -10 189 14 138 62 c 0
476 956 m 0
 511 939 539 915 560 884 c 0
 580 853 590 818 591 779 c 1
 439 779 l 1
 435 809 426 831 413 846 c 0
 400 860 381 867 356 867 c 0
 331 867 312 860 299 846 c 0
 286 831 277 809 274 779 c 1
 121 779 l 1
 122 818 132 853 152 884 c 0
 173 915 201 939 236 956 c 0
 271 973 311 982 356 982 c 0
 401 982 441 973 476 956 c 0
EndSplineSet
EndChar

StartChar: Umacron
Encoding: 362 362 177
Width: 713
Flags: W
LayerCount: 2
Fore
SplineSet
138 62 m 0
 88 110 63 179 63 270 c 2
 63 730 l 1
 233 730 l 1
 233 291 l 2
 233 235 242 195 261 172 c 0
 280 149 312 137 357 137 c 0
 402 137 433 149 452 172 c 0
 471 195 480 235 480 291 c 2
 480 730 l 1
 650 730 l 1
 650 270 l 2
 650 179 625 109 575 62 c 0
 525 14 452 -10 357 -10 c 0
 262 -10 189 14 138 62 c 0
154 936 m 1
 560 936 l 1
 560 814 l 1
 154 814 l 1
 154 936 l 1
EndSplineSet
EndChar

StartChar: Uogonek
Encoding: 370 370 178
Width: 713
Flags: W
LayerCount: 2
Fore
SplineSet
650 730 m 1
 650 270 l 2
 650 202 636 146 608 102 c 0
 579 57 537 26 482 8 c 1
 435 -15 411 -37 411 -59 c 0
 411 -69 416 -77 426 -82 c 0
 435 -87 449 -90 467 -90 c 0
 500 -90 532 -83 562 -70 c 1
 578 -189 l 1
 543 -202 502 -209 456 -209 c 0
 393 -209 345 -198 310 -176 c 0
 276 -154 259 -123 259 -82 c 0
 259 -55 268 -29 285 -5 c 1
 212 6 157 35 120 82 c 0
 82 129 63 191 63 270 c 2
 63 730 l 1
 233 730 l 1
 233 291 l 2
 233 235 242 195 261 172 c 0
 280 149 312 137 357 137 c 0
 402 137 433 149 452 172 c 0
 471 195 480 235 480 291 c 2
 480 730 l 1
 650 730 l 1
EndSplineSet
EndChar

StartChar: Uring
Encoding: 366 366 179
Width: 713
Flags: W
LayerCount: 2
Fore
SplineSet
138 62 m 0
 88 110 63 179 63 270 c 2
 63 730 l 1
 233 730 l 1
 233 291 l 2
 233 235 242 195 261 172 c 0
 280 149 312 137 357 137 c 0
 402 137 433 149 452 172 c 0
 471 195 480 235 480 291 c 2
 480 730 l 1
 650 730 l 1
 650 270 l 2
 650 179 625 109 575 62 c 0
 525 14 452 -10 357 -10 c 0
 262 -10 189 14 138 62 c 0
274 734 m 0
 250 749 230 768 215 794 c 0
 200 818 193 846 193 875 c 0
 193 904 200 932 215 956 c 0
 230 982 250 1001 274 1016 c 0
 300 1031 327 1038 357 1038 c 0
 386 1038 414 1031 438 1016 c 0
 464 1001 483 982 498 956 c 0
 513 932 520 904 520 875 c 0
 520 846 513 818 498 794 c 0
 483 768 464 749 438 734 c 0
 414 719 386 712 357 712 c 0
 327 712 300 719 274 734 c 0
400 832 m 0
 411 844 417 858 417 875 c 0
 417 892 411 906 400 918 c 0
 388 929 374 935 357 935 c 0
 340 935 325 929 314 918 c 0
 303 907 297 892 297 875 c 0
 297 858 303 844 314 832 c 0
 325 821 340 815 357 815 c 0
 374 815 388 821 400 832 c 0
EndSplineSet
EndChar

StartChar: Utilde
Encoding: 360 360 180
Width: 713
Flags: W
LayerCount: 2
Fore
SplineSet
138 62 m 0
 88 110 63 179 63 270 c 2
 63 730 l 1
 233 730 l 1
 233 291 l 2
 233 235 242 195 261 172 c 0
 280 149 312 137 357 137 c 0
 402 137 433 149 452 172 c 0
 471 195 480 235 480 291 c 2
 480 730 l 1
 650 730 l 1
 650 270 l 2
 650 179 625 109 575 62 c 0
 525 14 452 -10 357 -10 c 0
 262 -10 189 14 138 62 c 0
339 818 m 0
 312 834 292 842 278 842 c 0
 269 842 262 838 259 829 c 0
 256 820 254 804 254 779 c 1
 122 779 l 1
 122 848 131 898 150 932 c 0
 169 964 198 981 237 981 c 0
 274 981 320 965 375 932 c 0
 402 916 422 908 435 908 c 0
 444 908 451 912 454 921 c 0
 458 930 460 946 460 971 c 1
 592 971 l 1
 592 902 582 852 564 818 c 0
 544 786 515 769 476 769 c 0
 439 769 394 785 339 818 c 0
EndSplineSet
EndChar

StartChar: V
Encoding: 86 86 181
Width: 694
Flags: W
LayerCount: 2
Fore
SplineSet
9 730 m 1
 196 730 l 1
 346 170 l 1
 348 170 l 1
 498 730 l 1
 685 730 l 1
 458 0 l 1
 236 0 l 1
 9 730 l 1
EndSplineSet
EndChar

StartChar: W
Encoding: 87 87 182
Width: 952
Flags: W
LayerCount: 2
Fore
SplineSet
476 557 m 1
 474 557 l 1
 382 0 l 1
 183 0 l 1
 22 730 l 1
 194 730 l 1
 286 173 l 1
 288 173 l 1
 374 730 l 1
 580 730 l 1
 666 173 l 1
 668 173 l 1
 760 730 l 1
 928 730 l 1
 767 0 l 1
 568 0 l 1
 476 557 l 1
EndSplineSet
EndChar

StartChar: Wacute
Encoding: 7810 7810 183
Width: 952
Flags: W
LayerCount: 2
Fore
SplineSet
476 557 m 1
 474 557 l 1
 382 0 l 1
 183 0 l 1
 22 730 l 1
 194 730 l 1
 286 173 l 1
 288 173 l 1
 374 730 l 1
 580 730 l 1
 666 173 l 1
 668 173 l 1
 760 730 l 1
 928 730 l 1
 767 0 l 1
 568 0 l 1
 476 557 l 1
516 770 m 1
 366 770 l 1
 438 980 l 1
 638 980 l 1
 516 770 l 1
EndSplineSet
EndChar

StartChar: Wcircumflex
Encoding: 372 372 184
Width: 952
Flags: W
LayerCount: 2
Fore
SplineSet
476 557 m 1
 474 557 l 1
 382 0 l 1
 183 0 l 1
 22 730 l 1
 194 730 l 1
 286 173 l 1
 288 173 l 1
 374 730 l 1
 580 730 l 1
 666 173 l 1
 668 173 l 1
 760 730 l 1
 928 730 l 1
 767 0 l 1
 568 0 l 1
 476 557 l 1
344 980 m 1
 608 980 l 1
 730 770 l 1
 546 770 l 1
 477 917 l 1
 475 917 l 1
 406 770 l 1
 222 770 l 1
 344 980 l 1
EndSplineSet
EndChar

StartChar: Wdieresis
Encoding: 7812 7812 185
Width: 952
Flags: W
LayerCount: 2
Fore
SplineSet
476 557 m 1
 474 557 l 1
 382 0 l 1
 183 0 l 1
 22 730 l 1
 194 730 l 1
 286 173 l 1
 288 173 l 1
 374 730 l 1
 580 730 l 1
 666 173 l 1
 668 173 l 1
 760 730 l 1
 928 730 l 1
 767 0 l 1
 568 0 l 1
 476 557 l 1
259 959 m 1
 427 959 l 1
 427 791 l 1
 259 791 l 1
 259 959 l 1
523 959 m 1
 692 959 l 1
 692 791 l 1
 523 791 l 1
 523 959 l 1
EndSplineSet
EndChar

StartChar: Wgrave
Encoding: 7808 7808 186
Width: 952
Flags: W
LayerCount: 2
Fore
SplineSet
476 557 m 1
 474 557 l 1
 382 0 l 1
 183 0 l 1
 22 730 l 1
 194 730 l 1
 286 173 l 1
 288 173 l 1
 374 730 l 1
 580 730 l 1
 666 173 l 1
 668 173 l 1
 760 730 l 1
 928 730 l 1
 767 0 l 1
 568 0 l 1
 476 557 l 1
313 980 m 1
 513 980 l 1
 585 770 l 1
 435 770 l 1
 313 980 l 1
EndSplineSet
EndChar

StartChar: X
Encoding: 88 88 187
Width: 695
Flags: W
LayerCount: 2
Fore
SplineSet
220 366 m 1
 35 730 l 1
 227 730 l 1
 346 460 l 1
 348 460 l 1
 468 730 l 1
 660 730 l 1
 474 366 l 1
 661 0 l 1
 469 0 l 1
 348 271 l 1
 346 271 l 1
 226 0 l 1
 34 0 l 1
 220 366 l 1
EndSplineSet
EndChar

StartChar: Y
Encoding: 89 89 188
Width: 677
Flags: W
LayerCount: 2
Fore
SplineSet
249 278 m 1
 5 730 l 1
 194 730 l 1
 337 425 l 1
 339 425 l 1
 483 730 l 1
 672 730 l 1
 427 278 l 1
 427 0 l 1
 249 0 l 1
 249 278 l 1
EndSplineSet
EndChar

StartChar: Yacute
Encoding: 221 221 189
Width: 677
Flags: W
LayerCount: 2
Fore
SplineSet
249 278 m 1
 5 730 l 1
 194 730 l 1
 337 425 l 1
 339 425 l 1
 483 730 l 1
 672 730 l 1
 427 278 l 1
 427 0 l 1
 249 0 l 1
 249 278 l 1
379 770 m 1
 229 770 l 1
 301 980 l 1
 501 980 l 1
 379 770 l 1
EndSplineSet
EndChar

StartChar: Ycircumflex
Encoding: 374 374 190
Width: 677
Flags: W
LayerCount: 2
Fore
SplineSet
249 278 m 1
 5 730 l 1
 194 730 l 1
 337 425 l 1
 339 425 l 1
 483 730 l 1
 672 730 l 1
 427 278 l 1
 427 0 l 1
 249 0 l 1
 249 278 l 1
206 980 m 1
 470 980 l 1
 592 770 l 1
 408 770 l 1
 339 917 l 1
 337 917 l 1
 268 770 l 1
 84 770 l 1
 206 980 l 1
EndSplineSet
EndChar

StartChar: Ydieresis
Encoding: 376 376 191
Width: 677
Flags: W
LayerCount: 2
Fore
SplineSet
249 278 m 1
 5 730 l 1
 194 730 l 1
 337 425 l 1
 339 425 l 1
 483 730 l 1
 672 730 l 1
 427 278 l 1
 427 0 l 1
 249 0 l 1
 249 278 l 1
122 959 m 1
 290 959 l 1
 290 791 l 1
 122 791 l 1
 122 959 l 1
386 959 m 1
 555 959 l 1
 555 791 l 1
 386 791 l 1
 386 959 l 1
EndSplineSet
EndChar

StartChar: uni1EF4
Encoding: 7924 7924 192
Width: 677
Flags: W
LayerCount: 2
Fore
SplineSet
249 278 m 1
 5 730 l 1
 194 730 l 1
 337 425 l 1
 339 425 l 1
 483 730 l 1
 672 730 l 1
 427 278 l 1
 427 0 l 1
 249 0 l 1
 249 278 l 1
254 -61 m 1
 422 -61 l 1
 422 -229 l 1
 254 -229 l 1
 254 -61 l 1
EndSplineSet
EndChar

StartChar: Ygrave
Encoding: 7922 7922 193
Width: 677
Flags: W
LayerCount: 2
Fore
SplineSet
249 278 m 1
 5 730 l 1
 194 730 l 1
 337 425 l 1
 339 425 l 1
 483 730 l 1
 672 730 l 1
 427 278 l 1
 427 0 l 1
 249 0 l 1
 249 278 l 1
176 980 m 1
 376 980 l 1
 448 770 l 1
 298 770 l 1
 176 980 l 1
EndSplineSet
EndChar

StartChar: uni1EF6
Encoding: 7926 7926 194
Width: 677
Flags: W
LayerCount: 2
Fore
SplineSet
249 278 m 1
 5 730 l 1
 194 730 l 1
 337 425 l 1
 339 425 l 1
 483 730 l 1
 672 730 l 1
 427 278 l 1
 427 0 l 1
 249 0 l 1
 249 278 l 1
365 840 m 0
 365 853 361 861 354 866 c 0
 347 870 333 872 313 872 c 0
 266 872 218 864 168 849 c 1
 155 968 l 1
 182 974 212 979 245 982 c 0
 278 986 309 988 338 988 c 0
 386 988 423 985 449 980 c 0
 475 975 494 966 504 952 c 0
 516 940 521 921 521 897 c 0
 521 879 519 859 514 836 c 0
 510 814 505 795 498 778 c 1
 354 778 l 1
 361 800 365 821 365 840 c 0
EndSplineSet
EndChar

StartChar: uni0232
Encoding: 562 562 195
Width: 677
Flags: W
LayerCount: 2
Fore
SplineSet
249 278 m 1
 5 730 l 1
 194 730 l 1
 337 425 l 1
 339 425 l 1
 483 730 l 1
 672 730 l 1
 427 278 l 1
 427 0 l 1
 249 0 l 1
 249 278 l 1
136 936 m 1
 542 936 l 1
 542 814 l 1
 136 814 l 1
 136 936 l 1
EndSplineSet
EndChar

StartChar: uni1EF8
Encoding: 7928 7928 196
Width: 677
Flags: W
LayerCount: 2
Fore
SplineSet
249 278 m 1
 5 730 l 1
 194 730 l 1
 337 425 l 1
 339 425 l 1
 483 730 l 1
 672 730 l 1
 427 278 l 1
 427 0 l 1
 249 0 l 1
 249 278 l 1
321 818 m 0
 294 834 274 842 260 842 c 0
 251 842 244 838 241 829 c 0
 238 820 236 804 236 779 c 1
 104 779 l 1
 104 848 113 898 132 932 c 0
 151 964 180 981 219 981 c 0
 256 981 302 965 357 932 c 0
 384 916 404 908 417 908 c 0
 426 908 433 912 436 921 c 0
 440 930 442 946 442 971 c 1
 574 971 l 1
 574 902 564 852 546 818 c 0
 526 786 497 769 458 769 c 0
 421 769 376 785 321 818 c 0
EndSplineSet
EndChar

StartChar: Z
Encoding: 90 90 197
Width: 642
Flags: W
LayerCount: 2
Fore
SplineSet
56 143 m 1
 384 585 l 1
 384 587 l 1
 56 587 l 1
 56 730 l 1
 586 730 l 1
 586 587 l 1
 258 145 l 1
 258 143 l 1
 586 143 l 1
 586 0 l 1
 56 0 l 1
 56 143 l 1
EndSplineSet
EndChar

StartChar: Zacute
Encoding: 377 377 198
Width: 642
Flags: W
LayerCount: 2
Fore
SplineSet
56 143 m 1
 384 585 l 1
 384 587 l 1
 56 587 l 1
 56 730 l 1
 586 730 l 1
 586 587 l 1
 258 145 l 1
 258 143 l 1
 586 143 l 1
 586 0 l 1
 56 0 l 1
 56 143 l 1
362 770 m 1
 212 770 l 1
 284 980 l 1
 484 980 l 1
 362 770 l 1
EndSplineSet
EndChar

StartChar: Zcaron
Encoding: 381 381 199
Width: 642
Flags: W
LayerCount: 2
Fore
SplineSet
56 143 m 1
 384 585 l 1
 384 587 l 1
 56 587 l 1
 56 730 l 1
 586 730 l 1
 586 587 l 1
 258 145 l 1
 258 143 l 1
 586 143 l 1
 586 0 l 1
 56 0 l 1
 56 143 l 1
67 980 m 1
 251 980 l 1
 320 833 l 1
 322 833 l 1
 391 980 l 1
 575 980 l 1
 453 770 l 1
 189 770 l 1
 67 980 l 1
EndSplineSet
EndChar

StartChar: Zdotaccent
Encoding: 379 379 200
Width: 642
Flags: W
LayerCount: 2
Fore
SplineSet
56 143 m 1
 384 585 l 1
 384 587 l 1
 56 587 l 1
 56 730 l 1
 586 730 l 1
 586 587 l 1
 258 145 l 1
 258 143 l 1
 586 143 l 1
 586 0 l 1
 56 0 l 1
 56 143 l 1
237 959 m 1
 405 959 l 1
 405 791 l 1
 237 791 l 1
 237 959 l 1
EndSplineSet
EndChar

StartChar: a
Encoding: 97 97 201
Width: 570
Flags: W
LayerCount: 2
Fore
SplineSet
460 482 m 0
 495 450 513 397 513 322 c 2
 513 0 l 1
 355 0 l 1
 353 63 l 1
 351 63 l 1
 332 40 309 22 282 9 c 0
 254 -4 224 -10 192 -10 c 0
 142 -10 102 4 72 34 c 0
 41 62 26 101 26 148 c 0
 26 207 51 253 102 285 c 0
 153 317 224 333 317 333 c 2
 347 333 l 1
 346 362 341 382 330 392 c 0
 320 402 300 407 271 407 c 0
 208 407 144 392 78 363 c 1
 42 481 l 1
 77 497 116 509 158 518 c 0
 199 526 241 530 284 530 c 0
 366 530 425 514 460 482 c 0
318 135 m 0
 337 152 347 173 347 198 c 2
 347 234 l 1
 317 234 l 2
 225 234 179 211 179 165 c 0
 179 148 185 134 197 124 c 0
 209 114 225 109 246 109 c 0
 274 109 298 118 318 135 c 0
EndSplineSet
EndChar

StartChar: aacute
Encoding: 225 225 202
Width: 570
Flags: W
LayerCount: 2
Fore
SplineSet
460 482 m 0
 495 450 513 397 513 322 c 2
 513 0 l 1
 355 0 l 1
 353 63 l 1
 351 63 l 1
 332 40 309 22 282 9 c 0
 254 -4 224 -10 192 -10 c 0
 142 -10 102 4 72 34 c 0
 41 62 26 101 26 148 c 0
 26 207 51 253 102 285 c 0
 153 317 224 333 317 333 c 2
 347 333 l 1
 346 362 341 382 330 392 c 0
 320 402 300 407 271 407 c 0
 208 407 144 392 78 363 c 1
 42 481 l 1
 77 497 116 509 158 518 c 0
 199 526 241 530 284 530 c 0
 366 530 425 514 460 482 c 0
318 135 m 0
 337 152 347 173 347 198 c 2
 347 234 l 1
 317 234 l 2
 225 234 179 211 179 165 c 0
 179 148 185 134 197 124 c 0
 209 114 225 109 246 109 c 0
 274 109 298 118 318 135 c 0
314 560 m 1
 164 560 l 1
 236 770 l 1
 436 770 l 1
 314 560 l 1
EndSplineSet
EndChar

StartChar: abreve
Encoding: 259 259 203
Width: 570
Flags: W
LayerCount: 2
Fore
SplineSet
460 482 m 0
 495 450 513 397 513 322 c 2
 513 0 l 1
 355 0 l 1
 353 63 l 1
 351 63 l 1
 332 40 309 22 282 9 c 0
 254 -4 224 -10 192 -10 c 0
 142 -10 102 4 72 34 c 0
 41 62 26 101 26 148 c 0
 26 207 51 253 102 285 c 0
 153 317 224 333 317 333 c 2
 347 333 l 1
 346 362 341 382 330 392 c 0
 320 402 300 407 271 407 c 0
 208 407 144 392 78 363 c 1
 42 481 l 1
 77 497 116 509 158 518 c 0
 199 526 241 530 284 530 c 0
 366 530 425 514 460 482 c 0
318 135 m 0
 337 152 347 173 347 198 c 2
 347 234 l 1
 317 234 l 2
 225 234 179 211 179 165 c 0
 179 148 185 134 197 124 c 0
 209 114 225 109 246 109 c 0
 274 109 298 118 318 135 c 0
153 584 m 0
 118 601 90 625 70 656 c 0
 49 687 39 722 38 761 c 1
 191 761 l 1
 194 731 203 709 216 694 c 0
 229 680 248 673 273 673 c 0
 298 673 317 680 330 694 c 0
 343 709 352 731 356 761 c 1
 508 761 l 1
 507 722 497 687 476 656 c 0
 456 625 428 601 393 584 c 0
 358 567 318 558 273 558 c 0
 228 558 188 567 153 584 c 0
EndSplineSet
EndChar

StartChar: uni1EAF
Encoding: 7855 7855 204
Width: 570
Flags: W
LayerCount: 2
Fore
SplineSet
153 584 m 0
 118 601 90 625 70 656 c 0
 49 687 39 722 38 761 c 1
 168 761 l 1
 236 960 l 1
 436 960 l 1
 314 750 l 1
 193 750 l 1
 201 699 228 673 273 673 c 0
 298 673 317 680 330 694 c 0
 343 709 352 731 356 761 c 1
 508 761 l 1
 507 722 497 687 476 656 c 0
 456 625 428 601 393 584 c 0
 358 567 318 558 273 558 c 0
 228 558 188 567 153 584 c 0
460 482 m 0
 495 450 513 397 513 322 c 2
 513 0 l 1
 355 0 l 1
 353 63 l 1
 351 63 l 1
 332 40 309 22 282 9 c 0
 254 -4 224 -10 192 -10 c 0
 142 -10 102 4 72 34 c 0
 41 62 26 101 26 148 c 0
 26 207 51 253 102 285 c 0
 153 317 224 333 317 333 c 2
 347 333 l 1
 346 362 341 382 330 392 c 0
 320 402 300 407 271 407 c 0
 208 407 144 392 78 363 c 1
 42 481 l 1
 77 497 116 509 158 518 c 0
 199 526 241 530 284 530 c 0
 366 530 425 514 460 482 c 0
318 135 m 0
 337 152 347 173 347 198 c 2
 347 234 l 1
 317 234 l 2
 225 234 179 211 179 165 c 0
 179 148 185 134 197 124 c 0
 209 114 225 109 246 109 c 0
 274 109 298 118 318 135 c 0
EndSplineSet
EndChar

StartChar: uni1EB7
Encoding: 7863 7863 205
Width: 570
Flags: W
LayerCount: 2
Fore
SplineSet
460 482 m 0
 495 450 513 397 513 322 c 2
 513 0 l 1
 355 0 l 1
 353 63 l 1
 351 63 l 1
 332 40 309 22 282 9 c 0
 254 -4 224 -10 192 -10 c 0
 142 -10 102 4 72 34 c 0
 41 62 26 101 26 148 c 0
 26 207 51 253 102 285 c 0
 153 317 224 333 317 333 c 2
 347 333 l 1
 346 362 341 382 330 392 c 0
 320 402 300 407 271 407 c 0
 208 407 144 392 78 363 c 1
 42 481 l 1
 77 497 116 509 158 518 c 0
 199 526 241 530 284 530 c 0
 366 530 425 514 460 482 c 0
318 135 m 0
 337 152 347 173 347 198 c 2
 347 234 l 1
 317 234 l 2
 225 234 179 211 179 165 c 0
 179 148 185 134 197 124 c 0
 209 114 225 109 246 109 c 0
 274 109 298 118 318 135 c 0
189 -61 m 1
 357 -61 l 1
 357 -229 l 1
 189 -229 l 1
 189 -61 l 1
153 584 m 0
 118 601 90 625 70 656 c 0
 49 687 39 722 38 761 c 1
 191 761 l 1
 194 731 203 709 216 694 c 0
 229 680 248 673 273 673 c 0
 298 673 317 680 330 694 c 0
 343 709 352 731 356 761 c 1
 508 761 l 1
 507 722 497 687 476 656 c 0
 456 625 428 601 393 584 c 0
 358 567 318 558 273 558 c 0
 228 558 188 567 153 584 c 0
EndSplineSet
EndChar

StartChar: uni1EB1
Encoding: 7857 7857 206
Width: 570
Flags: W
LayerCount: 2
Fore
SplineSet
327 692 m 0
 340 705 349 724 354 750 c 1
 233 750 l 1
 111 960 l 1
 311 960 l 1
 379 761 l 1
 508 761 l 1
 507 722 497 687 476 656 c 0
 456 625 428 601 393 584 c 0
 358 567 318 558 273 558 c 0
 228 558 188 567 153 584 c 0
 118 601 90 625 70 656 c 0
 49 687 39 722 38 761 c 1
 191 761 l 1
 194 731 203 709 216 694 c 0
 229 680 248 673 273 673 c 0
 296 673 314 679 327 692 c 0
460 482 m 0
 495 450 513 397 513 322 c 2
 513 0 l 1
 355 0 l 1
 353 63 l 1
 351 63 l 1
 332 40 309 22 282 9 c 0
 254 -4 224 -10 192 -10 c 0
 142 -10 102 4 72 34 c 0
 41 62 26 101 26 148 c 0
 26 207 51 253 102 285 c 0
 153 317 224 333 317 333 c 2
 347 333 l 1
 346 362 341 382 330 392 c 0
 320 402 300 407 271 407 c 0
 208 407 144 392 78 363 c 1
 42 481 l 1
 77 497 116 509 158 518 c 0
 199 526 241 530 284 530 c 0
 366 530 425 514 460 482 c 0
318 135 m 0
 337 152 347 173 347 198 c 2
 347 234 l 1
 317 234 l 2
 225 234 179 211 179 165 c 0
 179 148 185 134 197 124 c 0
 209 114 225 109 246 109 c 0
 274 109 298 118 318 135 c 0
EndSplineSet
EndChar

StartChar: uni1EB3
Encoding: 7859 7859 207
Width: 570
Flags: W
LayerCount: 2
Fore
SplineSet
328 692 m 0
 340 705 349 724 354 751 c 1
 289 751 l 1
 296 773 300 794 300 813 c 0
 300 826 296 834 289 838 c 0
 282 843 268 845 248 845 c 0
 201 845 153 837 103 822 c 1
 90 941 l 1
 117 947 147 952 180 956 c 0
 213 959 244 961 273 961 c 0
 321 961 358 958 384 953 c 0
 410 948 428 938 440 926 c 0
 450 912 456 894 456 870 c 0
 456 853 454 835 451 815 c 0
 448 795 443 777 437 761 c 1
 508 761 l 1
 507 722 497 687 476 656 c 0
 456 625 428 601 393 584 c 0
 358 567 318 558 273 558 c 0
 228 558 188 567 153 584 c 0
 118 601 90 625 70 656 c 0
 49 687 39 722 38 761 c 1
 191 761 l 1
 194 731 203 709 216 694 c 0
 229 680 248 673 273 673 c 0
 296 673 314 679 328 692 c 0
460 482 m 0
 495 450 513 397 513 322 c 2
 513 0 l 1
 355 0 l 1
 353 63 l 1
 351 63 l 1
 332 40 309 22 282 9 c 0
 254 -4 224 -10 192 -10 c 0
 142 -10 102 4 72 34 c 0
 41 62 26 101 26 148 c 0
 26 207 51 253 102 285 c 0
 153 317 224 333 317 333 c 2
 347 333 l 1
 346 362 341 382 330 392 c 0
 320 402 300 407 271 407 c 0
 208 407 144 392 78 363 c 1
 42 481 l 1
 77 497 116 509 158 518 c 0
 199 526 241 530 284 530 c 0
 366 530 425 514 460 482 c 0
318 135 m 0
 337 152 347 173 347 198 c 2
 347 234 l 1
 317 234 l 2
 225 234 179 211 179 165 c 0
 179 148 185 134 197 124 c 0
 209 114 225 109 246 109 c 0
 274 109 298 118 318 135 c 0
EndSplineSet
EndChar

StartChar: uni1EB5
Encoding: 7861 7861 208
Width: 570
Flags: W
LayerCount: 2
Fore
SplineSet
460 482 m 0
 495 450 513 397 513 322 c 2
 513 0 l 1
 355 0 l 1
 353 63 l 1
 351 63 l 1
 332 40 309 22 282 9 c 0
 254 -4 224 -10 192 -10 c 0
 142 -10 102 4 72 34 c 0
 41 62 26 101 26 148 c 0
 26 207 51 253 102 285 c 0
 153 317 224 333 317 333 c 2
 347 333 l 1
 346 362 341 382 330 392 c 0
 320 402 300 407 271 407 c 0
 208 407 144 392 78 363 c 1
 42 481 l 1
 77 497 116 509 158 518 c 0
 199 526 241 530 284 530 c 0
 366 530 425 514 460 482 c 0
318 135 m 0
 337 152 347 173 347 198 c 2
 347 234 l 1
 317 234 l 2
 225 234 179 211 179 165 c 0
 179 148 185 134 197 124 c 0
 209 114 225 109 246 109 c 0
 274 109 298 118 318 135 c 0
153 584 m 0
 118 601 90 625 70 656 c 0
 49 687 39 722 38 761 c 1
 191 761 l 1
 194 731 203 709 216 694 c 0
 229 680 248 673 273 673 c 0
 298 673 317 680 330 694 c 0
 343 709 352 731 356 761 c 1
 508 761 l 1
 507 722 497 687 476 656 c 0
 456 625 428 601 393 584 c 0
 358 567 318 558 273 558 c 0
 228 558 188 567 153 584 c 0
256 845 m 0
 229 861 209 869 195 869 c 0
 186 869 179 865 176 856 c 0
 173 847 171 831 171 806 c 1
 39 806 l 1
 39 875 48 926 67 958 c 0
 86 992 115 1008 154 1008 c 0
 191 1008 237 992 292 959 c 0
 319 943 339 935 352 935 c 0
 361 935 368 939 372 948 c 0
 375 957 377 973 377 998 c 1
 509 998 l 1
 509 929 500 878 480 846 c 0
 462 812 432 796 393 796 c 0
 356 796 311 812 256 845 c 0
EndSplineSet
EndChar

StartChar: acircumflex
Encoding: 226 226 209
Width: 570
Flags: W
LayerCount: 2
Fore
SplineSet
460 482 m 0
 495 450 513 397 513 322 c 2
 513 0 l 1
 355 0 l 1
 353 63 l 1
 351 63 l 1
 332 40 309 22 282 9 c 0
 254 -4 224 -10 192 -10 c 0
 142 -10 102 4 72 34 c 0
 41 62 26 101 26 148 c 0
 26 207 51 253 102 285 c 0
 153 317 224 333 317 333 c 2
 347 333 l 1
 346 362 341 382 330 392 c 0
 320 402 300 407 271 407 c 0
 208 407 144 392 78 363 c 1
 42 481 l 1
 77 497 116 509 158 518 c 0
 199 526 241 530 284 530 c 0
 366 530 425 514 460 482 c 0
318 135 m 0
 337 152 347 173 347 198 c 2
 347 234 l 1
 317 234 l 2
 225 234 179 211 179 165 c 0
 179 148 185 134 197 124 c 0
 209 114 225 109 246 109 c 0
 274 109 298 118 318 135 c 0
141 770 m 1
 405 770 l 1
 527 560 l 1
 343 560 l 1
 274 707 l 1
 272 707 l 1
 203 560 l 1
 19 560 l 1
 141 770 l 1
EndSplineSet
EndChar

StartChar: uni1EA5
Encoding: 7845 7845 210
Width: 570
Flags: W
LayerCount: 2
Fore
SplineSet
652 950 m 1
 530 740 l 1
 422 740 l 1
 527 560 l 1
 343 560 l 1
 274 707 l 1
 272 707 l 1
 203 560 l 1
 19 560 l 1
 141 770 l 1
 390 770 l 1
 452 950 l 1
 652 950 l 1
460 482 m 0
 495 450 513 397 513 322 c 2
 513 0 l 1
 355 0 l 1
 353 63 l 1
 351 63 l 1
 332 40 309 22 282 9 c 0
 254 -4 224 -10 192 -10 c 0
 142 -10 102 4 72 34 c 0
 41 62 26 101 26 148 c 0
 26 207 51 253 102 285 c 0
 153 317 224 333 317 333 c 2
 347 333 l 1
 346 362 341 382 330 392 c 0
 320 402 300 407 271 407 c 0
 208 407 144 392 78 363 c 1
 42 481 l 1
 77 497 116 509 158 518 c 0
 199 526 241 530 284 530 c 0
 366 530 425 514 460 482 c 0
318 135 m 0
 337 152 347 173 347 198 c 2
 347 234 l 1
 317 234 l 2
 225 234 179 211 179 165 c 0
 179 148 185 134 197 124 c 0
 209 114 225 109 246 109 c 0
 274 109 298 118 318 135 c 0
EndSplineSet
EndChar

StartChar: uni1EAD
Encoding: 7853 7853 211
Width: 570
Flags: W
LayerCount: 2
Fore
SplineSet
460 482 m 0
 495 450 513 397 513 322 c 2
 513 0 l 1
 355 0 l 1
 353 63 l 1
 351 63 l 1
 332 40 309 22 282 9 c 0
 254 -4 224 -10 192 -10 c 0
 142 -10 102 4 72 34 c 0
 41 62 26 101 26 148 c 0
 26 207 51 253 102 285 c 0
 153 317 224 333 317 333 c 2
 347 333 l 1
 346 362 341 382 330 392 c 0
 320 402 300 407 271 407 c 0
 208 407 144 392 78 363 c 1
 42 481 l 1
 77 497 116 509 158 518 c 0
 199 526 241 530 284 530 c 0
 366 530 425 514 460 482 c 0
318 135 m 0
 337 152 347 173 347 198 c 2
 347 234 l 1
 317 234 l 2
 225 234 179 211 179 165 c 0
 179 148 185 134 197 124 c 0
 209 114 225 109 246 109 c 0
 274 109 298 118 318 135 c 0
189 -61 m 1
 357 -61 l 1
 357 -229 l 1
 189 -229 l 1
 189 -61 l 1
141 770 m 1
 405 770 l 1
 527 560 l 1
 343 560 l 1
 274 707 l 1
 272 707 l 1
 203 560 l 1
 19 560 l 1
 141 770 l 1
EndSplineSet
EndChar

StartChar: uni1EA7
Encoding: 7847 7847 212
Width: 570
Flags: W
LayerCount: 2
Fore
SplineSet
203 560 m 1
 19 560 l 1
 124 740 l 1
 17 740 l 1
 -105 950 l 1
 95 950 l 1
 157 770 l 1
 405 770 l 1
 527 560 l 1
 343 560 l 1
 274 707 l 1
 272 707 l 1
 203 560 l 1
460 482 m 0
 495 450 513 397 513 322 c 2
 513 0 l 1
 355 0 l 1
 353 63 l 1
 351 63 l 1
 332 40 309 22 282 9 c 0
 254 -4 224 -10 192 -10 c 0
 142 -10 102 4 72 34 c 0
 41 62 26 101 26 148 c 0
 26 207 51 253 102 285 c 0
 153 317 224 333 317 333 c 2
 347 333 l 1
 346 362 341 382 330 392 c 0
 320 402 300 407 271 407 c 0
 208 407 144 392 78 363 c 1
 42 481 l 1
 77 497 116 509 158 518 c 0
 199 526 241 530 284 530 c 0
 366 530 425 514 460 482 c 0
318 135 m 0
 337 152 347 173 347 198 c 2
 347 234 l 1
 317 234 l 2
 225 234 179 211 179 165 c 0
 179 148 185 134 197 124 c 0
 209 114 225 109 246 109 c 0
 274 109 298 118 318 135 c 0
EndSplineSet
EndChar

StartChar: uni1EA9
Encoding: 7849 7849 213
Width: 570
Flags: W
LayerCount: 2
Fore
SplineSet
422 740 m 1
 527 560 l 1
 343 560 l 1
 274 707 l 1
 272 707 l 1
 203 560 l 1
 19 560 l 1
 141 770 l 1
 390 770 l 1
 392 782 393 793 393 802 c 0
 393 815 389 823 382 828 c 0
 375 832 361 834 341 834 c 0
 294 834 246 826 196 811 c 1
 183 930 l 1
 210 936 240 941 273 944 c 0
 306 948 337 950 366 950 c 0
 414 950 451 947 477 942 c 0
 503 937 522 928 532 914 c 0
 544 902 549 883 549 859 c 0
 549 841 547 821 542 798 c 0
 538 776 533 757 526 740 c 1
 422 740 l 1
460 482 m 0
 495 450 513 397 513 322 c 2
 513 0 l 1
 355 0 l 1
 353 63 l 1
 351 63 l 1
 332 40 309 22 282 9 c 0
 254 -4 224 -10 192 -10 c 0
 142 -10 102 4 72 34 c 0
 41 62 26 101 26 148 c 0
 26 207 51 253 102 285 c 0
 153 317 224 333 317 333 c 2
 347 333 l 1
 346 362 341 382 330 392 c 0
 320 402 300 407 271 407 c 0
 208 407 144 392 78 363 c 1
 42 481 l 1
 77 497 116 509 158 518 c 0
 199 526 241 530 284 530 c 0
 366 530 425 514 460 482 c 0
318 135 m 0
 337 152 347 173 347 198 c 2
 347 234 l 1
 317 234 l 2
 225 234 179 211 179 165 c 0
 179 148 185 134 197 124 c 0
 209 114 225 109 246 109 c 0
 274 109 298 118 318 135 c 0
EndSplineSet
EndChar

StartChar: uni1EAB
Encoding: 7851 7851 214
Width: 570
Flags: W
LayerCount: 2
Fore
SplineSet
460 482 m 0
 495 450 513 397 513 322 c 2
 513 0 l 1
 355 0 l 1
 353 63 l 1
 351 63 l 1
 332 40 309 22 282 9 c 0
 254 -4 224 -10 192 -10 c 0
 142 -10 102 4 72 34 c 0
 41 62 26 101 26 148 c 0
 26 207 51 253 102 285 c 0
 153 317 224 333 317 333 c 2
 347 333 l 1
 346 362 341 382 330 392 c 0
 320 402 300 407 271 407 c 0
 208 407 144 392 78 363 c 1
 42 481 l 1
 77 497 116 509 158 518 c 0
 199 526 241 530 284 530 c 0
 366 530 425 514 460 482 c 0
318 135 m 0
 337 152 347 173 347 198 c 2
 347 234 l 1
 317 234 l 2
 225 234 179 211 179 165 c 0
 179 148 185 134 197 124 c 0
 209 114 225 109 246 109 c 0
 274 109 298 118 318 135 c 0
141 770 m 1
 405 770 l 1
 527 560 l 1
 343 560 l 1
 274 707 l 1
 272 707 l 1
 203 560 l 1
 19 560 l 1
 141 770 l 1
256 845 m 0
 229 861 209 869 195 869 c 0
 186 869 179 865 176 856 c 0
 173 847 171 831 171 806 c 1
 39 806 l 1
 39 875 48 926 67 958 c 0
 86 992 115 1008 154 1008 c 0
 191 1008 237 992 292 959 c 0
 319 943 339 935 352 935 c 0
 361 935 368 939 372 948 c 0
 375 957 377 973 377 998 c 1
 509 998 l 1
 509 929 500 878 480 846 c 0
 462 812 432 796 393 796 c 0
 356 796 311 812 256 845 c 0
EndSplineSet
EndChar

StartChar: uni0201
Encoding: 513 513 215
Width: 570
Flags: W
LayerCount: 2
Fore
SplineSet
460 482 m 0
 495 450 513 397 513 322 c 2
 513 0 l 1
 355 0 l 1
 353 63 l 1
 351 63 l 1
 332 40 309 22 282 9 c 0
 254 -4 224 -10 192 -10 c 0
 142 -10 102 4 72 34 c 0
 41 62 26 101 26 148 c 0
 26 207 51 253 102 285 c 0
 153 317 224 333 317 333 c 2
 347 333 l 1
 346 362 341 382 330 392 c 0
 320 402 300 407 271 407 c 0
 208 407 144 392 78 363 c 1
 42 481 l 1
 77 497 116 509 158 518 c 0
 199 526 241 530 284 530 c 0
 366 530 425 514 460 482 c 0
318 135 m 0
 337 152 347 173 347 198 c 2
 347 234 l 1
 317 234 l 2
 225 234 179 211 179 165 c 0
 179 148 185 134 197 124 c 0
 209 114 225 109 246 109 c 0
 274 109 298 118 318 135 c 0
-18 770 m 1
 182 770 l 1
 254 560 l 1
 104 560 l 1
 -18 770 l 1
237 770 m 1
 437 770 l 1
 509 560 l 1
 359 560 l 1
 237 770 l 1
EndSplineSet
EndChar

StartChar: adieresis
Encoding: 228 228 216
Width: 570
Flags: W
LayerCount: 2
Fore
SplineSet
460 482 m 0
 495 450 513 397 513 322 c 2
 513 0 l 1
 355 0 l 1
 353 63 l 1
 351 63 l 1
 332 40 309 22 282 9 c 0
 254 -4 224 -10 192 -10 c 0
 142 -10 102 4 72 34 c 0
 41 62 26 101 26 148 c 0
 26 207 51 253 102 285 c 0
 153 317 224 333 317 333 c 2
 347 333 l 1
 346 362 341 382 330 392 c 0
 320 402 300 407 271 407 c 0
 208 407 144 392 78 363 c 1
 42 481 l 1
 77 497 116 509 158 518 c 0
 199 526 241 530 284 530 c 0
 366 530 425 514 460 482 c 0
318 135 m 0
 337 152 347 173 347 198 c 2
 347 234 l 1
 317 234 l 2
 225 234 179 211 179 165 c 0
 179 148 185 134 197 124 c 0
 209 114 225 109 246 109 c 0
 274 109 298 118 318 135 c 0
57 749 m 1
 225 749 l 1
 225 581 l 1
 57 581 l 1
 57 749 l 1
321 749 m 1
 490 749 l 1
 490 581 l 1
 321 581 l 1
 321 749 l 1
EndSplineSet
EndChar

StartChar: uni1EA1
Encoding: 7841 7841 217
Width: 570
Flags: W
LayerCount: 2
Fore
SplineSet
460 482 m 0
 495 450 513 397 513 322 c 2
 513 0 l 1
 355 0 l 1
 353 63 l 1
 351 63 l 1
 332 40 309 22 282 9 c 0
 254 -4 224 -10 192 -10 c 0
 142 -10 102 4 72 34 c 0
 41 62 26 101 26 148 c 0
 26 207 51 253 102 285 c 0
 153 317 224 333 317 333 c 2
 347 333 l 1
 346 362 341 382 330 392 c 0
 320 402 300 407 271 407 c 0
 208 407 144 392 78 363 c 1
 42 481 l 1
 77 497 116 509 158 518 c 0
 199 526 241 530 284 530 c 0
 366 530 425 514 460 482 c 0
318 135 m 0
 337 152 347 173 347 198 c 2
 347 234 l 1
 317 234 l 2
 225 234 179 211 179 165 c 0
 179 148 185 134 197 124 c 0
 209 114 225 109 246 109 c 0
 274 109 298 118 318 135 c 0
189 -61 m 1
 357 -61 l 1
 357 -229 l 1
 189 -229 l 1
 189 -61 l 1
EndSplineSet
EndChar

StartChar: agrave
Encoding: 224 224 218
Width: 570
Flags: W
LayerCount: 2
Fore
SplineSet
460 482 m 0
 495 450 513 397 513 322 c 2
 513 0 l 1
 355 0 l 1
 353 63 l 1
 351 63 l 1
 332 40 309 22 282 9 c 0
 254 -4 224 -10 192 -10 c 0
 142 -10 102 4 72 34 c 0
 41 62 26 101 26 148 c 0
 26 207 51 253 102 285 c 0
 153 317 224 333 317 333 c 2
 347 333 l 1
 346 362 341 382 330 392 c 0
 320 402 300 407 271 407 c 0
 208 407 144 392 78 363 c 1
 42 481 l 1
 77 497 116 509 158 518 c 0
 199 526 241 530 284 530 c 0
 366 530 425 514 460 482 c 0
318 135 m 0
 337 152 347 173 347 198 c 2
 347 234 l 1
 317 234 l 2
 225 234 179 211 179 165 c 0
 179 148 185 134 197 124 c 0
 209 114 225 109 246 109 c 0
 274 109 298 118 318 135 c 0
111 770 m 1
 311 770 l 1
 383 560 l 1
 233 560 l 1
 111 770 l 1
EndSplineSet
EndChar

StartChar: uni1EA3
Encoding: 7843 7843 219
Width: 570
Flags: W
LayerCount: 2
Fore
SplineSet
460 482 m 0
 495 450 513 397 513 322 c 2
 513 0 l 1
 355 0 l 1
 353 63 l 1
 351 63 l 1
 332 40 309 22 282 9 c 0
 254 -4 224 -10 192 -10 c 0
 142 -10 102 4 72 34 c 0
 41 62 26 101 26 148 c 0
 26 207 51 253 102 285 c 0
 153 317 224 333 317 333 c 2
 347 333 l 1
 346 362 341 382 330 392 c 0
 320 402 300 407 271 407 c 0
 208 407 144 392 78 363 c 1
 42 481 l 1
 77 497 116 509 158 518 c 0
 199 526 241 530 284 530 c 0
 366 530 425 514 460 482 c 0
318 135 m 0
 337 152 347 173 347 198 c 2
 347 234 l 1
 317 234 l 2
 225 234 179 211 179 165 c 0
 179 148 185 134 197 124 c 0
 209 114 225 109 246 109 c 0
 274 109 298 118 318 135 c 0
300 630 m 0
 300 643 296 651 289 656 c 0
 282 660 268 662 248 662 c 0
 201 662 153 654 103 639 c 1
 90 758 l 1
 117 764 147 769 180 772 c 0
 213 776 244 778 273 778 c 0
 321 778 358 775 384 770 c 0
 410 765 428 756 440 742 c 0
 450 730 456 711 456 687 c 0
 456 669 454 649 450 626 c 0
 445 604 440 585 433 568 c 1
 289 568 l 1
 296 590 300 611 300 630 c 0
EndSplineSet
EndChar

StartChar: uni0203
Encoding: 515 515 220
Width: 570
Flags: W
LayerCount: 2
Fore
SplineSet
460 482 m 0
 495 450 513 397 513 322 c 2
 513 0 l 1
 355 0 l 1
 353 63 l 1
 351 63 l 1
 332 40 309 22 282 9 c 0
 254 -4 224 -10 192 -10 c 0
 142 -10 102 4 72 34 c 0
 41 62 26 101 26 148 c 0
 26 207 51 253 102 285 c 0
 153 317 224 333 317 333 c 2
 347 333 l 1
 346 362 341 382 330 392 c 0
 320 402 300 407 271 407 c 0
 208 407 144 392 78 363 c 1
 42 481 l 1
 77 497 116 509 158 518 c 0
 199 526 241 530 284 530 c 0
 366 530 425 514 460 482 c 0
318 135 m 0
 337 152 347 173 347 198 c 2
 347 234 l 1
 317 234 l 2
 225 234 179 211 179 165 c 0
 179 148 185 134 197 124 c 0
 209 114 225 109 246 109 c 0
 274 109 298 118 318 135 c 0
393 746 m 0
 428 729 456 705 476 674 c 0
 497 643 507 608 508 569 c 1
 356 569 l 1
 352 599 343 621 330 636 c 0
 317 650 298 657 273 657 c 0
 248 657 229 650 216 636 c 0
 203 621 194 599 191 569 c 1
 38 569 l 1
 39 608 49 643 70 674 c 0
 90 705 118 729 153 746 c 0
 188 763 228 772 273 772 c 0
 318 772 358 763 393 746 c 0
EndSplineSet
EndChar

StartChar: amacron
Encoding: 257 257 221
Width: 570
Flags: W
LayerCount: 2
Fore
SplineSet
460 482 m 0
 495 450 513 397 513 322 c 2
 513 0 l 1
 355 0 l 1
 353 63 l 1
 351 63 l 1
 332 40 309 22 282 9 c 0
 254 -4 224 -10 192 -10 c 0
 142 -10 102 4 72 34 c 0
 41 62 26 101 26 148 c 0
 26 207 51 253 102 285 c 0
 153 317 224 333 317 333 c 2
 347 333 l 1
 346 362 341 382 330 392 c 0
 320 402 300 407 271 407 c 0
 208 407 144 392 78 363 c 1
 42 481 l 1
 77 497 116 509 158 518 c 0
 199 526 241 530 284 530 c 0
 366 530 425 514 460 482 c 0
318 135 m 0
 337 152 347 173 347 198 c 2
 347 234 l 1
 317 234 l 2
 225 234 179 211 179 165 c 0
 179 148 185 134 197 124 c 0
 209 114 225 109 246 109 c 0
 274 109 298 118 318 135 c 0
71 726 m 1
 477 726 l 1
 477 604 l 1
 71 604 l 1
 71 726 l 1
EndSplineSet
EndChar

StartChar: aogonek
Encoding: 261 261 222
Width: 570
Flags: W
LayerCount: 2
Fore
SplineSet
604 -199 m 1
 569 -212 528 -219 482 -219 c 0
 419 -219 371 -208 336 -186 c 0
 302 -164 285 -133 285 -92 c 0
 285 -70 290 -49 302 -30 c 0
 312 -10 330 11 354 33 c 1
 353 63 l 1
 351 63 l 1
 332 40 309 22 282 9 c 0
 254 -4 224 -10 192 -10 c 0
 142 -10 102 4 72 34 c 0
 41 62 26 101 26 148 c 0
 26 207 51 253 102 285 c 0
 153 317 224 333 317 333 c 2
 347 333 l 1
 346 362 341 382 330 392 c 0
 320 402 300 407 271 407 c 0
 208 407 144 392 78 363 c 1
 42 481 l 1
 77 497 116 509 158 518 c 0
 199 526 241 530 284 530 c 0
 366 530 425 514 460 482 c 0
 495 450 513 397 513 322 c 2
 513 0 l 1
 462 -23 437 -46 437 -69 c 0
 437 -79 442 -87 452 -92 c 0
 461 -97 475 -100 493 -100 c 0
 526 -100 558 -93 588 -80 c 1
 604 -199 l 1
318 135 m 0
 337 152 347 173 347 198 c 2
 347 234 l 1
 317 234 l 2
 225 234 179 211 179 165 c 0
 179 148 185 134 197 124 c 0
 209 114 225 109 246 109 c 0
 274 109 298 118 318 135 c 0
EndSplineSet
EndChar

StartChar: aring
Encoding: 229 229 223
Width: 570
Flags: W
LayerCount: 2
Fore
SplineSet
476 464 m 0
 501 432 513 385 513 322 c 2
 513 0 l 1
 355 0 l 1
 353 63 l 1
 351 63 l 1
 332 40 309 22 282 9 c 0
 254 -4 224 -10 192 -10 c 0
 142 -10 102 4 72 34 c 0
 41 62 26 101 26 148 c 0
 26 207 51 253 102 285 c 0
 153 317 224 333 317 333 c 2
 347 333 l 1
 346 362 341 382 330 392 c 0
 320 402 300 407 271 407 c 0
 208 407 144 392 78 363 c 1
 42 481 l 1
 89 502 139 516 192 523 c 1
 167 538 147 558 132 582 c 0
 117 608 110 635 110 665 c 0
 110 694 117 722 132 746 c 0
 147 772 166 791 192 806 c 0
 216 821 244 828 274 828 c 0
 303 828 330 821 356 806 c 0
 380 791 400 772 415 746 c 0
 430 722 437 694 437 665 c 0
 437 636 430 608 416 584 c 0
 401 558 382 539 358 525 c 1
 413 516 452 496 476 464 c 0
232 708 m 0
 220 697 214 682 214 665 c 0
 214 648 220 634 232 622 c 0
 243 611 257 605 274 605 c 0
 291 605 305 611 316 622 c 0
 328 634 334 648 334 665 c 0
 334 682 328 696 316 708 c 0
 305 719 291 725 274 725 c 0
 257 725 243 719 232 708 c 0
318 135 m 0
 337 152 347 173 347 198 c 2
 347 234 l 1
 317 234 l 2
 225 234 179 211 179 165 c 0
 179 148 185 134 197 124 c 0
 209 114 225 109 246 109 c 0
 274 109 298 118 318 135 c 0
EndSplineSet
EndChar

StartChar: aringacute
Encoding: 507 507 224
Width: 570
Flags: W
LayerCount: 2
Fore
SplineSet
476 464 m 0
 501 432 513 385 513 322 c 2
 513 0 l 1
 355 0 l 1
 353 63 l 1
 351 63 l 1
 332 40 309 22 282 9 c 0
 254 -4 224 -10 192 -10 c 0
 142 -10 102 4 72 34 c 0
 41 62 26 101 26 148 c 0
 26 207 51 253 102 285 c 0
 153 317 224 333 317 333 c 2
 347 333 l 1
 346 362 341 382 330 392 c 0
 320 402 300 407 271 407 c 0
 208 407 144 392 78 363 c 1
 42 481 l 1
 89 502 139 516 192 523 c 1
 167 538 147 558 132 582 c 0
 117 608 110 635 110 665 c 0
 110 689 115 712 124 732 c 0
 134 754 148 772 165 787 c 1
 236 993 l 1
 436 993 l 1
 334 817 l 1
 365 805 390 785 408 758 c 0
 428 730 437 699 437 665 c 0
 437 636 430 608 416 584 c 0
 401 558 382 539 358 525 c 1
 413 516 452 496 476 464 c 0
316 622 m 0
 328 634 334 648 334 665 c 0
 334 682 328 696 316 708 c 0
 305 719 291 725 274 725 c 0
 257 725 243 719 232 708 c 0
 220 697 214 682 214 665 c 0
 214 648 220 634 232 622 c 0
 243 611 257 605 274 605 c 0
 291 605 305 611 316 622 c 0
318 135 m 0
 337 152 347 173 347 198 c 2
 347 234 l 1
 317 234 l 2
 225 234 179 211 179 165 c 0
 179 148 185 134 197 124 c 0
 209 114 225 109 246 109 c 0
 274 109 298 118 318 135 c 0
EndSplineSet
EndChar

StartChar: atilde
Encoding: 227 227 225
Width: 570
Flags: W
LayerCount: 2
Fore
SplineSet
460 482 m 0
 495 450 513 397 513 322 c 2
 513 0 l 1
 355 0 l 1
 353 63 l 1
 351 63 l 1
 332 40 309 22 282 9 c 0
 254 -4 224 -10 192 -10 c 0
 142 -10 102 4 72 34 c 0
 41 62 26 101 26 148 c 0
 26 207 51 253 102 285 c 0
 153 317 224 333 317 333 c 2
 347 333 l 1
 346 362 341 382 330 392 c 0
 320 402 300 407 271 407 c 0
 208 407 144 392 78 363 c 1
 42 481 l 1
 77 497 116 509 158 518 c 0
 199 526 241 530 284 530 c 0
 366 530 425 514 460 482 c 0
318 135 m 0
 337 152 347 173 347 198 c 2
 347 234 l 1
 317 234 l 2
 225 234 179 211 179 165 c 0
 179 148 185 134 197 124 c 0
 209 114 225 109 246 109 c 0
 274 109 298 118 318 135 c 0
256 608 m 0
 229 624 209 632 195 632 c 0
 186 632 179 628 176 619 c 0
 173 610 171 594 171 569 c 1
 39 569 l 1
 39 638 48 688 67 722 c 0
 86 754 115 771 154 771 c 0
 191 771 237 755 292 722 c 0
 319 706 339 698 352 698 c 0
 361 698 368 702 372 711 c 0
 375 720 377 736 377 761 c 1
 509 761 l 1
 509 692 500 642 480 608 c 0
 462 576 432 559 393 559 c 0
 356 559 311 575 256 608 c 0
EndSplineSet
EndChar

StartChar: ae
Encoding: 230 230 226
Width: 892
Flags: W
LayerCount: 2
Fore
SplineSet
858 205 m 1
 511 205 l 1
 514 172 527 148 550 133 c 0
 572 118 606 110 651 110 c 0
 704 110 753 119 799 137 c 1
 823 23 l 1
 800 12 772 4 740 -2 c 0
 707 -7 674 -10 641 -10 c 0
 548 -10 477 12 428 55 c 1
 379 12 314 -10 233 -10 c 0
 165 -10 114 3 78 30 c 0
 44 57 26 96 26 148 c 0
 26 207 51 253 102 285 c 0
 153 317 224 333 317 333 c 2
 347 333 l 1
 346 362 341 382 330 392 c 0
 320 402 300 407 271 407 c 0
 208 407 144 392 78 363 c 1
 42 481 l 1
 77 497 116 509 158 518 c 0
 199 526 241 530 284 530 c 0
 361 530 416 516 451 487 c 1
 494 516 547 530 609 530 c 0
 690 530 752 507 796 461 c 0
 840 415 862 350 862 267 c 0
 862 240 861 220 858 205 c 1
540 391 m 0
 524 374 514 347 511 310 c 1
 706 310 l 1
 703 347 693 374 678 391 c 0
 662 408 639 417 609 417 c 0
 579 417 556 408 540 391 c 0
318 135 m 0
 337 152 347 173 347 198 c 2
 347 234 l 1
 317 234 l 2
 225 234 179 211 179 165 c 0
 179 148 185 134 197 124 c 0
 209 114 225 109 246 109 c 0
 274 109 298 118 318 135 c 0
EndSplineSet
EndChar

StartChar: aeacute
Encoding: 509 509 227
Width: 892
Flags: W
LayerCount: 2
Fore
SplineSet
858 205 m 1
 511 205 l 1
 514 172 527 148 550 133 c 0
 572 118 606 110 651 110 c 0
 704 110 753 119 799 137 c 1
 823 23 l 1
 800 12 772 4 740 -2 c 0
 707 -7 674 -10 641 -10 c 0
 548 -10 477 12 428 55 c 1
 379 12 314 -10 233 -10 c 0
 165 -10 114 3 78 30 c 0
 44 57 26 96 26 148 c 0
 26 207 51 253 102 285 c 0
 153 317 224 333 317 333 c 2
 347 333 l 1
 346 362 341 382 330 392 c 0
 320 402 300 407 271 407 c 0
 208 407 144 392 78 363 c 1
 42 481 l 1
 77 497 116 509 158 518 c 0
 199 526 241 530 284 530 c 0
 361 530 416 516 451 487 c 1
 494 516 547 530 609 530 c 0
 690 530 752 507 796 461 c 0
 840 415 862 350 862 267 c 0
 862 240 861 220 858 205 c 1
540 391 m 0
 524 374 514 347 511 310 c 1
 706 310 l 1
 703 347 693 374 678 391 c 0
 662 408 639 417 609 417 c 0
 579 417 556 408 540 391 c 0
318 135 m 0
 337 152 347 173 347 198 c 2
 347 234 l 1
 317 234 l 2
 225 234 179 211 179 165 c 0
 179 148 185 134 197 124 c 0
 209 114 225 109 246 109 c 0
 274 109 298 118 318 135 c 0
488 560 m 1
 338 560 l 1
 410 770 l 1
 610 770 l 1
 488 560 l 1
EndSplineSet
EndChar

StartChar: b
Encoding: 98 98 228
Width: 624
Flags: W
LayerCount: 2
Fore
SplineSet
537 460 m 0
 571 414 588 347 588 260 c 0
 588 173 571 106 537 60 c 0
 503 13 454 -10 391 -10 c 0
 326 -10 271 15 225 64 c 1
 223 64 l 1
 222 0 l 1
 63 0 l 1
 63 750 l 1
 230 750 l 1
 230 456 l 1
 232 456 l 1
 273 505 326 530 391 530 c 0
 454 530 503 507 537 460 c 0
400 156 m 0
 416 181 424 215 424 260 c 0
 424 305 416 339 400 364 c 0
 383 388 360 400 330 400 c 0
 301 400 277 388 258 366 c 0
 239 342 230 312 230 274 c 2
 230 246 l 2
 230 208 239 178 258 154 c 0
 277 132 301 120 330 120 c 0
 360 120 383 132 400 156 c 0
EndSplineSet
EndChar

StartChar: c
Encoding: 99 99 229
Width: 545
Flags: W
LayerCount: 2
Fore
SplineSet
108 60 m 0
 57 107 32 173 32 260 c 0
 32 347 57 413 108 460 c 0
 158 507 229 530 322 530 c 0
 385 530 444 517 497 491 c 1
 455 375 l 1
 414 396 374 407 333 407 c 0
 290 407 257 394 234 370 c 0
 212 344 201 308 201 260 c 0
 201 212 212 176 234 150 c 0
 257 126 290 113 333 113 c 0
 374 113 414 124 455 145 c 1
 497 29 l 1
 444 3 386 -10 322 -10 c 0
 229 -10 158 13 108 60 c 0
EndSplineSet
EndChar

StartChar: cacute
Encoding: 263 263 230
Width: 545
Flags: W
LayerCount: 2
Fore
SplineSet
108 60 m 0
 57 107 32 173 32 260 c 0
 32 347 57 413 108 460 c 0
 158 507 229 530 322 530 c 0
 385 530 444 517 497 491 c 1
 455 375 l 1
 414 396 374 407 333 407 c 0
 290 407 257 394 234 370 c 0
 212 344 201 308 201 260 c 0
 201 212 212 176 234 150 c 0
 257 126 290 113 333 113 c 0
 374 113 414 124 455 145 c 1
 497 29 l 1
 444 3 386 -10 322 -10 c 0
 229 -10 158 13 108 60 c 0
331 560 m 1
 181 560 l 1
 253 770 l 1
 453 770 l 1
 331 560 l 1
EndSplineSet
EndChar

StartChar: ccaron
Encoding: 269 269 231
Width: 545
Flags: W
LayerCount: 2
Fore
SplineSet
108 60 m 0
 57 107 32 173 32 260 c 0
 32 347 57 413 108 460 c 0
 158 507 229 530 322 530 c 0
 385 530 444 517 497 491 c 1
 455 375 l 1
 414 396 374 407 333 407 c 0
 290 407 257 394 234 370 c 0
 212 344 201 308 201 260 c 0
 201 212 212 176 234 150 c 0
 257 126 290 113 333 113 c 0
 374 113 414 124 455 145 c 1
 497 29 l 1
 444 3 386 -10 322 -10 c 0
 229 -10 158 13 108 60 c 0
36 770 m 1
 220 770 l 1
 289 623 l 1
 291 623 l 1
 360 770 l 1
 544 770 l 1
 422 560 l 1
 158 560 l 1
 36 770 l 1
EndSplineSet
EndChar

StartChar: ccedilla
Encoding: 231 231 232
Width: 545
Flags: W
LayerCount: 2
Fore
SplineSet
497 29 m 1
 473 17 449 8 424 2 c 1
 450 -29 463 -61 463 -92 c 0
 463 -133 446 -164 412 -186 c 0
 377 -208 329 -219 266 -219 c 0
 220 -219 179 -212 144 -199 c 1
 160 -80 l 1
 190 -93 222 -100 255 -100 c 0
 273 -100 287 -97 296 -92 c 0
 306 -87 311 -79 311 -69 c 0
 311 -47 288 -25 242 -3 c 1
 174 10 122 38 86 84 c 0
 50 128 32 187 32 260 c 0
 32 347 57 413 108 460 c 0
 158 507 229 530 322 530 c 0
 385 530 444 517 497 491 c 1
 455 375 l 1
 414 396 374 407 333 407 c 0
 290 407 257 394 234 370 c 0
 212 344 201 308 201 260 c 0
 201 212 212 176 234 150 c 0
 257 126 290 113 333 113 c 0
 374 113 414 124 455 145 c 1
 497 29 l 1
EndSplineSet
EndChar

StartChar: ccircumflex
Encoding: 265 265 233
Width: 545
Flags: W
LayerCount: 2
Fore
SplineSet
108 60 m 0
 57 107 32 173 32 260 c 0
 32 347 57 413 108 460 c 0
 158 507 229 530 322 530 c 0
 385 530 444 517 497 491 c 1
 455 375 l 1
 414 396 374 407 333 407 c 0
 290 407 257 394 234 370 c 0
 212 344 201 308 201 260 c 0
 201 212 212 176 234 150 c 0
 257 126 290 113 333 113 c 0
 374 113 414 124 455 145 c 1
 497 29 l 1
 444 3 386 -10 322 -10 c 0
 229 -10 158 13 108 60 c 0
158 770 m 1
 422 770 l 1
 544 560 l 1
 360 560 l 1
 291 707 l 1
 289 707 l 1
 220 560 l 1
 36 560 l 1
 158 770 l 1
EndSplineSet
EndChar

StartChar: cdotaccent
Encoding: 267 267 234
Width: 545
Flags: W
LayerCount: 2
Fore
SplineSet
108 60 m 0
 57 107 32 173 32 260 c 0
 32 347 57 413 108 460 c 0
 158 507 229 530 322 530 c 0
 385 530 444 517 497 491 c 1
 455 375 l 1
 414 396 374 407 333 407 c 0
 290 407 257 394 234 370 c 0
 212 344 201 308 201 260 c 0
 201 212 212 176 234 150 c 0
 257 126 290 113 333 113 c 0
 374 113 414 124 455 145 c 1
 497 29 l 1
 444 3 386 -10 322 -10 c 0
 229 -10 158 13 108 60 c 0
206 749 m 1
 374 749 l 1
 374 581 l 1
 206 581 l 1
 206 749 l 1
EndSplineSet
EndChar

StartChar: d
Encoding: 100 100 235
Width: 624
Flags: W
LayerCount: 2
Fore
SplineSet
561 750 m 1
 561 0 l 1
 402 0 l 1
 401 64 l 1
 399 64 l 1
 353 15 298 -10 233 -10 c 0
 170 -10 121 13 87 60 c 0
 53 106 36 173 36 260 c 0
 36 347 53 414 87 460 c 0
 121 507 170 530 233 530 c 0
 298 530 351 505 392 456 c 1
 394 456 l 1
 394 750 l 1
 561 750 l 1
366 154 m 0
 385 178 394 208 394 246 c 2
 394 274 l 2
 394 312 385 342 366 366 c 0
 347 388 323 400 294 400 c 0
 264 400 241 388 224 364 c 0
 208 339 200 305 200 260 c 0
 200 215 208 181 224 156 c 0
 241 132 264 120 294 120 c 0
 323 120 347 132 366 154 c 0
EndSplineSet
EndChar

StartChar: eth
Encoding: 240 240 236
Width: 611
Flags: W
LayerCount: 2
Fore
SplineSet
569 274 m 0
 569 85 479 -10 300 -10 c 0
 217 -10 151 13 104 58 c 0
 56 104 32 167 32 248 c 0
 32 321 53 378 96 419 c 0
 139 460 198 480 275 480 c 0
 318 480 353 473 381 458 c 1
 383 459 l 1
 377 496 362 530 337 561 c 1
 122 475 l 1
 73 590 l 1
 215 647 l 1
 178 662 138 670 94 673 c 1
 127 790 l 1
 225 783 308 757 375 710 c 1
 513 765 l 1
 562 650 l 1
 473 615 l 1
 537 528 569 414 569 274 c 0
403 248 m 0
 403 293 395 326 378 348 c 0
 361 369 335 380 300 380 c 0
 265 380 239 369 222 348 c 0
 205 326 197 293 197 248 c 0
 197 156 231 110 300 110 c 0
 369 110 403 156 403 248 c 0
EndSplineSet
EndChar

StartChar: dcaron
Encoding: 271 271 237
Width: 859
Flags: W
LayerCount: 2
Fore
SplineSet
561 750 m 1
 561 0 l 1
 402 0 l 1
 401 64 l 1
 399 64 l 1
 353 15 298 -10 233 -10 c 0
 170 -10 121 13 87 60 c 0
 53 106 36 173 36 260 c 0
 36 347 53 414 87 460 c 0
 121 507 170 530 233 530 c 0
 298 530 351 505 392 456 c 1
 394 456 l 1
 394 750 l 1
 561 750 l 1
366 154 m 0
 385 178 394 208 394 246 c 2
 394 274 l 2
 394 312 385 342 366 366 c 0
 347 388 323 400 294 400 c 0
 264 400 241 388 224 364 c 0
 208 339 200 305 200 260 c 0
 200 215 208 181 224 156 c 0
 241 132 264 120 294 120 c 0
 323 120 347 132 366 154 c 0
665 770 m 1
 849 770 l 1
 730 470 l 1
 597 470 l 1
 665 770 l 1
EndSplineSet
EndChar

StartChar: dcroat
Encoding: 273 273 238
Width: 687
Flags: W
LayerCount: 2
Fore
SplineSet
664 563 m 1
 561 563 l 1
 561 0 l 1
 402 0 l 1
 401 64 l 1
 399 64 l 1
 353 15 298 -10 233 -10 c 0
 170 -10 121 13 87 60 c 0
 53 106 36 173 36 260 c 0
 36 347 53 414 87 460 c 0
 121 507 170 530 233 530 c 0
 298 530 351 505 392 456 c 1
 394 456 l 1
 394 563 l 1
 244 563 l 1
 244 687 l 1
 394 687 l 1
 394 750 l 1
 561 750 l 1
 561 687 l 1
 664 687 l 1
 664 563 l 1
366 154 m 0
 385 178 394 208 394 246 c 2
 394 274 l 2
 394 312 385 342 366 366 c 0
 347 388 323 400 294 400 c 0
 264 400 241 388 224 364 c 0
 208 339 200 305 200 260 c 0
 200 215 208 181 224 156 c 0
 241 132 264 120 294 120 c 0
 323 120 347 132 366 154 c 0
EndSplineSet
EndChar

StartChar: uni01C6
Encoding: 454 454 239
Width: 1184
Flags: W
LayerCount: 2
Fore
SplineSet
561 750 m 1
 561 0 l 1
 402 0 l 1
 401 64 l 1
 399 64 l 1
 353 15 298 -10 233 -10 c 0
 170 -10 121 13 87 60 c 0
 53 106 36 173 36 260 c 0
 36 347 53 414 87 460 c 0
 121 507 170 530 233 530 c 0
 298 530 351 505 392 456 c 1
 394 456 l 1
 394 750 l 1
 561 750 l 1
366 154 m 0
 385 178 394 208 394 246 c 2
 394 274 l 2
 394 312 385 342 366 366 c 0
 347 388 323 400 294 400 c 0
 264 400 241 388 224 364 c 0
 208 339 200 305 200 260 c 0
 200 215 208 181 224 156 c 0
 241 132 264 120 294 120 c 0
 323 120 347 132 366 154 c 0
677 123 m 1
 921 395 l 1
 921 397 l 1
 677 397 l 1
 677 520 l 1
 1131 520 l 1
 1131 397 l 1
 887 125 l 1
 887 123 l 1
 1131 123 l 1
 1131 0 l 1
 677 0 l 1
 677 123 l 1
650 770 m 1
 834 770 l 1
 903 623 l 1
 905 623 l 1
 974 770 l 1
 1158 770 l 1
 1036 560 l 1
 772 560 l 1
 650 770 l 1
EndSplineSet
EndChar

StartChar: e
Encoding: 101 101 240
Width: 577
Flags: W
LayerCount: 2
Fore
SplineSet
544 205 m 1
 196 205 l 1
 200 172 214 148 237 133 c 0
 260 118 295 110 341 110 c 0
 392 110 440 118 485 135 c 1
 510 20 l 1
 487 11 459 3 427 -2 c 0
 395 -7 363 -10 331 -10 c 0
 234 -10 160 13 109 60 c 0
 58 106 32 173 32 260 c 0
 32 345 55 411 102 458 c 0
 148 506 212 530 295 530 c 0
 375 530 437 507 481 461 c 0
 525 415 547 350 547 267 c 0
 547 237 546 216 544 205 c 1
225 391 m 0
 209 374 199 347 196 310 c 1
 391 310 l 1
 388 347 378 374 362 391 c 0
 347 408 324 417 295 417 c 0
 264 417 241 408 225 391 c 0
EndSplineSet
EndChar

StartChar: eacute
Encoding: 233 233 241
Width: 577
Flags: W
LayerCount: 2
Fore
SplineSet
544 205 m 1
 196 205 l 1
 200 172 214 148 237 133 c 0
 260 118 295 110 341 110 c 0
 392 110 440 118 485 135 c 1
 510 20 l 1
 487 11 459 3 427 -2 c 0
 395 -7 363 -10 331 -10 c 0
 234 -10 160 13 109 60 c 0
 58 106 32 173 32 260 c 0
 32 345 55 411 102 458 c 0
 148 506 212 530 295 530 c 0
 375 530 437 507 481 461 c 0
 525 415 547 350 547 267 c 0
 547 237 546 216 544 205 c 1
225 391 m 0
 209 374 199 347 196 310 c 1
 391 310 l 1
 388 347 378 374 362 391 c 0
 347 408 324 417 295 417 c 0
 264 417 241 408 225 391 c 0
335 560 m 1
 185 560 l 1
 257 770 l 1
 457 770 l 1
 335 560 l 1
EndSplineSet
EndChar

StartChar: ebreve
Encoding: 277 277 242
Width: 577
Flags: W
LayerCount: 2
Fore
SplineSet
544 205 m 1
 196 205 l 1
 200 172 214 148 237 133 c 0
 260 118 295 110 341 110 c 0
 392 110 440 118 485 135 c 1
 510 20 l 1
 487 11 459 3 427 -2 c 0
 395 -7 363 -10 331 -10 c 0
 234 -10 160 13 109 60 c 0
 58 106 32 173 32 260 c 0
 32 345 55 411 102 458 c 0
 148 506 212 530 295 530 c 0
 375 530 437 507 481 461 c 0
 525 415 547 350 547 267 c 0
 547 237 546 216 544 205 c 1
225 391 m 0
 209 374 199 347 196 310 c 1
 391 310 l 1
 388 347 378 374 362 391 c 0
 347 408 324 417 295 417 c 0
 264 417 241 408 225 391 c 0
174 584 m 0
 139 601 111 625 90 656 c 0
 70 687 60 722 59 761 c 1
 212 761 l 1
 215 731 224 709 237 694 c 0
 250 680 269 673 294 673 c 0
 319 673 338 680 351 694 c 0
 364 709 373 731 377 761 c 1
 529 761 l 1
 528 722 518 687 498 656 c 0
 477 625 449 601 414 584 c 0
 379 567 339 558 294 558 c 0
 249 558 209 567 174 584 c 0
EndSplineSet
EndChar

StartChar: ecaron
Encoding: 283 283 243
Width: 577
Flags: W
LayerCount: 2
Fore
SplineSet
544 205 m 1
 196 205 l 1
 200 172 214 148 237 133 c 0
 260 118 295 110 341 110 c 0
 392 110 440 118 485 135 c 1
 510 20 l 1
 487 11 459 3 427 -2 c 0
 395 -7 363 -10 331 -10 c 0
 234 -10 160 13 109 60 c 0
 58 106 32 173 32 260 c 0
 32 345 55 411 102 458 c 0
 148 506 212 530 295 530 c 0
 375 530 437 507 481 461 c 0
 525 415 547 350 547 267 c 0
 547 237 546 216 544 205 c 1
225 391 m 0
 209 374 199 347 196 310 c 1
 391 310 l 1
 388 347 378 374 362 391 c 0
 347 408 324 417 295 417 c 0
 264 417 241 408 225 391 c 0
40 770 m 1
 224 770 l 1
 293 623 l 1
 295 623 l 1
 364 770 l 1
 548 770 l 1
 426 560 l 1
 162 560 l 1
 40 770 l 1
EndSplineSet
EndChar

StartChar: ecircumflex
Encoding: 234 234 244
Width: 577
Flags: W
LayerCount: 2
Fore
SplineSet
544 205 m 1
 196 205 l 1
 200 172 214 148 237 133 c 0
 260 118 295 110 341 110 c 0
 392 110 440 118 485 135 c 1
 510 20 l 1
 487 11 459 3 427 -2 c 0
 395 -7 363 -10 331 -10 c 0
 234 -10 160 13 109 60 c 0
 58 106 32 173 32 260 c 0
 32 345 55 411 102 458 c 0
 148 506 212 530 295 530 c 0
 375 530 437 507 481 461 c 0
 525 415 547 350 547 267 c 0
 547 237 546 216 544 205 c 1
225 391 m 0
 209 374 199 347 196 310 c 1
 391 310 l 1
 388 347 378 374 362 391 c 0
 347 408 324 417 295 417 c 0
 264 417 241 408 225 391 c 0
162 770 m 1
 426 770 l 1
 548 560 l 1
 364 560 l 1
 295 707 l 1
 293 707 l 1
 224 560 l 1
 40 560 l 1
 162 770 l 1
EndSplineSet
EndChar

StartChar: uni1EBF
Encoding: 7871 7871 245
Width: 577
Flags: W
LayerCount: 2
Fore
SplineSet
672 950 m 1
 550 740 l 1
 443 740 l 1
 548 560 l 1
 364 560 l 1
 295 707 l 1
 293 707 l 1
 224 560 l 1
 40 560 l 1
 162 770 l 1
 410 770 l 1
 472 950 l 1
 672 950 l 1
481 461 m 0
 525 415 547 350 547 267 c 0
 547 237 546 216 544 205 c 1
 196 205 l 1
 200 172 214 148 237 133 c 0
 260 118 295 110 341 110 c 0
 392 110 440 118 485 135 c 1
 510 20 l 1
 487 11 459 3 427 -2 c 0
 395 -7 363 -10 331 -10 c 0
 234 -10 160 13 109 60 c 0
 58 106 32 173 32 260 c 0
 32 345 55 411 102 458 c 0
 148 506 212 530 295 530 c 0
 375 530 437 507 481 461 c 0
225 391 m 0
 209 374 199 347 196 310 c 1
 391 310 l 1
 388 347 378 374 362 391 c 0
 347 408 324 417 295 417 c 0
 264 417 241 408 225 391 c 0
EndSplineSet
EndChar

StartChar: uni1EC7
Encoding: 7879 7879 246
Width: 577
Flags: W
LayerCount: 2
Fore
SplineSet
544 205 m 1
 196 205 l 1
 200 172 214 148 237 133 c 0
 260 118 295 110 341 110 c 0
 392 110 440 118 485 135 c 1
 510 20 l 1
 487 11 459 3 427 -2 c 0
 395 -7 363 -10 331 -10 c 0
 234 -10 160 13 109 60 c 0
 58 106 32 173 32 260 c 0
 32 345 55 411 102 458 c 0
 148 506 212 530 295 530 c 0
 375 530 437 507 481 461 c 0
 525 415 547 350 547 267 c 0
 547 237 546 216 544 205 c 1
225 391 m 0
 209 374 199 347 196 310 c 1
 391 310 l 1
 388 347 378 374 362 391 c 0
 347 408 324 417 295 417 c 0
 264 417 241 408 225 391 c 0
210 -61 m 1
 378 -61 l 1
 378 -229 l 1
 210 -229 l 1
 210 -61 l 1
162 770 m 1
 426 770 l 1
 548 560 l 1
 364 560 l 1
 295 707 l 1
 293 707 l 1
 224 560 l 1
 40 560 l 1
 162 770 l 1
EndSplineSet
EndChar

StartChar: uni1EC1
Encoding: 7873 7873 247
Width: 577
Flags: W
LayerCount: 2
Fore
SplineSet
145 740 m 1
 38 740 l 1
 -84 950 l 1
 116 950 l 1
 178 770 l 1
 426 770 l 1
 548 560 l 1
 364 560 l 1
 295 707 l 1
 293 707 l 1
 224 560 l 1
 40 560 l 1
 145 740 l 1
481 461 m 0
 525 415 547 350 547 267 c 0
 547 237 546 216 544 205 c 1
 196 205 l 1
 200 172 214 148 237 133 c 0
 260 118 295 110 341 110 c 0
 392 110 440 118 485 135 c 1
 510 20 l 1
 487 11 459 3 427 -2 c 0
 395 -7 363 -10 331 -10 c 0
 234 -10 160 13 109 60 c 0
 58 106 32 173 32 260 c 0
 32 345 55 411 102 458 c 0
 148 506 212 530 295 530 c 0
 375 530 437 507 481 461 c 0
225 391 m 0
 209 374 199 347 196 310 c 1
 391 310 l 1
 388 347 378 374 362 391 c 0
 347 408 324 417 295 417 c 0
 264 417 241 408 225 391 c 0
EndSplineSet
EndChar

StartChar: uni1EC3
Encoding: 7875 7875 248
Width: 577
Flags: W
LayerCount: 2
Fore
SplineSet
443 740 m 1
 548 560 l 1
 364 560 l 1
 295 707 l 1
 293 707 l 1
 224 560 l 1
 40 560 l 1
 162 770 l 1
 411 770 l 1
 413 782 414 793 414 802 c 0
 414 815 410 823 403 828 c 0
 396 832 382 834 362 834 c 0
 315 834 267 826 217 811 c 1
 204 930 l 1
 231 936 261 941 294 944 c 0
 327 948 358 950 387 950 c 0
 435 950 472 947 498 942 c 0
 524 937 542 928 554 914 c 0
 564 902 570 883 570 859 c 0
 570 841 568 821 564 798 c 0
 559 776 554 757 547 740 c 1
 443 740 l 1
481 461 m 0
 525 415 547 350 547 267 c 0
 547 237 546 216 544 205 c 1
 196 205 l 1
 200 172 214 148 237 133 c 0
 260 118 295 110 341 110 c 0
 392 110 440 118 485 135 c 1
 510 20 l 1
 487 11 459 3 427 -2 c 0
 395 -7 363 -10 331 -10 c 0
 234 -10 160 13 109 60 c 0
 58 106 32 173 32 260 c 0
 32 345 55 411 102 458 c 0
 148 506 212 530 295 530 c 0
 375 530 437 507 481 461 c 0
225 391 m 0
 209 374 199 347 196 310 c 1
 391 310 l 1
 388 347 378 374 362 391 c 0
 347 408 324 417 295 417 c 0
 264 417 241 408 225 391 c 0
EndSplineSet
EndChar

StartChar: uni1EC5
Encoding: 7877 7877 249
Width: 577
Flags: W
LayerCount: 2
Fore
SplineSet
544 205 m 1
 196 205 l 1
 200 172 214 148 237 133 c 0
 260 118 295 110 341 110 c 0
 392 110 440 118 485 135 c 1
 510 20 l 1
 487 11 459 3 427 -2 c 0
 395 -7 363 -10 331 -10 c 0
 234 -10 160 13 109 60 c 0
 58 106 32 173 32 260 c 0
 32 345 55 411 102 458 c 0
 148 506 212 530 295 530 c 0
 375 530 437 507 481 461 c 0
 525 415 547 350 547 267 c 0
 547 237 546 216 544 205 c 1
225 391 m 0
 209 374 199 347 196 310 c 1
 391 310 l 1
 388 347 378 374 362 391 c 0
 347 408 324 417 295 417 c 0
 264 417 241 408 225 391 c 0
162 770 m 1
 426 770 l 1
 548 560 l 1
 364 560 l 1
 295 707 l 1
 293 707 l 1
 224 560 l 1
 40 560 l 1
 162 770 l 1
276 845 m 0
 249 861 229 869 215 869 c 0
 206 869 199 865 196 856 c 0
 193 847 191 831 191 806 c 1
 59 806 l 1
 59 875 68 926 87 958 c 0
 106 992 135 1008 174 1008 c 0
 211 1008 257 992 312 959 c 0
 339 943 359 935 372 935 c 0
 381 935 388 939 392 948 c 0
 395 957 397 973 397 998 c 1
 529 998 l 1
 529 929 520 878 500 846 c 0
 482 812 452 796 413 796 c 0
 376 796 331 812 276 845 c 0
EndSplineSet
EndChar

StartChar: uni0205
Encoding: 517 517 250
Width: 577
Flags: W
LayerCount: 2
Fore
SplineSet
544 205 m 1
 196 205 l 1
 200 172 214 148 237 133 c 0
 260 118 295 110 341 110 c 0
 392 110 440 118 485 135 c 1
 510 20 l 1
 487 11 459 3 427 -2 c 0
 395 -7 363 -10 331 -10 c 0
 234 -10 160 13 109 60 c 0
 58 106 32 173 32 260 c 0
 32 345 55 411 102 458 c 0
 148 506 212 530 295 530 c 0
 375 530 437 507 481 461 c 0
 525 415 547 350 547 267 c 0
 547 237 546 216 544 205 c 1
225 391 m 0
 209 374 199 347 196 310 c 1
 391 310 l 1
 388 347 378 374 362 391 c 0
 347 408 324 417 295 417 c 0
 264 417 241 408 225 391 c 0
2 770 m 1
 202 770 l 1
 274 560 l 1
 124 560 l 1
 2 770 l 1
257 770 m 1
 457 770 l 1
 529 560 l 1
 379 560 l 1
 257 770 l 1
EndSplineSet
EndChar

StartChar: edieresis
Encoding: 235 235 251
Width: 577
Flags: W
LayerCount: 2
Fore
SplineSet
544 205 m 1
 196 205 l 1
 200 172 214 148 237 133 c 0
 260 118 295 110 341 110 c 0
 392 110 440 118 485 135 c 1
 510 20 l 1
 487 11 459 3 427 -2 c 0
 395 -7 363 -10 331 -10 c 0
 234 -10 160 13 109 60 c 0
 58 106 32 173 32 260 c 0
 32 345 55 411 102 458 c 0
 148 506 212 530 295 530 c 0
 375 530 437 507 481 461 c 0
 525 415 547 350 547 267 c 0
 547 237 546 216 544 205 c 1
225 391 m 0
 209 374 199 347 196 310 c 1
 391 310 l 1
 388 347 378 374 362 391 c 0
 347 408 324 417 295 417 c 0
 264 417 241 408 225 391 c 0
78 749 m 1
 246 749 l 1
 246 581 l 1
 78 581 l 1
 78 749 l 1
342 749 m 1
 511 749 l 1
 511 581 l 1
 342 581 l 1
 342 749 l 1
EndSplineSet
EndChar

StartChar: edotaccent
Encoding: 279 279 252
Width: 577
Flags: W
LayerCount: 2
Fore
SplineSet
544 205 m 1
 196 205 l 1
 200 172 214 148 237 133 c 0
 260 118 295 110 341 110 c 0
 392 110 440 118 485 135 c 1
 510 20 l 1
 487 11 459 3 427 -2 c 0
 395 -7 363 -10 331 -10 c 0
 234 -10 160 13 109 60 c 0
 58 106 32 173 32 260 c 0
 32 345 55 411 102 458 c 0
 148 506 212 530 295 530 c 0
 375 530 437 507 481 461 c 0
 525 415 547 350 547 267 c 0
 547 237 546 216 544 205 c 1
225 391 m 0
 209 374 199 347 196 310 c 1
 391 310 l 1
 388 347 378 374 362 391 c 0
 347 408 324 417 295 417 c 0
 264 417 241 408 225 391 c 0
210 749 m 1
 378 749 l 1
 378 581 l 1
 210 581 l 1
 210 749 l 1
EndSplineSet
EndChar

StartChar: uni1EB9
Encoding: 7865 7865 253
Width: 577
Flags: W
LayerCount: 2
Fore
SplineSet
544 205 m 1
 196 205 l 1
 200 172 214 148 237 133 c 0
 260 118 295 110 341 110 c 0
 392 110 440 118 485 135 c 1
 510 20 l 1
 487 11 459 3 427 -2 c 0
 395 -7 363 -10 331 -10 c 0
 234 -10 160 13 109 60 c 0
 58 106 32 173 32 260 c 0
 32 345 55 411 102 458 c 0
 148 506 212 530 295 530 c 0
 375 530 437 507 481 461 c 0
 525 415 547 350 547 267 c 0
 547 237 546 216 544 205 c 1
225 391 m 0
 209 374 199 347 196 310 c 1
 391 310 l 1
 388 347 378 374 362 391 c 0
 347 408 324 417 295 417 c 0
 264 417 241 408 225 391 c 0
210 -61 m 1
 378 -61 l 1
 378 -229 l 1
 210 -229 l 1
 210 -61 l 1
EndSplineSet
EndChar

StartChar: egrave
Encoding: 232 232 254
Width: 577
Flags: W
LayerCount: 2
Fore
SplineSet
544 205 m 1
 196 205 l 1
 200 172 214 148 237 133 c 0
 260 118 295 110 341 110 c 0
 392 110 440 118 485 135 c 1
 510 20 l 1
 487 11 459 3 427 -2 c 0
 395 -7 363 -10 331 -10 c 0
 234 -10 160 13 109 60 c 0
 58 106 32 173 32 260 c 0
 32 345 55 411 102 458 c 0
 148 506 212 530 295 530 c 0
 375 530 437 507 481 461 c 0
 525 415 547 350 547 267 c 0
 547 237 546 216 544 205 c 1
225 391 m 0
 209 374 199 347 196 310 c 1
 391 310 l 1
 388 347 378 374 362 391 c 0
 347 408 324 417 295 417 c 0
 264 417 241 408 225 391 c 0
131 770 m 1
 331 770 l 1
 403 560 l 1
 253 560 l 1
 131 770 l 1
EndSplineSet
EndChar

StartChar: uni1EBB
Encoding: 7867 7867 255
Width: 577
Flags: W
LayerCount: 2
Fore
SplineSet
544 205 m 1
 196 205 l 1
 200 172 214 148 237 133 c 0
 260 118 295 110 341 110 c 0
 392 110 440 118 485 135 c 1
 510 20 l 1
 487 11 459 3 427 -2 c 0
 395 -7 363 -10 331 -10 c 0
 234 -10 160 13 109 60 c 0
 58 106 32 173 32 260 c 0
 32 345 55 411 102 458 c 0
 148 506 212 530 295 530 c 0
 375 530 437 507 481 461 c 0
 525 415 547 350 547 267 c 0
 547 237 546 216 544 205 c 1
225 391 m 0
 209 374 199 347 196 310 c 1
 391 310 l 1
 388 347 378 374 362 391 c 0
 347 408 324 417 295 417 c 0
 264 417 241 408 225 391 c 0
321 630 m 0
 321 643 317 651 310 656 c 0
 303 660 289 662 269 662 c 0
 222 662 174 654 124 639 c 1
 111 758 l 1
 138 764 168 769 201 772 c 0
 234 776 265 778 294 778 c 0
 342 778 379 775 405 770 c 0
 431 765 450 756 460 742 c 0
 472 730 477 711 477 687 c 0
 477 669 475 649 470 626 c 0
 466 604 461 585 454 568 c 1
 310 568 l 1
 317 590 321 611 321 630 c 0
EndSplineSet
EndChar

StartChar: uni0207
Encoding: 519 519 256
Width: 577
Flags: W
LayerCount: 2
Fore
SplineSet
544 205 m 1
 196 205 l 1
 200 172 214 148 237 133 c 0
 260 118 295 110 341 110 c 0
 392 110 440 118 485 135 c 1
 510 20 l 1
 487 11 459 3 427 -2 c 0
 395 -7 363 -10 331 -10 c 0
 234 -10 160 13 109 60 c 0
 58 106 32 173 32 260 c 0
 32 345 55 411 102 458 c 0
 148 506 212 530 295 530 c 0
 375 530 437 507 481 461 c 0
 525 415 547 350 547 267 c 0
 547 237 546 216 544 205 c 1
225 391 m 0
 209 374 199 347 196 310 c 1
 391 310 l 1
 388 347 378 374 362 391 c 0
 347 408 324 417 295 417 c 0
 264 417 241 408 225 391 c 0
414 746 m 0
 449 729 477 705 498 674 c 0
 518 643 528 608 529 569 c 1
 377 569 l 1
 373 599 364 621 351 636 c 0
 338 650 319 657 294 657 c 0
 269 657 250 650 237 636 c 0
 224 621 215 599 212 569 c 1
 59 569 l 1
 60 608 70 643 90 674 c 0
 111 705 139 729 174 746 c 0
 209 763 249 772 294 772 c 0
 339 772 379 763 414 746 c 0
EndSplineSet
EndChar

StartChar: emacron
Encoding: 275 275 257
Width: 577
Flags: W
LayerCount: 2
Fore
SplineSet
544 205 m 1
 196 205 l 1
 200 172 214 148 237 133 c 0
 260 118 295 110 341 110 c 0
 392 110 440 118 485 135 c 1
 510 20 l 1
 487 11 459 3 427 -2 c 0
 395 -7 363 -10 331 -10 c 0
 234 -10 160 13 109 60 c 0
 58 106 32 173 32 260 c 0
 32 345 55 411 102 458 c 0
 148 506 212 530 295 530 c 0
 375 530 437 507 481 461 c 0
 525 415 547 350 547 267 c 0
 547 237 546 216 544 205 c 1
225 391 m 0
 209 374 199 347 196 310 c 1
 391 310 l 1
 388 347 378 374 362 391 c 0
 347 408 324 417 295 417 c 0
 264 417 241 408 225 391 c 0
91 726 m 1
 497 726 l 1
 497 604 l 1
 91 604 l 1
 91 726 l 1
EndSplineSet
EndChar

StartChar: eogonek
Encoding: 281 281 258
Width: 577
Flags: W
LayerCount: 2
Fore
SplineSet
602 -178 m 1
 567 -191 526 -198 480 -198 c 0
 417 -198 369 -187 334 -165 c 0
 300 -143 283 -112 283 -71 c 0
 283 -49 288 -28 299 -9 c 1
 212 -4 146 21 100 68 c 0
 55 114 32 178 32 260 c 0
 32 345 55 411 102 458 c 0
 148 506 212 530 295 530 c 0
 375 530 437 507 481 461 c 0
 525 415 547 350 547 267 c 0
 547 237 546 216 544 205 c 1
 196 205 l 1
 200 172 214 148 237 133 c 0
 260 118 295 110 341 110 c 0
 392 110 440 118 485 135 c 1
 510 21 l 1
 510 21 511 21 511 21 c 1
 511 21 510 20 510 20 c 1
 510 20 l 1
 507 19 505 18 504 18 c 0
 458 -4 435 -26 435 -48 c 0
 435 -58 440 -66 450 -71 c 0
 459 -76 473 -79 491 -79 c 0
 524 -79 556 -72 586 -59 c 1
 602 -178 l 1
225 391 m 0
 209 374 199 347 196 310 c 1
 391 310 l 1
 388 347 378 374 362 391 c 0
 347 408 324 417 295 417 c 0
 264 417 241 408 225 391 c 0
EndSplineSet
EndChar

StartChar: uni1EBD
Encoding: 7869 7869 259
Width: 577
Flags: W
LayerCount: 2
Fore
SplineSet
544 205 m 1
 196 205 l 1
 200 172 214 148 237 133 c 0
 260 118 295 110 341 110 c 0
 392 110 440 118 485 135 c 1
 510 20 l 1
 487 11 459 3 427 -2 c 0
 395 -7 363 -10 331 -10 c 0
 234 -10 160 13 109 60 c 0
 58 106 32 173 32 260 c 0
 32 345 55 411 102 458 c 0
 148 506 212 530 295 530 c 0
 375 530 437 507 481 461 c 0
 525 415 547 350 547 267 c 0
 547 237 546 216 544 205 c 1
225 391 m 0
 209 374 199 347 196 310 c 1
 391 310 l 1
 388 347 378 374 362 391 c 0
 347 408 324 417 295 417 c 0
 264 417 241 408 225 391 c 0
276 608 m 0
 249 624 229 632 215 632 c 0
 206 632 199 628 196 619 c 0
 193 610 191 594 191 569 c 1
 59 569 l 1
 59 638 68 688 87 722 c 0
 106 754 135 771 174 771 c 0
 211 771 257 755 312 722 c 0
 339 706 359 698 372 698 c 0
 381 698 388 702 392 711 c 0
 395 720 397 736 397 761 c 1
 529 761 l 1
 529 692 520 642 500 608 c 0
 482 576 452 559 413 559 c 0
 376 559 331 575 276 608 c 0
EndSplineSet
EndChar

StartChar: uni0259
Encoding: 601 601 260
Width: 578
Flags: W
LayerCount: 2
Fore
SplineSet
468 460 m 0
 519 414 545 347 545 260 c 0
 545 175 522 109 476 62 c 0
 429 14 365 -10 283 -10 c 0
 202 -10 140 13 96 59 c 0
 52 105 30 170 30 253 c 0
 30 272 31 293 33 315 c 1
 381 315 l 1
 377 348 364 372 340 388 c 0
 318 402 283 410 236 410 c 0
 185 410 137 402 92 385 c 1
 67 500 l 1
 91 509 119 517 151 522 c 0
 183 527 215 530 246 530 c 0
 343 530 417 507 468 460 c 0
352 129 m 0
 368 146 378 173 381 210 c 1
 186 210 l 1
 189 173 199 146 214 129 c 0
 230 112 253 103 283 103 c 0
 313 103 336 112 352 129 c 0
EndSplineSet
EndChar

StartChar: f
Encoding: 102 102 261
Width: 493
Flags: W
LayerCount: 2
Fore
SplineSet
19 397 m 1
 19 520 l 1
 145 520 l 1
 145 552 l 2
 145 620 162 672 196 707 c 0
 230 742 280 760 346 760 c 0
 384 760 426 755 473 745 c 1
 451 622 l 1
 425 632 400 637 375 637 c 0
 352 637 336 631 327 619 c 0
 318 607 314 585 314 552 c 2
 314 520 l 1
 464 520 l 1
 464 397 l 1
 314 397 l 1
 314 0 l 1
 145 0 l 1
 145 397 l 1
 19 397 l 1
EndSplineSet
EndChar

StartChar: g
Encoding: 103 103 262
Width: 624
Flags: W
LayerCount: 2
Fore
SplineSet
560 520 m 1
 560 55 l 2
 560 -36 535 -107 485 -156 c 0
 435 -205 364 -230 271 -230 c 0
 201 -230 128 -217 51 -190 c 1
 83 -75 l 1
 151 -96 205 -107 246 -107 c 0
 345 -107 394 -53 394 55 c 2
 394 64 l 1
 392 64 l 1
 351 15 298 -10 233 -10 c 0
 169 -10 120 13 86 60 c 0
 52 106 35 173 35 260 c 0
 35 347 52 414 86 460 c 0
 120 507 169 530 233 530 c 0
 298 530 353 505 398 456 c 1
 400 456 l 1
 402 520 l 1
 560 520 l 1
366 154 m 0
 385 178 394 208 394 246 c 2
 394 274 l 2
 394 312 385 342 366 366 c 0
 347 388 323 400 294 400 c 0
 263 400 240 388 224 364 c 0
 207 339 199 305 199 260 c 0
 199 215 207 181 224 156 c 0
 240 132 263 120 294 120 c 0
 323 120 347 132 366 154 c 0
EndSplineSet
EndChar

StartChar: gbreve
Encoding: 287 287 263
Width: 624
Flags: W
LayerCount: 2
Fore
SplineSet
560 520 m 1
 560 55 l 2
 560 -36 535 -107 485 -156 c 0
 435 -205 364 -230 271 -230 c 0
 201 -230 128 -217 51 -190 c 1
 83 -75 l 1
 151 -96 205 -107 246 -107 c 0
 345 -107 394 -53 394 55 c 2
 394 64 l 1
 392 64 l 1
 351 15 298 -10 233 -10 c 0
 169 -10 120 13 86 60 c 0
 52 106 35 173 35 260 c 0
 35 347 52 414 86 460 c 0
 120 507 169 530 233 530 c 0
 298 530 353 505 398 456 c 1
 400 456 l 1
 402 520 l 1
 560 520 l 1
366 154 m 0
 385 178 394 208 394 246 c 2
 394 274 l 2
 394 312 385 342 366 366 c 0
 347 388 323 400 294 400 c 0
 263 400 240 388 224 364 c 0
 207 339 199 305 199 260 c 0
 199 215 207 181 224 156 c 0
 240 132 263 120 294 120 c 0
 323 120 347 132 366 154 c 0
191 584 m 0
 156 601 128 625 108 656 c 0
 87 687 77 722 76 761 c 1
 229 761 l 1
 232 731 241 709 254 694 c 0
 267 680 286 673 311 673 c 0
 336 673 355 680 368 694 c 0
 381 709 390 731 394 761 c 1
 546 761 l 1
 545 722 535 687 514 656 c 0
 494 625 466 601 431 584 c 0
 396 567 356 558 311 558 c 0
 266 558 226 567 191 584 c 0
EndSplineSet
EndChar

StartChar: gcaron
Encoding: 487 487 264
Width: 624
Flags: W
LayerCount: 2
Fore
SplineSet
560 520 m 1
 560 55 l 2
 560 -36 535 -107 485 -156 c 0
 435 -205 364 -230 271 -230 c 0
 201 -230 128 -217 51 -190 c 1
 83 -75 l 1
 151 -96 205 -107 246 -107 c 0
 345 -107 394 -53 394 55 c 2
 394 64 l 1
 392 64 l 1
 351 15 298 -10 233 -10 c 0
 169 -10 120 13 86 60 c 0
 52 106 35 173 35 260 c 0
 35 347 52 414 86 460 c 0
 120 507 169 530 233 530 c 0
 298 530 353 505 398 456 c 1
 400 456 l 1
 402 520 l 1
 560 520 l 1
366 154 m 0
 385 178 394 208 394 246 c 2
 394 274 l 2
 394 312 385 342 366 366 c 0
 347 388 323 400 294 400 c 0
 263 400 240 388 224 364 c 0
 207 339 199 305 199 260 c 0
 199 215 207 181 224 156 c 0
 240 132 263 120 294 120 c 0
 323 120 347 132 366 154 c 0
58 770 m 1
 242 770 l 1
 311 623 l 1
 313 623 l 1
 382 770 l 1
 566 770 l 1
 444 560 l 1
 180 560 l 1
 58 770 l 1
EndSplineSet
EndChar

StartChar: gcircumflex
Encoding: 285 285 265
Width: 624
Flags: W
LayerCount: 2
Fore
SplineSet
560 520 m 1
 560 55 l 2
 560 -36 535 -107 485 -156 c 0
 435 -205 364 -230 271 -230 c 0
 201 -230 128 -217 51 -190 c 1
 83 -75 l 1
 151 -96 205 -107 246 -107 c 0
 345 -107 394 -53 394 55 c 2
 394 64 l 1
 392 64 l 1
 351 15 298 -10 233 -10 c 0
 169 -10 120 13 86 60 c 0
 52 106 35 173 35 260 c 0
 35 347 52 414 86 460 c 0
 120 507 169 530 233 530 c 0
 298 530 353 505 398 456 c 1
 400 456 l 1
 402 520 l 1
 560 520 l 1
366 154 m 0
 385 178 394 208 394 246 c 2
 394 274 l 2
 394 312 385 342 366 366 c 0
 347 388 323 400 294 400 c 0
 263 400 240 388 224 364 c 0
 207 339 199 305 199 260 c 0
 199 215 207 181 224 156 c 0
 240 132 263 120 294 120 c 0
 323 120 347 132 366 154 c 0
180 770 m 1
 444 770 l 1
 566 560 l 1
 382 560 l 1
 313 707 l 1
 311 707 l 1
 242 560 l 1
 58 560 l 1
 180 770 l 1
EndSplineSet
EndChar

StartChar: uni0123
Encoding: 291 291 266
Width: 624
Flags: W
LayerCount: 2
Fore
SplineSet
560 520 m 1
 560 55 l 2
 560 -36 535 -107 485 -156 c 0
 435 -205 364 -230 271 -230 c 0
 201 -230 128 -217 51 -190 c 1
 83 -75 l 1
 151 -96 205 -107 246 -107 c 0
 345 -107 394 -53 394 55 c 2
 394 64 l 1
 392 64 l 1
 351 15 298 -10 233 -10 c 0
 169 -10 120 13 86 60 c 0
 52 106 35 173 35 260 c 0
 35 347 52 414 86 460 c 0
 120 507 169 530 233 530 c 0
 298 530 353 505 398 456 c 1
 400 456 l 1
 402 520 l 1
 560 520 l 1
366 154 m 0
 385 178 394 208 394 246 c 2
 394 274 l 2
 394 312 385 342 366 366 c 0
 347 388 323 400 294 400 c 0
 263 400 240 388 224 364 c 0
 207 339 199 305 199 260 c 0
 199 215 207 181 224 156 c 0
 240 132 263 120 294 120 c 0
 323 120 347 132 366 154 c 0
297 770 m 1
 447 770 l 1
 375 560 l 1
 175 560 l 1
 297 770 l 1
EndSplineSet
EndChar

StartChar: gdotaccent
Encoding: 289 289 267
Width: 624
Flags: W
LayerCount: 2
Fore
SplineSet
560 520 m 1
 560 55 l 2
 560 -36 535 -107 485 -156 c 0
 435 -205 364 -230 271 -230 c 0
 201 -230 128 -217 51 -190 c 1
 83 -75 l 1
 151 -96 205 -107 246 -107 c 0
 345 -107 394 -53 394 55 c 2
 394 64 l 1
 392 64 l 1
 351 15 298 -10 233 -10 c 0
 169 -10 120 13 86 60 c 0
 52 106 35 173 35 260 c 0
 35 347 52 414 86 460 c 0
 120 507 169 530 233 530 c 0
 298 530 353 505 398 456 c 1
 400 456 l 1
 402 520 l 1
 560 520 l 1
366 154 m 0
 385 178 394 208 394 246 c 2
 394 274 l 2
 394 312 385 342 366 366 c 0
 347 388 323 400 294 400 c 0
 263 400 240 388 224 364 c 0
 207 339 199 305 199 260 c 0
 199 215 207 181 224 156 c 0
 240 132 263 120 294 120 c 0
 323 120 347 132 366 154 c 0
228 749 m 1
 396 749 l 1
 396 581 l 1
 228 581 l 1
 228 749 l 1
EndSplineSet
EndChar

StartChar: h
Encoding: 104 104 268
Width: 620
Flags: W
LayerCount: 2
Fore
SplineSet
523 480 m 0
 550 447 563 393 563 320 c 2
 563 0 l 1
 397 0 l 1
 397 287 l 2
 397 324 392 351 382 368 c 0
 371 385 355 393 332 393 c 0
 305 393 281 383 260 362 c 0
 240 341 230 317 230 288 c 2
 230 0 l 1
 63 0 l 1
 63 750 l 1
 230 750 l 1
 230 455 l 1
 232 455 l 1
 254 480 278 499 304 512 c 0
 331 524 361 530 395 530 c 0
 454 530 496 513 523 480 c 0
EndSplineSet
EndChar

StartChar: hbar
Encoding: 295 295 269
Width: 684
Flags: W
LayerCount: 2
Fore
SplineSet
586 480 m 0
 614 446 627 393 627 320 c 2
 627 0 l 1
 460 0 l 1
 460 287 l 2
 460 324 455 351 444 368 c 0
 434 385 418 393 395 393 c 0
 368 393 344 383 324 362 c 0
 303 341 293 317 293 288 c 2
 293 0 l 1
 127 0 l 1
 127 563 l 1
 23 563 l 1
 23 687 l 1
 127 687 l 1
 127 750 l 1
 293 750 l 1
 293 687 l 1
 443 687 l 1
 443 563 l 1
 293 563 l 1
 293 455 l 1
 295 455 l 1
 317 480 341 499 368 512 c 0
 394 524 424 530 458 530 c 0
 517 530 560 513 586 480 c 0
EndSplineSet
EndChar

StartChar: hcircumflex
Encoding: 293 293 270
Width: 620
Flags: W
LayerCount: 2
Fore
SplineSet
523 480 m 0
 550 447 563 393 563 320 c 2
 563 0 l 1
 397 0 l 1
 397 287 l 2
 397 324 392 351 382 368 c 0
 371 385 355 393 332 393 c 0
 305 393 281 383 260 362 c 0
 240 341 230 317 230 288 c 2
 230 0 l 1
 63 0 l 1
 63 750 l 1
 230 750 l 1
 230 455 l 1
 232 455 l 1
 254 480 278 499 304 512 c 0
 331 524 361 530 395 530 c 0
 454 530 496 513 523 480 c 0
171 1000 m 1
 435 1000 l 1
 557 790 l 1
 373 790 l 1
 304 937 l 1
 302 937 l 1
 233 790 l 1
 49 790 l 1
 171 1000 l 1
EndSplineSet
EndChar

StartChar: i
Encoding: 105 105 271
Width: 309
Flags: W
LayerCount: 2
Fore
SplineSet
70 747 m 1
 240 747 l 1
 240 603 l 1
 70 603 l 1
 70 747 l 1
70 520 m 1
 240 520 l 1
 240 0 l 1
 70 0 l 1
 70 520 l 1
EndSplineSet
EndChar

StartChar: dotlessi
Encoding: 305 305 272
Width: 309
Flags: W
LayerCount: 2
Fore
SplineSet
70 520 m 1
 240 520 l 1
 240 0 l 1
 70 0 l 1
 70 520 l 1
EndSplineSet
EndChar

StartChar: iacute
Encoding: 237 237 273
Width: 309
Flags: W
LayerCount: 2
Fore
SplineSet
70 520 m 1
 240 520 l 1
 240 0 l 1
 70 0 l 1
 70 520 l 1
195 560 m 1
 45 560 l 1
 117 770 l 1
 317 770 l 1
 195 560 l 1
EndSplineSet
EndChar

StartChar: ibreve
Encoding: 301 301 274
Width: 309
Flags: W
LayerCount: 2
Fore
SplineSet
70 520 m 1
 240 520 l 1
 240 0 l 1
 70 0 l 1
 70 520 l 1
34 584 m 0
 -1 601 -29 625 -50 656 c 0
 -70 687 -80 722 -81 761 c 1
 72 761 l 1
 75 731 84 709 97 694 c 0
 110 680 129 673 154 673 c 0
 179 673 198 680 211 694 c 0
 224 709 233 731 237 761 c 1
 389 761 l 1
 388 722 378 687 358 656 c 0
 337 625 309 601 274 584 c 0
 239 567 199 558 154 558 c 0
 109 558 69 567 34 584 c 0
EndSplineSet
EndChar

StartChar: icircumflex
Encoding: 238 238 275
Width: 309
Flags: W
LayerCount: 2
Fore
SplineSet
70 520 m 1
 240 520 l 1
 240 0 l 1
 70 0 l 1
 70 520 l 1
23 770 m 1
 287 770 l 1
 409 560 l 1
 225 560 l 1
 156 707 l 1
 154 707 l 1
 85 560 l 1
 -99 560 l 1
 23 770 l 1
EndSplineSet
EndChar

StartChar: uni0209
Encoding: 521 521 276
Width: 309
Flags: W
LayerCount: 2
Fore
SplineSet
70 520 m 1
 240 520 l 1
 240 0 l 1
 70 0 l 1
 70 520 l 1
-137 770 m 1
 63 770 l 1
 135 560 l 1
 -15 560 l 1
 -137 770 l 1
118 770 m 1
 318 770 l 1
 390 560 l 1
 240 560 l 1
 118 770 l 1
EndSplineSet
EndChar

StartChar: idieresis
Encoding: 239 239 277
Width: 309
Flags: W
LayerCount: 2
Fore
SplineSet
70 520 m 1
 240 520 l 1
 240 0 l 1
 70 0 l 1
 70 520 l 1
-62 749 m 1
 106 749 l 1
 106 581 l 1
 -62 581 l 1
 -62 749 l 1
202 749 m 1
 371 749 l 1
 371 581 l 1
 202 581 l 1
 202 749 l 1
EndSplineSet
EndChar

StartChar: i.loclTRK
Encoding: 1114113 -1 278
Width: 309
Flags: W
LayerCount: 2
Fore
SplineSet
70 520 m 1
 240 520 l 1
 240 0 l 1
 70 0 l 1
 70 520 l 1
71 749 m 1
 239 749 l 1
 239 581 l 1
 71 581 l 1
 71 749 l 1
EndSplineSet
EndChar

StartChar: uni1ECB
Encoding: 7883 7883 279
Width: 309
Flags: W
LayerCount: 2
Fore
SplineSet
70 747 m 1
 240 747 l 1
 240 603 l 1
 70 603 l 1
 70 747 l 1
70 520 m 1
 240 520 l 1
 240 0 l 1
 70 0 l 1
 70 520 l 1
71 -61 m 1
 239 -61 l 1
 239 -229 l 1
 71 -229 l 1
 71 -61 l 1
EndSplineSet
EndChar

StartChar: igrave
Encoding: 236 236 280
Width: 309
Flags: W
LayerCount: 2
Fore
SplineSet
70 520 m 1
 240 520 l 1
 240 0 l 1
 70 0 l 1
 70 520 l 1
-8 770 m 1
 192 770 l 1
 264 560 l 1
 114 560 l 1
 -8 770 l 1
EndSplineSet
EndChar

StartChar: uni1EC9
Encoding: 7881 7881 281
Width: 309
Flags: W
LayerCount: 2
Fore
SplineSet
70 520 m 1
 240 520 l 1
 240 0 l 1
 70 0 l 1
 70 520 l 1
182 630 m 0
 182 643 178 651 171 656 c 0
 164 660 150 662 130 662 c 0
 83 662 35 654 -15 639 c 1
 -28 758 l 1
 -1 764 29 769 62 772 c 0
 95 776 126 778 155 778 c 0
 203 778 240 775 266 770 c 0
 292 765 310 756 322 742 c 0
 332 730 338 711 338 687 c 0
 338 669 336 649 332 626 c 0
 327 604 322 585 315 568 c 1
 171 568 l 1
 178 590 182 611 182 630 c 0
EndSplineSet
EndChar

StartChar: uni020B
Encoding: 523 523 282
Width: 309
Flags: W
LayerCount: 2
Fore
SplineSet
70 520 m 1
 240 520 l 1
 240 0 l 1
 70 0 l 1
 70 520 l 1
274 746 m 0
 309 729 337 705 358 674 c 0
 378 643 388 608 389 569 c 1
 237 569 l 1
 233 599 224 621 211 636 c 0
 198 650 179 657 154 657 c 0
 129 657 110 650 97 636 c 0
 84 621 75 599 72 569 c 1
 -81 569 l 1
 -80 608 -70 643 -50 674 c 0
 -29 705 -1 729 34 746 c 0
 69 763 109 772 154 772 c 0
 199 772 239 763 274 746 c 0
EndSplineSet
EndChar

StartChar: imacron
Encoding: 299 299 283
Width: 309
Flags: W
LayerCount: 2
Fore
SplineSet
70 520 m 1
 240 520 l 1
 240 0 l 1
 70 0 l 1
 70 520 l 1
-48 726 m 1
 358 726 l 1
 358 604 l 1
 -48 604 l 1
 -48 726 l 1
EndSplineSet
EndChar

StartChar: iogonek
Encoding: 303 303 284
Width: 309
Flags: W
LayerCount: 2
Fore
SplineSet
239 749 m 1
 239 581 l 1
 71 581 l 1
 71 749 l 1
 239 749 l 1
331 -199 m 1
 296 -212 255 -219 209 -219 c 0
 146 -219 98 -208 64 -186 c 0
 29 -164 12 -133 12 -92 c 0
 12 -72 17 -53 26 -34 c 0
 35 -16 50 3 70 23 c 1
 70 520 l 1
 240 520 l 1
 240 0 l 1
 189 -23 164 -46 164 -69 c 0
 164 -79 169 -87 178 -92 c 0
 188 -97 202 -100 220 -100 c 0
 253 -100 285 -93 315 -80 c 1
 331 -199 l 1
EndSplineSet
EndChar

StartChar: itilde
Encoding: 297 297 285
Width: 309
Flags: W
LayerCount: 2
Fore
SplineSet
70 520 m 1
 240 520 l 1
 240 0 l 1
 70 0 l 1
 70 520 l 1
137 608 m 0
 110 624 90 632 76 632 c 0
 67 632 60 628 57 619 c 0
 54 610 52 594 52 569 c 1
 -80 569 l 1
 -80 638 -71 688 -52 722 c 0
 -33 754 -4 771 35 771 c 0
 72 771 118 755 173 722 c 0
 200 706 220 698 233 698 c 0
 242 698 249 702 252 711 c 0
 256 720 258 736 258 761 c 1
 390 761 l 1
 390 692 380 642 362 608 c 0
 342 576 313 559 274 559 c 0
 237 559 192 575 137 608 c 0
EndSplineSet
EndChar

StartChar: j
Encoding: 106 106 286
Width: 359
Flags: W
LayerCount: 2
Fore
SplineSet
119 747 m 1
 289 747 l 1
 289 603 l 1
 119 603 l 1
 119 747 l 1
58 -94 m 0
 82 -88 98 -76 106 -58 c 0
 115 -39 119 -9 119 33 c 2
 119 520 l 1
 289 520 l 1
 289 33 l 2
 289 -36 279 -90 258 -127 c 0
 237 -164 203 -191 154 -206 c 0
 105 -222 36 -230 -54 -230 c 1
 -62 -103 l 1
 -6 -103 34 -100 58 -94 c 0
EndSplineSet
EndChar

StartChar: uni0237
Encoding: 567 567 287
Width: 359
Flags: W
LayerCount: 2
Fore
SplineSet
58 -94 m 0
 82 -88 98 -76 106 -58 c 0
 115 -39 119 -9 119 33 c 2
 119 520 l 1
 289 520 l 1
 289 33 l 2
 289 -36 279 -90 258 -127 c 0
 237 -164 203 -191 154 -206 c 0
 105 -222 36 -230 -54 -230 c 1
 -62 -103 l 1
 -6 -103 34 -100 58 -94 c 0
EndSplineSet
EndChar

StartChar: jcircumflex
Encoding: 309 309 288
Width: 359
Flags: W
LayerCount: 2
Fore
SplineSet
58 -94 m 0
 82 -88 98 -76 106 -58 c 0
 115 -39 119 -9 119 33 c 2
 119 520 l 1
 289 520 l 1
 289 33 l 2
 289 -36 279 -90 258 -127 c 0
 237 -164 203 -191 154 -206 c 0
 105 -222 36 -230 -54 -230 c 1
 -62 -103 l 1
 -6 -103 34 -100 58 -94 c 0
48 770 m 1
 312 770 l 1
 434 560 l 1
 250 560 l 1
 181 707 l 1
 179 707 l 1
 110 560 l 1
 -74 560 l 1
 48 770 l 1
EndSplineSet
EndChar

StartChar: k
Encoding: 107 107 289
Width: 611
Flags: W
LayerCount: 2
Fore
SplineSet
63 750 m 1
 230 750 l 1
 230 318 l 1
 232 318 l 1
 392 520 l 1
 588 520 l 1
 371 270 l 1
 595 0 l 1
 399 0 l 1
 232 221 l 1
 230 221 l 1
 230 0 l 1
 63 0 l 1
 63 750 l 1
EndSplineSet
EndChar

StartChar: uni0137
Encoding: 311 311 290
Width: 611
Flags: W
LayerCount: 2
Fore
SplineSet
63 750 m 1
 230 750 l 1
 230 318 l 1
 232 318 l 1
 392 520 l 1
 588 520 l 1
 371 270 l 1
 595 0 l 1
 399 0 l 1
 232 221 l 1
 230 221 l 1
 230 0 l 1
 63 0 l 1
 63 750 l 1
301 -250 m 1
 151 -250 l 1
 223 -40 l 1
 423 -40 l 1
 301 -250 l 1
EndSplineSet
EndChar

StartChar: kgreenlandic
Encoding: 312 312 291
Width: 611
Flags: W
LayerCount: 2
Fore
SplineSet
63 520 m 1
 230 520 l 1
 230 318 l 1
 232 318 l 1
 392 520 l 1
 588 520 l 1
 371 270 l 1
 595 0 l 1
 399 0 l 1
 232 221 l 1
 230 221 l 1
 230 0 l 1
 63 0 l 1
 63 520 l 1
EndSplineSet
EndChar

StartChar: l
Encoding: 108 108 292
Width: 309
Flags: W
LayerCount: 2
Fore
SplineSet
70 750 m 1
 238 750 l 1
 238 200 l 2
 238 164 242 140 250 128 c 0
 258 116 273 110 296 110 c 0
 325 110 355 115 386 126 c 1
 405 10 l 1
 358 -3 309 -10 258 -10 c 0
 193 -10 145 4 115 33 c 0
 85 62 70 108 70 173 c 2
 70 750 l 1
EndSplineSet
EndChar

StartChar: lacute
Encoding: 314 314 293
Width: 309
Flags: W
LayerCount: 2
Fore
SplineSet
70 750 m 1
 238 750 l 1
 238 200 l 2
 238 164 242 140 250 128 c 0
 258 116 273 110 296 110 c 0
 325 110 355 115 386 126 c 1
 405 10 l 1
 358 -3 309 -10 258 -10 c 0
 193 -10 145 4 115 33 c 0
 85 62 70 108 70 173 c 2
 70 750 l 1
195 790 m 1
 45 790 l 1
 117 1000 l 1
 317 1000 l 1
 195 790 l 1
EndSplineSet
EndChar

StartChar: lcaron
Encoding: 318 318 294
Width: 536
Flags: W
LayerCount: 2
Fore
SplineSet
70 750 m 1
 238 750 l 1
 238 200 l 2
 238 164 242 140 250 128 c 0
 258 116 273 110 296 110 c 0
 325 110 355 115 386 126 c 1
 405 10 l 1
 358 -3 309 -10 258 -10 c 0
 193 -10 145 4 115 33 c 0
 85 62 70 108 70 173 c 2
 70 750 l 1
342 770 m 1
 526 770 l 1
 407 470 l 1
 274 470 l 1
 342 770 l 1
EndSplineSet
EndChar

StartChar: uni013C
Encoding: 316 316 295
Width: 309
Flags: W
LayerCount: 2
Fore
SplineSet
70 750 m 1
 238 750 l 1
 238 200 l 2
 238 164 242 140 250 128 c 0
 258 116 273 110 296 110 c 0
 325 110 355 115 386 126 c 1
 405 10 l 1
 358 -3 309 -10 258 -10 c 0
 193 -10 145 4 115 33 c 0
 85 62 70 108 70 173 c 2
 70 750 l 1
169 -250 m 1
 19 -250 l 1
 91 -40 l 1
 291 -40 l 1
 169 -250 l 1
EndSplineSet
EndChar

StartChar: ldot
Encoding: 320 320 296
Width: 529
Flags: W
LayerCount: 2
Fore
SplineSet
70 750 m 1
 238 750 l 1
 238 200 l 2
 238 164 242 140 250 128 c 0
 258 116 273 110 296 110 c 0
 325 110 355 115 386 126 c 1
 405 10 l 1
 358 -3 309 -10 258 -10 c 0
 193 -10 145 4 115 33 c 0
 85 62 70 108 70 173 c 2
 70 750 l 1
306 464 m 1
 483 464 l 1
 483 287 l 1
 306 287 l 1
 306 464 l 1
EndSplineSet
EndChar

StartChar: uni01C9
Encoding: 457 457 297
Width: 663
Flags: W
LayerCount: 2
Fore
SplineSet
70 750 m 1
 238 750 l 1
 238 200 l 2
 238 164 242 140 250 128 c 0
 258 116 273 110 296 110 c 0
 325 110 355 115 386 126 c 1
 405 10 l 1
 358 -3 309 -10 258 -10 c 0
 193 -10 145 4 115 33 c 0
 85 62 70 108 70 173 c 2
 70 750 l 1
423 747 m 1
 593 747 l 1
 593 603 l 1
 423 603 l 1
 423 747 l 1
362 -94 m 0
 386 -88 402 -76 410 -58 c 0
 419 -39 423 -9 423 33 c 2
 423 520 l 1
 593 520 l 1
 593 33 l 2
 593 -36 583 -90 562 -127 c 0
 541 -164 507 -191 458 -206 c 0
 409 -222 340 -230 250 -230 c 1
 242 -103 l 1
 298 -103 338 -100 362 -94 c 0
EndSplineSet
EndChar

StartChar: lslash
Encoding: 322 322 298
Width: 510
Flags: W
LayerCount: 2
Fore
SplineSet
502 398 m 1
 56 218 l 1
 8 332 l 1
 454 512 l 1
 502 398 l 1
170 750 m 1
 338 750 l 1
 338 200 l 2
 338 164 342 140 350 128 c 0
 358 116 373 110 396 110 c 0
 425 110 455 115 486 126 c 1
 505 10 l 1
 458 -3 409 -10 358 -10 c 0
 293 -10 245 4 215 33 c 0
 185 62 170 108 170 173 c 2
 170 750 l 1
EndSplineSet
EndChar

StartChar: m
Encoding: 109 109 299
Width: 864
Flags: W
LayerCount: 2
Fore
SplineSet
772 480 m 0
 795 447 807 393 807 320 c 2
 807 0 l 1
 643 0 l 1
 643 287 l 2
 643 324 639 350 631 368 c 0
 623 384 610 393 592 393 c 0
 571 393 554 383 539 363 c 0
 524 343 517 319 517 290 c 2
 517 0 l 1
 353 0 l 1
 353 287 l 2
 353 324 349 350 341 368 c 0
 333 384 320 393 302 393 c 0
 281 393 263 383 248 362 c 0
 234 341 227 316 227 285 c 2
 227 0 l 1
 63 0 l 1
 63 520 l 1
 218 520 l 1
 220 456 l 1
 222 456 l 1
 241 481 263 500 286 512 c 0
 310 524 337 530 368 530 c 0
 431 530 473 505 495 456 c 1
 496 456 l 1
 539 505 593 530 658 530 c 0
 710 530 748 513 772 480 c 0
EndSplineSet
EndChar

StartChar: n
Encoding: 110 110 300
Width: 620
Flags: W
LayerCount: 2
Fore
SplineSet
522 480 m 0
 549 446 563 393 563 320 c 2
 563 0 l 1
 397 0 l 1
 397 287 l 2
 397 324 392 350 381 368 c 0
 370 384 353 393 330 393 c 0
 303 393 279 383 260 362 c 0
 240 341 230 317 230 288 c 2
 230 0 l 1
 63 0 l 1
 63 520 l 1
 222 520 l 1
 223 455 l 1
 225 455 l 1
 248 480 273 499 300 512 c 0
 327 524 358 530 393 530 c 0
 452 530 495 513 522 480 c 0
EndSplineSet
EndChar

StartChar: nacute
Encoding: 324 324 301
Width: 620
Flags: W
LayerCount: 2
Fore
SplineSet
522 480 m 0
 549 446 563 393 563 320 c 2
 563 0 l 1
 397 0 l 1
 397 287 l 2
 397 324 392 350 381 368 c 0
 370 384 353 393 330 393 c 0
 303 393 279 383 260 362 c 0
 240 341 230 317 230 288 c 2
 230 0 l 1
 63 0 l 1
 63 520 l 1
 222 520 l 1
 223 455 l 1
 225 455 l 1
 248 480 273 499 300 512 c 0
 327 524 358 530 393 530 c 0
 452 530 495 513 522 480 c 0
351 560 m 1
 201 560 l 1
 273 770 l 1
 473 770 l 1
 351 560 l 1
EndSplineSet
EndChar

StartChar: ncaron
Encoding: 328 328 302
Width: 620
Flags: W
LayerCount: 2
Fore
SplineSet
522 480 m 0
 549 446 563 393 563 320 c 2
 563 0 l 1
 397 0 l 1
 397 287 l 2
 397 324 392 350 381 368 c 0
 370 384 353 393 330 393 c 0
 303 393 279 383 260 362 c 0
 240 341 230 317 230 288 c 2
 230 0 l 1
 63 0 l 1
 63 520 l 1
 222 520 l 1
 223 455 l 1
 225 455 l 1
 248 480 273 499 300 512 c 0
 327 524 358 530 393 530 c 0
 452 530 495 513 522 480 c 0
56 770 m 1
 240 770 l 1
 309 623 l 1
 311 623 l 1
 380 770 l 1
 564 770 l 1
 442 560 l 1
 178 560 l 1
 56 770 l 1
EndSplineSet
EndChar

StartChar: uni0146
Encoding: 326 326 303
Width: 620
Flags: W
LayerCount: 2
Fore
SplineSet
522 480 m 0
 549 446 563 393 563 320 c 2
 563 0 l 1
 397 0 l 1
 397 287 l 2
 397 324 392 350 381 368 c 0
 370 384 353 393 330 393 c 0
 303 393 279 383 260 362 c 0
 240 341 230 317 230 288 c 2
 230 0 l 1
 63 0 l 1
 63 520 l 1
 222 520 l 1
 223 455 l 1
 225 455 l 1
 248 480 273 499 300 512 c 0
 327 524 358 530 393 530 c 0
 452 530 495 513 522 480 c 0
324 -250 m 1
 174 -250 l 1
 246 -40 l 1
 446 -40 l 1
 324 -250 l 1
EndSplineSet
EndChar

StartChar: eng
Encoding: 331 331 304
Width: 620
Flags: W
LayerCount: 2
Fore
SplineSet
522 480 m 0
 549 446 563 393 563 320 c 2
 563 -2 l 2
 563 -57 556 -100 544 -133 c 0
 530 -166 510 -189 480 -204 c 0
 452 -219 412 -226 363 -226 c 0
 318 -226 273 -221 228 -211 c 1
 247 -77 l 1
 274 -85 301 -89 327 -89 c 0
 353 -89 371 -83 382 -70 c 0
 392 -57 397 -35 397 -2 c 2
 397 287 l 2
 397 324 392 350 381 368 c 0
 370 384 353 393 330 393 c 0
 303 393 279 383 260 362 c 0
 240 341 230 317 230 288 c 2
 230 0 l 1
 63 0 l 1
 63 520 l 1
 222 520 l 1
 223 455 l 1
 225 455 l 1
 248 480 273 499 300 512 c 0
 327 524 358 530 393 530 c 0
 452 530 495 513 522 480 c 0
EndSplineSet
EndChar

StartChar: uni01CC
Encoding: 460 460 305
Width: 979
Flags: W
LayerCount: 2
Fore
SplineSet
522 480 m 0
 549 446 563 393 563 320 c 2
 563 0 l 1
 397 0 l 1
 397 287 l 2
 397 324 392 350 381 368 c 0
 370 384 353 393 330 393 c 0
 303 393 279 383 260 362 c 0
 240 341 230 317 230 288 c 2
 230 0 l 1
 63 0 l 1
 63 520 l 1
 222 520 l 1
 223 455 l 1
 225 455 l 1
 248 480 273 499 300 512 c 0
 327 524 358 530 393 530 c 0
 452 530 495 513 522 480 c 0
739 747 m 1
 909 747 l 1
 909 603 l 1
 739 603 l 1
 739 747 l 1
678 -94 m 0
 702 -88 718 -76 726 -58 c 0
 735 -39 739 -9 739 33 c 2
 739 520 l 1
 909 520 l 1
 909 33 l 2
 909 -36 899 -90 878 -127 c 0
 857 -164 823 -191 774 -206 c 0
 725 -222 656 -230 566 -230 c 1
 558 -103 l 1
 614 -103 654 -100 678 -94 c 0
EndSplineSet
EndChar

StartChar: ntilde
Encoding: 241 241 306
Width: 620
Flags: W
LayerCount: 2
Fore
SplineSet
522 480 m 0
 549 446 563 393 563 320 c 2
 563 0 l 1
 397 0 l 1
 397 287 l 2
 397 324 392 350 381 368 c 0
 370 384 353 393 330 393 c 0
 303 393 279 383 260 362 c 0
 240 341 230 317 230 288 c 2
 230 0 l 1
 63 0 l 1
 63 520 l 1
 222 520 l 1
 223 455 l 1
 225 455 l 1
 248 480 273 499 300 512 c 0
 327 524 358 530 393 530 c 0
 452 530 495 513 522 480 c 0
293 608 m 0
 266 624 246 632 232 632 c 0
 223 632 216 628 213 619 c 0
 210 610 208 594 208 569 c 1
 76 569 l 1
 76 638 85 688 104 722 c 0
 123 754 152 771 191 771 c 0
 228 771 274 755 329 722 c 0
 356 706 376 698 389 698 c 0
 398 698 405 702 408 711 c 0
 412 720 414 736 414 761 c 1
 546 761 l 1
 546 692 536 642 518 608 c 0
 498 576 469 559 430 559 c 0
 393 559 348 575 293 608 c 0
EndSplineSet
EndChar

StartChar: o
Encoding: 111 111 307
Width: 599
Flags: W
LayerCount: 2
Fore
SplineSet
101 60 m 0
 55 106 32 173 32 260 c 0
 32 347 55 414 101 460 c 0
 147 507 213 530 300 530 c 0
 386 530 452 507 498 460 c 0
 544 413 567 347 567 260 c 0
 567 173 544 107 498 60 c 0
 452 13 386 -10 300 -10 c 0
 213 -10 147 13 101 60 c 0
401 260 m 0
 401 358 367 407 300 407 c 0
 266 407 241 395 224 370 c 0
 207 346 199 309 199 260 c 0
 199 211 207 174 224 150 c 0
 241 125 266 113 300 113 c 0
 367 113 401 162 401 260 c 0
EndSplineSet
EndChar

StartChar: oacute
Encoding: 243 243 308
Width: 599
Flags: W
LayerCount: 2
Fore
SplineSet
101 60 m 0
 55 106 32 173 32 260 c 0
 32 347 55 414 101 460 c 0
 147 507 213 530 300 530 c 0
 386 530 452 507 498 460 c 0
 544 413 567 347 567 260 c 0
 567 173 544 107 498 60 c 0
 452 13 386 -10 300 -10 c 0
 213 -10 147 13 101 60 c 0
401 260 m 0
 401 358 367 407 300 407 c 0
 266 407 241 395 224 370 c 0
 207 346 199 309 199 260 c 0
 199 211 207 174 224 150 c 0
 241 125 266 113 300 113 c 0
 367 113 401 162 401 260 c 0
340 560 m 1
 190 560 l 1
 262 770 l 1
 462 770 l 1
 340 560 l 1
EndSplineSet
EndChar

StartChar: obreve
Encoding: 335 335 309
Width: 599
Flags: W
LayerCount: 2
Fore
SplineSet
101 60 m 0
 55 106 32 173 32 260 c 0
 32 347 55 414 101 460 c 0
 147 507 213 530 300 530 c 0
 386 530 452 507 498 460 c 0
 544 413 567 347 567 260 c 0
 567 173 544 107 498 60 c 0
 452 13 386 -10 300 -10 c 0
 213 -10 147 13 101 60 c 0
401 260 m 0
 401 358 367 407 300 407 c 0
 266 407 241 395 224 370 c 0
 207 346 199 309 199 260 c 0
 199 211 207 174 224 150 c 0
 241 125 266 113 300 113 c 0
 367 113 401 162 401 260 c 0
179 584 m 0
 144 601 116 625 96 656 c 0
 75 687 65 722 64 761 c 1
 217 761 l 1
 220 731 229 709 242 694 c 0
 255 680 274 673 299 673 c 0
 324 673 343 680 356 694 c 0
 369 709 378 731 382 761 c 1
 534 761 l 1
 533 722 523 687 502 656 c 0
 482 625 454 601 419 584 c 0
 384 567 344 558 299 558 c 0
 254 558 214 567 179 584 c 0
EndSplineSet
EndChar

StartChar: ocircumflex
Encoding: 244 244 310
Width: 599
Flags: W
LayerCount: 2
Fore
SplineSet
101 60 m 0
 55 106 32 173 32 260 c 0
 32 347 55 414 101 460 c 0
 147 507 213 530 300 530 c 0
 386 530 452 507 498 460 c 0
 544 413 567 347 567 260 c 0
 567 173 544 107 498 60 c 0
 452 13 386 -10 300 -10 c 0
 213 -10 147 13 101 60 c 0
401 260 m 0
 401 358 367 407 300 407 c 0
 266 407 241 395 224 370 c 0
 207 346 199 309 199 260 c 0
 199 211 207 174 224 150 c 0
 241 125 266 113 300 113 c 0
 367 113 401 162 401 260 c 0
167 770 m 1
 431 770 l 1
 553 560 l 1
 369 560 l 1
 300 707 l 1
 298 707 l 1
 229 560 l 1
 45 560 l 1
 167 770 l 1
EndSplineSet
EndChar

StartChar: uni1ED1
Encoding: 7889 7889 311
Width: 599
Flags: W
LayerCount: 2
Fore
SplineSet
298 707 m 1
 229 560 l 1
 45 560 l 1
 167 770 l 1
 415 770 l 1
 477 950 l 1
 677 950 l 1
 555 740 l 1
 448 740 l 1
 553 560 l 1
 369 560 l 1
 300 707 l 1
 298 707 l 1
498 460 m 0
 544 413 567 347 567 260 c 0
 567 173 544 107 498 60 c 0
 452 13 386 -10 300 -10 c 0
 213 -10 147 13 101 60 c 0
 55 106 32 173 32 260 c 0
 32 347 55 414 101 460 c 0
 147 507 213 530 300 530 c 0
 386 530 452 507 498 460 c 0
401 260 m 0
 401 358 367 407 300 407 c 0
 266 407 241 395 224 370 c 0
 207 346 199 309 199 260 c 0
 199 211 207 174 224 150 c 0
 241 125 266 113 300 113 c 0
 367 113 401 162 401 260 c 0
EndSplineSet
EndChar

StartChar: uni1ED9
Encoding: 7897 7897 312
Width: 599
Flags: W
LayerCount: 2
Fore
SplineSet
101 60 m 0
 55 106 32 173 32 260 c 0
 32 347 55 414 101 460 c 0
 147 507 213 530 300 530 c 0
 386 530 452 507 498 460 c 0
 544 413 567 347 567 260 c 0
 567 173 544 107 498 60 c 0
 452 13 386 -10 300 -10 c 0
 213 -10 147 13 101 60 c 0
401 260 m 0
 401 358 367 407 300 407 c 0
 266 407 241 395 224 370 c 0
 207 346 199 309 199 260 c 0
 199 211 207 174 224 150 c 0
 241 125 266 113 300 113 c 0
 367 113 401 162 401 260 c 0
215 -61 m 1
 383 -61 l 1
 383 -229 l 1
 215 -229 l 1
 215 -61 l 1
167 770 m 1
 431 770 l 1
 553 560 l 1
 369 560 l 1
 300 707 l 1
 298 707 l 1
 229 560 l 1
 45 560 l 1
 167 770 l 1
EndSplineSet
EndChar

StartChar: uni1ED3
Encoding: 7891 7891 313
Width: 599
Flags: W
LayerCount: 2
Fore
SplineSet
150 740 m 1
 43 740 l 1
 -79 950 l 1
 121 950 l 1
 183 770 l 1
 431 770 l 1
 553 560 l 1
 369 560 l 1
 300 707 l 1
 298 707 l 1
 229 560 l 1
 45 560 l 1
 150 740 l 1
498 460 m 0
 544 413 567 347 567 260 c 0
 567 173 544 107 498 60 c 0
 452 13 386 -10 300 -10 c 0
 213 -10 147 13 101 60 c 0
 55 106 32 173 32 260 c 0
 32 347 55 414 101 460 c 0
 147 507 213 530 300 530 c 0
 386 530 452 507 498 460 c 0
401 260 m 0
 401 358 367 407 300 407 c 0
 266 407 241 395 224 370 c 0
 207 346 199 309 199 260 c 0
 199 211 207 174 224 150 c 0
 241 125 266 113 300 113 c 0
 367 113 401 162 401 260 c 0
EndSplineSet
EndChar

StartChar: uni1ED5
Encoding: 7893 7893 314
Width: 599
Flags: W
LayerCount: 2
Fore
SplineSet
229 560 m 1
 45 560 l 1
 167 770 l 1
 416 770 l 1
 418 782 419 793 419 802 c 0
 419 815 415 823 408 828 c 0
 401 832 387 834 367 834 c 0
 320 834 272 826 222 811 c 1
 209 930 l 1
 236 936 266 941 299 944 c 0
 332 948 363 950 392 950 c 0
 440 950 477 947 503 942 c 0
 529 937 548 928 558 914 c 0
 570 902 575 883 575 859 c 0
 575 841 573 821 568 798 c 0
 564 776 559 757 552 740 c 1
 448 740 l 1
 553 560 l 1
 369 560 l 1
 300 707 l 1
 298 707 l 1
 229 560 l 1
498 460 m 0
 544 413 567 347 567 260 c 0
 567 173 544 107 498 60 c 0
 452 13 386 -10 300 -10 c 0
 213 -10 147 13 101 60 c 0
 55 106 32 173 32 260 c 0
 32 347 55 414 101 460 c 0
 147 507 213 530 300 530 c 0
 386 530 452 507 498 460 c 0
401 260 m 0
 401 358 367 407 300 407 c 0
 266 407 241 395 224 370 c 0
 207 346 199 309 199 260 c 0
 199 211 207 174 224 150 c 0
 241 125 266 113 300 113 c 0
 367 113 401 162 401 260 c 0
EndSplineSet
EndChar

